{
.appVersion = "1172";
DisplayStrings = (
i,
"/dotaccentcomb/iogonek",
"a/aogonek",
"/aogonek"
);
copyright = "Copyright 2011 The Dosis Project Authors (impallari@gmail.com)";
customParameters = (
{
name = licenseURL;
value = "http://scripts.sil.org/OFL";
},
{
name = trademark;
value = "Dosis is a trademark of EdgarTolentino, PabloImpallari, IginoMarini.";
},
{
name = license;
value = "This Font Software is licensed under the SIL Open Font License, Version 1.1. This license is available with a FAQ at: http://scripts.sil.org/OFL";
},
{
name = fsType;
value = (
);
},
{
name = "Use Typo Metrics";
value = 1;
},
{
name = vendorID;
value = IMPA;
}
);
date = "2016-08-25 09:35:44 +0000";
designer = "EdgarTolentino, PabloImpallari, IginoMarini";
designerURL = "http://www.impallari.com";
familyName = Dosis;
features = (
{
code = "feature liga;\012  feature salt;\012  feature ss01;\012  feature ss02;\012  feature ss03;\012  feature ss04;\012  feature ss05;\012  feature lnum;\012  feature frac;\012";
name = aalt;
},
{
code = "sub f i by fi;\012  sub f l by fl;\012";
name = liga;
},
{
code = "sub a by a.ss01;\012    sub b by b.ss02;\012    sub g by g.ss03;\012    sub m by m.ss04;\012    sub n by n.ss04;\012    sub q by q.ss02;\012    sub r by r.ss04;\012    sub u by u.ss04;  \012";
name = salt;
},
{
code = "sub a by a.ss01;\012";
name = ss01;
},
{
code = "sub b by b.ss02;\012    sub q by q.ss02;\012";
name = ss02;
},
{
code = "sub g by g.ss03;\012";
name = ss03;
},
{
code = "sub m by m.ss04;\012    sub n by n.ss04;\012    sub r by r.ss04;    \012";
name = ss04;
},
{
code = "sub u by u.ss04;    \012";
name = ss05;
},
{
code = "sub one by one.lnum;\012";
name = lnum;
},
{

glyphs = (
{
glyphname = A;
lastChange = "2016-09-01 13:30:52 +0000";
layers = (
{
anchors = (
{
name = bottom;
position = "{261, 0}";
},
{
name = ogonek;
position = "{469, 10}";
},
{
name = top;
position = "{261, 731}";
}
);
background = {
paths = (
{
closed = 1;
nodes = (
"460 13 LINE SMOOTH",
"463 4 OFFCURVE",
"469 0 OFFCURVE",
"476 0 CURVE SMOOTH",
"486 0 OFFCURVE",
"496 8 OFFCURVE",
"496 17 CURVE SMOOTH",
"496 19 OFFCURVE",
"495 20 OFFCURVE",
"495 22 CURVE SMOOTH",
"280 723 LINE SMOOTH",
"277 732 OFFCURVE",
"269 737 OFFCURVE",
"261 737 CURVE SMOOTH",
"253 737 OFFCURVE",
"246 733 OFFCURVE",
"243 723 CURVE SMOOTH",
"26 22 LINE SMOOTH",
"25 20 OFFCURVE",
"25 18 OFFCURVE",
"25 16 CURVE SMOOTH",
"25 6 OFFCURVE",
"34 0 OFFCURVE",
"43 0 CURVE SMOOTH",
"51 0 OFFCURVE",
"58 4 OFFCURVE",
"61 13 CURVE SMOOTH",
"111 177 LINE",
"409 177 LINE"
);
},
{
closed = 1;
nodes = (
"261 661 LINE",
"398 213 LINE",
"122 213 LINE"
);
}
);
};
hints = (
{
horizontal = 1;
place = "{177, 36}";
type = Stem;
},
{
horizontal = 1;
place = "{0, 21}";
target = up;
type = BottomGhost;
},
{
horizontal = 1;
place = "{737, -20}";
target = down;
type = TopGhost;
}
);
layerId = UUID0;
paths = (
{
closed = 1;
nodes = (
"51 0 OFFCURVE",
"58 4 OFFCURVE",
"61 13 CURVE SMOOTH",
"111 177 LINE",
"409 177 LINE",
"460 13 LINE SMOOTH",
"463 4 OFFCURVE",
"469 0 OFFCURVE",
"476 0 CURVE SMOOTH",
"486 0 OFFCURVE",
"496 8 OFFCURVE",
"496 17 CURVE SMOOTH",
"496 19 OFFCURVE",
"495 20 OFFCURVE",
"495 22 CURVE",
"280 723 LINE SMOOTH",
"277 732 OFFCURVE",
"269 737 OFFCURVE",
"261 737 CURVE SMOOTH",
"253 737 OFFCURVE",
"246 733 OFFCURVE",
"243 723 CURVE SMOOTH",
"26 22 LINE",
"25 20 OFFCURVE",
"25 18 OFFCURVE",
"25 16 CURVE SMOOTH",
"25 6 OFFCURVE",
"34 0 OFFCURVE",
"43 0 CURVE SMOOTH"
);
},
{
closed = 1;
nodes = (
"261 661 LINE",
"398 213 LINE",
"122 213 LINE"
);
}
);
width = 521;
},
{
anchors = (
{
name = bottom;
position = "{295, 0}";
},
{
name = ogonek;
position = "{530, 10}";
},
{
name = top;
position = "{295, 731}";
}
);
background = {
paths = (
{
closed = 1;
nodes = (
"494 13 LINE SMOOTH",
"497 4 OFFCURVE",
"503 0 OFFCURVE",
"510 0 CURVE SMOOTH",
"520 0 OFFCURVE",
"530 8 OFFCURVE",
"530 17 CURVE SMOOTH",
"530 19 OFFCURVE",
"529 20 OFFCURVE",
"529 22 CURVE SMOOTH",
"314 723 LINE SMOOTH",
"311 732 OFFCURVE",
"303 737 OFFCURVE",
"295 737 CURVE SMOOTH",
"287 737 OFFCURVE",
"280 733 OFFCURVE",
"277 723 CURVE SMOOTH",
"60 22 LINE SMOOTH",
"59 20 OFFCURVE",
"59 18 OFFCURVE",
"59 16 CURVE SMOOTH",
"59 6 OFFCURVE",
"68 0 OFFCURVE",
"77 0 CURVE SMOOTH",
"85 0 OFFCURVE",
"92 4 OFFCURVE",
"95 13 CURVE SMOOTH",
"145 177 LINE",
"443 177 LINE"
);
},
{
closed = 1;
nodes = (
"295 661 LINE",
"432 213 LINE",
"156 213 LINE"
);
}
);
};
hints = (
{
horizontal = 1;
place = "{154, 120}";
type = Stem;
},
{
horizontal = 1;
place = "{0, 21}";
target = up;
type = BottomGhost;
},
{
horizontal = 1;
place = "{737, -20}";
target = down;
type = TopGhost;
}
);
layerId = "228CC867-ECE3-4F82-B853-1E58141B916C";
paths = (
{
closed = 1;
nodes = (
"129 0 OFFCURVE",
"149 8 OFFCURVE",
"155 29 CURVE SMOOTH",
"189 154 LINE",
"400 154 LINE",
"434 29 LINE SMOOTH",
"440 8 OFFCURVE",
"460 0 OFFCURVE",
"485 0 CURVE SMOOTH",
"528 0 OFFCURVE",
"585 27 OFFCURVE",
"585 64 CURVE SMOOTH",
"585 67 OFFCURVE",
"584 71 OFFCURVE",
"583 75 CURVE",
"396 685 LINE SMOOTH",
"385 720 OFFCURVE",
"340 737 OFFCURVE",
"294 737 CURVE SMOOTH",
"248 737 OFFCURVE",
"203 720 OFFCURVE",
"192 685 CURVE SMOOTH",
"6 75 LINE",
"5 71 OFFCURVE",
"4 67 OFFCURVE",
"4 64 CURVE SMOOTH",
"4 27 OFFCURVE",
"61 0 OFFCURVE",
"104 0 CURVE SMOOTH"
);
},
{
closed = 1;
nodes = (
"294 542 LINE",
"367 274 LINE",
"221 274 LINE"
);
}
);
width = 589;
}
);
leftKerningGroup = A;
rightKerningGroup = A;
unicode = 0041;
},
{
color = 4;
glyphname = Aacute;
lastChange = "2016-09-01 13:44:24 +0000";
layers = (
{
hints = (
{
horizontal = 1;
place = "{177, 36}";
type = Stem;
},
{
horizontal = 1;
place = "{0, 21}";
target = up;
type = BottomGhost;
},
{
horizontal = 1;
place = "{737, -20}";
target = down;
type = TopGhost;
},
{
horizontal = 1;
place = "{953, -20}";
target = down;
type = TopGhost;
}
);
layerId = UUID0;
paths = (
{
closed = 1;
nodes = (
"51 0 OFFCURVE",
"58 4 OFFCURVE",
"61 13 CURVE SMOOTH",
"111 177 LINE",
"409 177 LINE",
"460 13 LINE SMOOTH",
"463 4 OFFCURVE",
"469 0 OFFCURVE",
"476 0 CURVE SMOOTH",
"486 0 OFFCURVE",
"496 8 OFFCURVE",
"496 17 CURVE SMOOTH",
"496 19 OFFCURVE",
"495 20 OFFCURVE",
"495 22 CURVE",
"280 723 LINE SMOOTH",
"277 732 OFFCURVE",
"269 737 OFFCURVE",
"261 737 CURVE SMOOTH",
"253 737 OFFCURVE",
"246 733 OFFCURVE",
"243 723 CURVE SMOOTH",
"26 22 LINE",
"25 20 OFFCURVE",
"25 18 OFFCURVE",
"25 16 CURVE SMOOTH",
"25 6 OFFCURVE",
"34 0 OFFCURVE",
"43 0 CURVE SMOOTH"
);
},
{
closed = 1;
nodes = (
"261 661 LINE",
"398 213 LINE",
"122 213 LINE"
);
},
{
closed = 1;
nodes = (
"216 860 OFFCURVE",
"219 861 OFFCURVE",
"222 863 CURVE",
"317 917 LINE SMOOTH",
"324 921 OFFCURVE",
"327 928 OFFCURVE",
"327 935 CURVE SMOOTH",
"327 944 OFFCURVE",
"321 953 OFFCURVE",
"311 953 CURVE SMOOTH",
"309 953 OFFCURVE",
"306 952 OFFCURVE",
"304 951 CURVE",
"202 891 LINE",
"196 888 OFFCURVE",
"194 883 OFFCURVE",
"194 878 CURVE SMOOTH",
"194 868 OFFCURVE",
"203 860 OFFCURVE",
"213 860 CURVE SMOOTH"
);
}
);
width = 521;
},
{
hints = (
{
place = "{221, 221}";
type = Stem;
},
{
horizontal = 1;
place = "{154, 120}";
type = Stem;
},
{
horizontal = 1;
place = "{0, 21}";
target = up;
type = BottomGhost;
},
{
horizontal = 1;
place = "{737, -20}";
target = down;
type = TopGhost;
},
{
horizontal = 1;
place = "{959, -20}";
target = down;
type = TopGhost;
}
);
layerId = "228CC867-ECE3-4F82-B853-1E58141B916C";
paths = (
{
closed = 1;
nodes = (
"129 0 OFFCURVE",
"149 8 OFFCURVE",
"155 29 CURVE SMOOTH",
"189 154 LINE",
"400 154 LINE",
"434 29 LINE SMOOTH",
"440 8 OFFCURVE",
"460 0 OFFCURVE",
"485 0 CURVE SMOOTH",
"528 0 OFFCURVE",
"585 27 OFFCURVE",
"585 64 CURVE SMOOTH",
"585 67 OFFCURVE",
"584 71 OFFCURVE",
"583 75 CURVE",
"396 685 LINE SMOOTH",
"385 720 OFFCURVE",
"340 737 OFFCURVE",
"294 737 CURVE SMOOTH",
"248 737 OFFCURVE",
"203 720 OFFCURVE",
"192 685 CURVE SMOOTH",
"6 75 LINE",
"5 71 OFFCURVE",
"4 67 OFFCURVE",
"4 64 CURVE SMOOTH",
"4 27 OFFCURVE",
"61 0 OFFCURVE",
"104 0 CURVE SMOOTH"
);
},
{
closed = 1;
nodes = (
"294 542 LINE",
"367 274 LINE",
"221 274 LINE"
);
},
{
closed = 1;
nodes = (
"272 798 OFFCURVE",
"277 800 OFFCURVE",
"282 802 CURVE",
"422 867 LINE SMOOTH",
"436 874 OFFCURVE",
"442 887 OFFCURVE",
"442 901 CURVE SMOOTH",
"442 927 OFFCURVE",
"422 959 OFFCURVE",
"395 959 CURVE SMOOTH",
"391 959 OFFCURVE",
"386 958 OFFCURVE",
"381 956 CURVE",
"241 891 LINE SMOOTH",
"227 884 OFFCURVE",
"221 871 OFFCURVE",
"221 856 CURVE SMOOTH",
"221 830 OFFCURVE",
"241 798 OFFCURVE",
"267 798 CURVE SMOOTH"
);
}
);
width = 589;
}
);
leftKerningGroup = A;
rightKerningGroup = A;
unicode = 00C1;
},
{
color = 4;
glyphname = Abreve;
lastChange = "2016-09-01 13:44:24 +0000";
layers = (
{
hints = (
{
place = "{151, 32}";
type = Stem;
},
{
place = "{336, 33}";
type = Stem;
},
{
horizontal = 1;
place = "{860, 109}";
type = Stem;
},
{
horizontal = 1;
place = "{860, 26}";
type = Stem;
},
{
horizontal = 1;
place = "{177, 36}";
type = Stem;
},
{
horizontal = 1;
place = "{0, 21}";
target = up;
type = BottomGhost;
},
{
horizontal = 1;
place = "{737, -20}";
target = down;
type = TopGhost;
}
);
layerId = UUID0;
paths = (
{
closed = 1;
nodes = (
"51 0 OFFCURVE",
"58 4 OFFCURVE",
"61 13 CURVE SMOOTH",
"111 177 LINE",
"409 177 LINE",
"460 13 LINE SMOOTH",
"463 4 OFFCURVE",
"469 0 OFFCURVE",
"476 0 CURVE SMOOTH",
"486 0 OFFCURVE",
"496 8 OFFCURVE",
"496 17 CURVE SMOOTH",
"496 19 OFFCURVE",
"495 20 OFFCURVE",
"495 22 CURVE",
"280 723 LINE SMOOTH",
"277 732 OFFCURVE",
"269 737 OFFCURVE",
"261 737 CURVE SMOOTH",
"253 737 OFFCURVE",
"246 733 OFFCURVE",
"243 723 CURVE SMOOTH",
"26 22 LINE",
"25 20 OFFCURVE",
"25 18 OFFCURVE",
"25 16 CURVE SMOOTH",
"25 6 OFFCURVE",
"34 0 OFFCURVE",
"43 0 CURVE SMOOTH"
);
},
{
closed = 1;
nodes = (
"261 661 LINE",
"398 213 LINE",
"122 213 LINE"
);
},
{
closed = 1;
nodes = (
"317 860 OFFCURVE",
"369 910 OFFCURVE",
"369 969 CURVE",
"336 969 LINE",
"336 923 OFFCURVE",
"301 886 OFFCURVE",
"260 886 CURVE SMOOTH",
"218 886 OFFCURVE",
"183 923 OFFCURVE",
"183 969 CURVE",
"151 969 LINE",
"151 910 OFFCURVE",
"202 860 OFFCURVE",
"260 860 CURVE SMOOTH"
);
}
);
width = 521;
},
{
hints = (
{
place = "{155, 80}";
type = Stem;
},
{
horizontal = 1;
place = "{154, 120}";
type = Stem;
},
{
horizontal = 1;
place = "{824, 66}";
type = Stem;
},
{
horizontal = 1;
place = "{824, 139}";
type = Stem;
},
{
horizontal = 1;
place = "{0, 21}";
target = up;
type = BottomGhost;
},
{
horizontal = 1;
place = "{737, -20}";
target = down;
type = TopGhost;
}
);
layerId = "228CC867-ECE3-4F82-B853-1E58141B916C";
paths = (
{
closed = 1;
nodes = (
"129 0 OFFCURVE",
"149 8 OFFCURVE",
"155 29 CURVE SMOOTH",
"189 154 LINE",
"400 154 LINE",
"434 29 LINE SMOOTH",
"440 8 OFFCURVE",
"460 0 OFFCURVE",
"485 0 CURVE SMOOTH",
"528 0 OFFCURVE",
"585 27 OFFCURVE",
"585 64 CURVE SMOOTH",
"585 67 OFFCURVE",
"584 71 OFFCURVE",
"583 75 CURVE",
"396 685 LINE SMOOTH",
"385 720 OFFCURVE",
"340 737 OFFCURVE",
"294 737 CURVE SMOOTH",
"248 737 OFFCURVE",
"203 720 OFFCURVE",
"192 685 CURVE SMOOTH",
"6 75 LINE",
"5 71 OFFCURVE",
"4 67 OFFCURVE",
"4 64 CURVE SMOOTH",
"4 27 OFFCURVE",
"61 0 OFFCURVE",
"104 0 CURVE SMOOTH"
);
},
{
closed = 1;
nodes = (
"294 542 LINE",
"367 274 LINE",
"221 274 LINE"
);
},
{
closed = 1;
nodes = (
"366 824 OFFCURVE",
"434 889 OFFCURVE",
"434 963 CURVE",
"354 963 LINE",
"354 920 OFFCURVE",
"323 890 OFFCURVE",
"295 890 CURVE SMOOTH",
"266 890 OFFCURVE",
"235 920 OFFCURVE",
"235 963 CURVE",
"155 963 LINE",
"155 889 OFFCURVE",
"223 824 OFFCURVE",
"295 824 CURVE SMOOTH"
);
}
);
width = 589;
}
);
leftKerningGroup = A;
rightKerningGroup = A;
unicode = 0102;
},
{
color = 4;
glyphname = Acircumflex;
lastChange = "2016-09-01 13:44:24 +0000";
layers = (
{
hints = (
{
horizontal = 1;
place = "{177, 36}";
type = Stem;
},
{
horizontal = 1;
place = "{0, 21}";
target = up;
type = BottomGhost;
},
{
horizontal = 1;
place = "{737, -20}";
target = down;
type = TopGhost;
},
{
horizontal = 1;
place = "{953, -20}";
target = down;
type = TopGhost;
}
);
layerId = UUID0;
paths = (
{
closed = 1;
nodes = (
"51 0 OFFCURVE",
"58 4 OFFCURVE",
"61 13 CURVE SMOOTH",
"111 177 LINE",
"409 177 LINE",
"460 13 LINE SMOOTH",
"463 4 OFFCURVE",
"469 0 OFFCURVE",
"476 0 CURVE SMOOTH",
"486 0 OFFCURVE",
"496 8 OFFCURVE",
"496 17 CURVE SMOOTH",
"496 19 OFFCURVE",
"495 20 OFFCURVE",
"495 22 CURVE",
"280 723 LINE SMOOTH",
"277 732 OFFCURVE",
"269 737 OFFCURVE",
"261 737 CURVE SMOOTH",
"253 737 OFFCURVE",
"246 733 OFFCURVE",
"243 723 CURVE SMOOTH",
"26 22 LINE",
"25 20 OFFCURVE",
"25 18 OFFCURVE",
"25 16 CURVE SMOOTH",
"25 6 OFFCURVE",
"34 0 OFFCURVE",
"43 0 CURVE SMOOTH"
);
},
{
closed = 1;
nodes = (
"261 661 LINE",
"398 213 LINE",
"122 213 LINE"
);
},
{
closed = 1;
nodes = (
"150 859 OFFCURVE",
"153 861 OFFCURVE",
"156 862 CURVE",
"260 918 LINE",
"364 863 LINE",
"367 862 OFFCURVE",
"370 860 OFFCURVE",
"373 860 CURVE SMOOTH",
"382 860 OFFCURVE",
"390 867 OFFCURVE",
"390 876 CURVE SMOOTH",
"390 883 OFFCURVE",
"387 890 OFFCURVE",
"381 893 CURVE SMOOTH",
"277 948 LINE",
"272 951 OFFCURVE",
"266 953 OFFCURVE",
"260 953 CURVE SMOOTH",
"254 953 OFFCURVE",
"248 951 OFFCURVE",
"243 948 CURVE",
"139 892 LINE SMOOTH",
"133 889 OFFCURVE",
"130 883 OFFCURVE",
"130 878 CURVE SMOOTH",
"130 867 OFFCURVE",
"139 859 OFFCURVE",
"148 859 CURVE SMOOTH"
);
}
);
width = 521;
},
{
hints = (
{
horizontal = 1;
place = "{0, 21}";
target = up;
type = BottomGhost;
},
{
horizontal = 1;
place = "{737, -20}";
target = down;
type = TopGhost;
},
{
horizontal = 1;
place = "{959, -20}";
target = down;
type = TopGhost;
}
);
layerId = "228CC867-ECE3-4F82-B853-1E58141B916C";
paths = (
{
closed = 1;
nodes = (
"129 0 OFFCURVE",
"149 8 OFFCURVE",
"155 29 CURVE SMOOTH",
"189 154 LINE",
"400 154 LINE",
"434 29 LINE SMOOTH",
"440 8 OFFCURVE",
"460 0 OFFCURVE",
"485 0 CURVE SMOOTH",
"528 0 OFFCURVE",
"585 27 OFFCURVE",
"585 64 CURVE SMOOTH",
"585 67 OFFCURVE",
"584 71 OFFCURVE",
"583 75 CURVE",
"396 685 LINE SMOOTH",
"385 720 OFFCURVE",
"340 737 OFFCURVE",
"294 737 CURVE SMOOTH",
"248 737 OFFCURVE",
"203 720 OFFCURVE",
"192 685 CURVE SMOOTH",
"6 75 LINE",
"5 71 OFFCURVE",
"4 67 OFFCURVE",
"4 64 CURVE SMOOTH",
"4 27 OFFCURVE",
"61 0 OFFCURVE",
"104 0 CURVE SMOOTH"
);
},
{
closed = 1;
nodes = (
"294 542 LINE",
"367 274 LINE",
"221 274 LINE"
);
},
{
closed = 1;
nodes = (
"182 808 OFFCURVE",
"186 809 OFFCURVE",
"190 811 CURVE SMOOTH",
"294 867 LINE",
"398 811 LINE SMOOTH",
"402 809 OFFCURVE",
"406 808 OFFCURVE",
"409 808 CURVE SMOOTH",
"427 808 OFFCURVE",
"440 831 OFFCURVE",
"440 854 CURVE SMOOTH",
"440 871 OFFCURVE",
"433 888 OFFCURVE",
"415 898 CURVE SMOOTH",
"311 954 LINE SMOOTH",
"305 957 OFFCURVE",
"300 959 OFFCURVE",
"294 959 CURVE SMOOTH",
"288 959 OFFCURVE",
"283 957 OFFCURVE",
"277 954 CURVE SMOOTH",
"173 898 LINE SMOOTH",
"155 888 OFFCURVE",
"148 871 OFFCURVE",
"148 854 CURVE SMOOTH",
"148 831 OFFCURVE",
"161 808 OFFCURVE",
"179 808 CURVE SMOOTH"
);
}
);
width = 589;
}
);
leftKerningGroup = A;
rightKerningGroup = A;
unicode = 00C2;
},
{
glyphname = Adieresis;
lastChange = "2016-08-25 09:49:10 +0000";
layers = (
{
hints = (
{
place = "{175, 59}";
type = Stem;
},
{
place = "{286, 59}";
type = Stem;
},
{
horizontal = 1;
place = "{859, 59}";
type = Stem;
},
{
horizontal = 1;
place = "{177, 36}";
type = Stem;
},
{
horizontal = 1;
place = "{0, 21}";
target = up;
type = BottomGhost;
},
{
horizontal = 1;
place = "{737, -20}";
target = down;
type = TopGhost;
}
);
layerId = UUID0;
paths = (
{
closed = 1;
nodes = (
"51 0 OFFCURVE",
"58 4 OFFCURVE",
"61 13 CURVE SMOOTH",
"111 177 LINE",
"409 177 LINE",
"460 13 LINE SMOOTH",
"463 4 OFFCURVE",
"469 0 OFFCURVE",
"476 0 CURVE SMOOTH",
"486 0 OFFCURVE",
"496 8 OFFCURVE",
"496 17 CURVE SMOOTH",
"496 19 OFFCURVE",
"495 20 OFFCURVE",
"495 22 CURVE",
"280 723 LINE SMOOTH",
"277 732 OFFCURVE",
"269 737 OFFCURVE",
"261 737 CURVE SMOOTH",
"253 737 OFFCURVE",
"246 733 OFFCURVE",
"243 723 CURVE SMOOTH",
"26 22 LINE",
"25 20 OFFCURVE",
"25 18 OFFCURVE",
"25 16 CURVE SMOOTH",
"25 6 OFFCURVE",
"34 0 OFFCURVE",
"43 0 CURVE SMOOTH"
);
},
{
closed = 1;
nodes = (
"261 661 LINE",
"398 213 LINE",
"122 213 LINE"
);
},
{
closed = 1;
nodes = (
"222 859 OFFCURVE",
"234 872 OFFCURVE",
"234 889 CURVE SMOOTH",
"234 906 OFFCURVE",
"222 918 OFFCURVE",
"205 918 CURVE SMOOTH",
"187 918 OFFCURVE",
"175 906 OFFCURVE",
"175 889 CURVE SMOOTH",
"175 872 OFFCURVE",
"187 859 OFFCURVE",
"205 859 CURVE SMOOTH"
);
},
{
closed = 1;
nodes = (
"333 859 OFFCURVE",
"345 872 OFFCURVE",
"345 889 CURVE SMOOTH",
"345 906 OFFCURVE",
"333 918 OFFCURVE",
"316 918 CURVE SMOOTH",
"298 918 OFFCURVE",
"286 906 OFFCURVE",
"286 889 CURVE SMOOTH",
"286 872 OFFCURVE",
"298 859 OFFCURVE",
"316 859 CURVE SMOOTH"
);
}
);
width = 521;
},
{
hints = (
{
place = "{159, 113}";
type = Stem;
},
{
place = "{319, 113}";
type = Stem;
},
{
horizontal = 1;
place = "{154, 120}";
type = Stem;
},
{
horizontal = 1;
place = "{810, 117}";
type = Stem;
},
{
horizontal = 1;
place = "{0, 21}";
target = up;
type = BottomGhost;
},
{
horizontal = 1;
place = "{737, -20}";
target = down;
type = TopGhost;
}
);
layerId = "228CC867-ECE3-4F82-B853-1E58141B916C";
paths = (
{
closed = 1;
nodes = (
"129 0 OFFCURVE",
"149 8 OFFCURVE",
"155 29 CURVE SMOOTH",
"189 154 LINE",
"400 154 LINE",
"434 29 LINE SMOOTH",
"440 8 OFFCURVE",
"460 0 OFFCURVE",
"485 0 CURVE SMOOTH",
"528 0 OFFCURVE",
"585 27 OFFCURVE",
"585 64 CURVE SMOOTH",
"585 67 OFFCURVE",
"584 71 OFFCURVE",
"583 75 CURVE",
"396 685 LINE SMOOTH",
"385 720 OFFCURVE",
"340 737 OFFCURVE",
"294 737 CURVE SMOOTH",
"248 737 OFFCURVE",
"203 720 OFFCURVE",
"192 685 CURVE SMOOTH",
"6 75 LINE",
"5 71 OFFCURVE",
"4 67 OFFCURVE",
"4 64 CURVE SMOOTH",
"4 27 OFFCURVE",
"61 0 OFFCURVE",
"104 0 CURVE SMOOTH"
);
},
{
closed = 1;
nodes = (
"294 542 LINE",
"367 274 LINE",
"221 274 LINE"
);
},
{
closed = 1;
nodes = (
"247 810 OFFCURVE",
"272 838 OFFCURVE",
"272 869 CURVE SMOOTH",
"272 900 OFFCURVE",
"247 927 OFFCURVE",
"216 927 CURVE SMOOTH",
"185 927 OFFCURVE",
"159 900 OFFCURVE",
"159 869 CURVE SMOOTH",
"159 838 OFFCURVE",
"185 810 OFFCURVE",
"216 810 CURVE SMOOTH"
);
},
{
closed = 1;
nodes = (
"407 810 OFFCURVE",
"432 838 OFFCURVE",
"432 869 CURVE SMOOTH",
"432 900 OFFCURVE",
"407 927 OFFCURVE",
"376 927 CURVE SMOOTH",
"345 927 OFFCURVE",
"319 900 OFFCURVE",
"319 869 CURVE SMOOTH",
"319 838 OFFCURVE",
"345 810 OFFCURVE",
"376 810 CURVE SMOOTH"
);
}
);
width = 589;
}
);
leftKerningGroup = A;
rightKerningGroup = A;
unicode = 00C4;
},
{
color = 4;
glyphname = Agrave;
lastChange = "2016-09-01 13:44:24 +0000";
layers = (
{
hints = (
{
horizontal = 1;
place = "{177, 36}";
type = Stem;
},
{
horizontal = 1;
place = "{0, 21}";
target = up;
type = BottomGhost;
},
{
horizontal = 1;
place = "{737, -20}";
target = down;
type = TopGhost;
},
{
horizontal = 1;
place = "{953, -20}";
target = down;
type = TopGhost;
}
);
layerId = UUID0;
paths = (
{
closed = 1;
nodes = (
"51 0 OFFCURVE",
"58 4 OFFCURVE",
"61 13 CURVE SMOOTH",
"111 177 LINE",
"409 177 LINE",
"460 13 LINE SMOOTH",
"463 4 OFFCURVE",
"469 0 OFFCURVE",
"476 0 CURVE SMOOTH",
"486 0 OFFCURVE",
"496 8 OFFCURVE",
"496 17 CURVE SMOOTH",
"496 19 OFFCURVE",
"495 20 OFFCURVE",
"495 22 CURVE",
"280 723 LINE SMOOTH",
"277 732 OFFCURVE",
"269 737 OFFCURVE",
"261 737 CURVE SMOOTH",
"253 737 OFFCURVE",
"246 733 OFFCURVE",
"243 723 CURVE SMOOTH",
"26 22 LINE",
"25 20 OFFCURVE",
"25 18 OFFCURVE",
"25 16 CURVE SMOOTH",
"25 6 OFFCURVE",
"34 0 OFFCURVE",
"43 0 CURVE SMOOTH"
);
},
{
closed = 1;
nodes = (
"261 661 LINE",
"398 213 LINE",
"122 213 LINE"
);
},
{
closed = 1;
nodes = (
"318 860 OFFCURVE",
"327 868 OFFCURVE",
"327 878 CURVE SMOOTH",
"327 883 OFFCURVE",
"325 888 OFFCURVE",
"319 891 CURVE",
"217 951 LINE",
"215 952 OFFCURVE",
"212 953 OFFCURVE",
"210 953 CURVE SMOOTH",
"200 953 OFFCURVE",
"194 944 OFFCURVE",
"194 935 CURVE SMOOTH",
"194 928 OFFCURVE",
"197 921 OFFCURVE",
"204 917 CURVE SMOOTH",
"299 863 LINE",
"302 861 OFFCURVE",
"305 860 OFFCURVE",
"308 860 CURVE SMOOTH"
);
}
);
width = 521;
},
{
hints = (
{
place = "{166, 221}";
type = Stem;
},
{
horizontal = 1;
place = "{154, 120}";
type = Stem;
},
{
horizontal = 1;
place = "{0, 21}";
target = up;
type = BottomGhost;
},
{
horizontal = 1;
place = "{737, -20}";
target = down;
type = TopGhost;
},
{
horizontal = 1;
place = "{959, -20}";
target = down;
type = TopGhost;
}
);
layerId = "228CC867-ECE3-4F82-B853-1E58141B916C";
paths = (
{
closed = 1;
nodes = (
"129 0 OFFCURVE",
"149 8 OFFCURVE",
"155 29 CURVE SMOOTH",
"189 154 LINE",
"400 154 LINE",
"434 29 LINE SMOOTH",
"440 8 OFFCURVE",
"460 0 OFFCURVE",
"485 0 CURVE SMOOTH",
"528 0 OFFCURVE",
"585 27 OFFCURVE",
"585 64 CURVE SMOOTH",
"585 67 OFFCURVE",
"584 71 OFFCURVE",
"583 75 CURVE",
"396 685 LINE SMOOTH",
"385 720 OFFCURVE",
"340 737 OFFCURVE",
"294 737 CURVE SMOOTH",
"248 737 OFFCURVE",
"203 720 OFFCURVE",
"192 685 CURVE SMOOTH",
"6 75 LINE",
"5 71 OFFCURVE",
"4 67 OFFCURVE",
"4 64 CURVE SMOOTH",
"4 27 OFFCURVE",
"61 0 OFFCURVE",
"104 0 CURVE SMOOTH"
);
},
{
closed = 1;
nodes = (
"294 542 LINE",
"367 274 LINE",
"221 274 LINE"
);
},
{
closed = 1;
nodes = (
"367 798 OFFCURVE",
"387 830 OFFCURVE",
"387 856 CURVE SMOOTH",
"387 871 OFFCURVE",
"381 884 OFFCURVE",
"367 891 CURVE SMOOTH",
"227 956 LINE",
"222 958 OFFCURVE",
"217 959 OFFCURVE",
"213 959 CURVE SMOOTH",
"186 959 OFFCURVE",
"166 927 OFFCURVE",
"166 901 CURVE SMOOTH",
"166 887 OFFCURVE",
"172 874 OFFCURVE",
"186 867 CURVE SMOOTH",
"326 802 LINE",
"331 800 OFFCURVE",
"336 798 OFFCURVE",
"341 798 CURVE SMOOTH"
);
}
);
width = 589;
}
);
leftKerningGroup = A;
rightKerningGroup = A;
unicode = 00C0;
},
{
glyphname = Amacron;
lastChange = "2016-08-25 09:49:10 +0000";
layers = (
{
hints = (
{
horizontal = 1;
place = "{906, 35}";
type = Stem;
},
{
horizontal = 1;
place = "{177, 36}";
type = Stem;
},
{
horizontal = 1;
place = "{0, 21}";
target = up;
type = BottomGhost;
},
{
horizontal = 1;
place = "{737, -20}";
target = down;
type = TopGhost;
}
);
layerId = UUID0;
paths = (
{
closed = 1;
nodes = (
"51 0 OFFCURVE",
"58 4 OFFCURVE",
"61 13 CURVE SMOOTH",
"111 177 LINE",
"409 177 LINE",
"460 13 LINE SMOOTH",
"463 4 OFFCURVE",
"469 0 OFFCURVE",
"476 0 CURVE SMOOTH",
"486 0 OFFCURVE",
"496 8 OFFCURVE",
"496 17 CURVE SMOOTH",
"496 19 OFFCURVE",
"495 20 OFFCURVE",
"495 22 CURVE",
"280 723 LINE SMOOTH",
"277 732 OFFCURVE",
"269 737 OFFCURVE",
"261 737 CURVE SMOOTH",
"253 737 OFFCURVE",
"246 733 OFFCURVE",
"243 723 CURVE SMOOTH",
"26 22 LINE",
"25 20 OFFCURVE",
"25 18 OFFCURVE",
"25 16 CURVE SMOOTH",
"25 6 OFFCURVE",
"34 0 OFFCURVE",
"43 0 CURVE SMOOTH"
);
},
{
closed = 1;
nodes = (
"261 661 LINE",
"398 213 LINE",
"122 213 LINE"
);
},
{
closed = 1;
nodes = (
"370 906 LINE SMOOTH",
"379 906 OFFCURVE",
"388 913 OFFCURVE",
"388 923 CURVE SMOOTH",
"388 933 OFFCURVE",
"379 941 OFFCURVE",
"370 941 CURVE SMOOTH",
"150 941 LINE SMOOTH",
"140 941 OFFCURVE",
"133 933 OFFCURVE",
"133 923 CURVE SMOOTH",
"133 913 OFFCURVE",
"140 906 OFFCURVE",
"150 906 CURVE SMOOTH"
);
}
);
width = 521;
},
{
hints = (
{
horizontal = 1;
place = "{154, 120}";
type = Stem;
},
{
horizontal = 1;
place = "{839, 99}";
type = Stem;
},
{
horizontal = 1;
place = "{0, 21}";
target = up;
type = BottomGhost;
},
{
horizontal = 1;
place = "{737, -20}";
target = down;
type = TopGhost;
}
);
layerId = "228CC867-ECE3-4F82-B853-1E58141B916C";
paths = (
{
closed = 1;
nodes = (
"129 0 OFFCURVE",
"149 8 OFFCURVE",
"155 29 CURVE SMOOTH",
"189 154 LINE",
"400 154 LINE",
"434 29 LINE SMOOTH",
"440 8 OFFCURVE",
"460 0 OFFCURVE",
"485 0 CURVE SMOOTH",
"528 0 OFFCURVE",
"585 27 OFFCURVE",
"585 64 CURVE SMOOTH",
"585 67 OFFCURVE",
"584 71 OFFCURVE",
"583 75 CURVE",
"396 685 LINE SMOOTH",
"385 720 OFFCURVE",
"340 737 OFFCURVE",
"294 737 CURVE SMOOTH",
"248 737 OFFCURVE",
"203 720 OFFCURVE",
"192 685 CURVE SMOOTH",
"6 75 LINE",
"5 71 OFFCURVE",
"4 67 OFFCURVE",
"4 64 CURVE SMOOTH",
"4 27 OFFCURVE",
"61 0 OFFCURVE",
"104 0 CURVE SMOOTH"
);
},
{
closed = 1;
nodes = (
"294 542 LINE",
"367 274 LINE",
"221 274 LINE"
);
},
{
closed = 1;
nodes = (
"394 839 LINE SMOOTH",
"418 839 OFFCURVE",
"442 859 OFFCURVE",
"442 888 CURVE SMOOTH",
"442 916 OFFCURVE",
"418 938 OFFCURVE",
"394 938 CURVE SMOOTH",
"194 938 LINE SMOOTH",
"166 938 OFFCURVE",
"147 916 OFFCURVE",
"147 888 CURVE SMOOTH",
"147 859 OFFCURVE",
"166 839 OFFCURVE",
"194 839 CURVE SMOOTH"
);
}
);
width = 589;
}
);
leftKerningGroup = A;
rightKerningGroup = A;
unicode = 0100;
},
{
glyphname = Aogonek;
lastChange = "2016-09-01 12:14:37 +0000";
layers = (
{
hints = (
{
place = "{384, 29}";
type = Stem;
},
{
place = "{384, 112}";
type = Stem;
},
{
horizontal = 1;
place = "{-195, 26}";
type = Stem;
},
{
horizontal = 1;
place = "{177, 36}";
type = Stem;
},
{
horizontal = 1;
place = "{737, -20}";
target = down;
type = TopGhost;
},
{
horizontal = 1;
place = "{0, 21}";
target = up;
type = BottomGhost;
}
);
layerId = UUID0;
paths = (
{
closed = 1;
nodes = (
"488 -195 OFFCURVE",
"494 -192 OFFCURVE",
"494 -182 CURVE SMOOTH",
"494 -172 OFFCURVE",
"486 -169 OFFCURVE",
"476 -169 CURVE SMOOTH",
"438 -169 OFFCURVE",
"413 -159 OFFCURVE",
"413 -126 CURVE SMOOTH",
"413 -74 OFFCURVE",
"445 -37 OFFCURVE",
"485 2 CURVE",
"491 5 OFFCURVE",
"496 11 OFFCURVE",
"496 17 CURVE SMOOTH",
"496 19 OFFCURVE",
"496 20 OFFCURVE",
"495 22 CURVE",
"280 723 LINE SMOOTH",
"277 732 OFFCURVE",
"269 737 OFFCURVE",
"261 737 CURVE SMOOTH",
"253 737 OFFCURVE",
"246 733 OFFCURVE",
"243 723 CURVE SMOOTH",
"26 22 LINE",
"25 20 OFFCURVE",
"25 18 OFFCURVE",
"25 16 CURVE SMOOTH",
"25 6 OFFCURVE",
"34 0 OFFCURVE",
"43 0 CURVE SMOOTH",
"51 0 OFFCURVE",
"58 4 OFFCURVE",
"61 13 CURVE SMOOTH",
"111 177 LINE",
"409 177 LINE",
"450 45 LINE",
"453 36 OFFCURVE",
"455 26 OFFCURVE",
"458 17 CURVE",
"415 -24 OFFCURVE",
"384 -70 OFFCURVE",
"384 -128 CURVE SMOOTH",
"384 -182 OFFCURVE",
"435 -195 OFFCURVE",
"471 -195 CURVE SMOOTH"
);
},
{
closed = 1;
nodes = (
"261 661 LINE",
"398 213 LINE",
"122 213 LINE"
);
}
);
width = 521;
},
{
hints = (
{
place = "{378, 73}";
type = Stem;
},
{
place = "{378, 156}";
type = Stem;
},
{
horizontal = 1;
place = "{-218, 63}";
type = Stem;
},
{
horizontal = 1;
place = "{154, 120}";
type = Stem;
},
{
horizontal = 1;
place = "{737, -20}";
target = down;
type = TopGhost;
},
{
horizontal = 1;
place = "{0, 21}";
target = up;
type = BottomGhost;
}
);
layerId = "228CC867-ECE3-4F82-B853-1E58141B916C";
paths = (
{
closed = 1;
nodes = (
"529 -218 OFFCURVE",
"534 -204 OFFCURVE",
"534 -189 CURVE SMOOTH",
"534 -174 OFFCURVE",
"528 -155 OFFCURVE",
"509 -155 CURVE SMOOTH",
"467 -155 OFFCURVE",
"451 -135 OFFCURVE",
"451 -107 CURVE SMOOTH",
"451 -68 OFFCURVE",
"483 -18 OFFCURVE",
"527 7 CURVE",
"558 18 OFFCURVE",
"585 38 OFFCURVE",
"585 64 CURVE SMOOTH",
"585 67 OFFCURVE",
"584 71 OFFCURVE",
"583 75 CURVE",
"396 685 LINE SMOOTH",
"385 720 OFFCURVE",
"340 737 OFFCURVE",
"294 737 CURVE SMOOTH",
"248 737 OFFCURVE",
"203 720 OFFCURVE",
"192 685 CURVE SMOOTH",
"6 75 LINE",
"5 71 OFFCURVE",
"4 67 OFFCURVE",
"4 64 CURVE SMOOTH",
"4 27 OFFCURVE",
"61 0 OFFCURVE",
"104 0 CURVE SMOOTH",
"129 0 OFFCURVE",
"149 8 OFFCURVE",
"155 29 CURVE SMOOTH",
"189 154 LINE",
"400 154 LINE",
"434 29 LINE",
"436 20 OFFCURVE",
"441 13 OFFCURVE",
"448 9 CURVE",
"404 -26 OFFCURVE",
"378 -77 OFFCURVE",
"378 -121 CURVE SMOOTH",
"378 -174 OFFCURVE",
"415 -218 OFFCURVE",
"503 -218 CURVE SMOOTH"
);
},
{
closed = 1;
nodes = (
"294 542 LINE",
"367 274 LINE",
"221 274 LINE"
);
}
);
width = 589;
}
);
leftKerningGroup = A;
rightKerningGroup = A;
unicode = 0104;
},
{
glyphname = Aring;
lastChange = "2016-08-25 09:49:10 +0000";
layers = (
{
hints = (
{
place = "{170, 24}";
type = Stem;
},
{
place = "{325, 25}";
type = Stem;
},
{
horizontal = 1;
place = "{1001, 26}";
type = Stem;
},
{
horizontal = 1;
place = "{843, 23}";
type = Stem;
},
{
horizontal = 1;
place = "{177, 36}";
type = Stem;
},
{
horizontal = 1;
place = "{0, 21}";
target = up;
type = BottomGhost;
},
{
horizontal = 1;
place = "{737, -20}";
target = down;
type = TopGhost;
}
);
layerId = UUID0;
paths = (
{
closed = 1;
nodes = (
"51 0 OFFCURVE",
"58 4 OFFCURVE",
"61 13 CURVE SMOOTH",
"111 177 LINE",
"409 177 LINE",
"460 13 LINE SMOOTH",
"463 4 OFFCURVE",
"469 0 OFFCURVE",
"476 0 CURVE SMOOTH",
"486 0 OFFCURVE",
"496 8 OFFCURVE",
"496 17 CURVE SMOOTH",
"496 19 OFFCURVE",
"495 20 OFFCURVE",
"495 22 CURVE",
"280 723 LINE SMOOTH",
"277 732 OFFCURVE",
"269 737 OFFCURVE",
"261 737 CURVE SMOOTH",
"253 737 OFFCURVE",
"246 733 OFFCURVE",
"243 723 CURVE SMOOTH",
"26 22 LINE",
"25 20 OFFCURVE",
"25 18 OFFCURVE",
"25 16 CURVE SMOOTH",
"25 6 OFFCURVE",
"34 0 OFFCURVE",
"43 0 CURVE SMOOTH"
);
},
{
closed = 1;
nodes = (
"261 661 LINE",
"398 213 LINE",
"122 213 LINE"
);
},
{
closed = 1;
nodes = (
"307 843 OFFCURVE",
"350 887 OFFCURVE",
"350 936 CURVE SMOOTH",
"350 984 OFFCURVE",
"307 1027 OFFCURVE",
"260 1027 CURVE SMOOTH",
"209 1027 OFFCURVE",
"170 983 OFFCURVE",
"170 936 CURVE SMOOTH",
"170 887 OFFCURVE",
"210 843 OFFCURVE",
"260 843 CURVE SMOOTH"
);
},
{
closed = 1;
nodes = (
"224 866 OFFCURVE",
"194 901 OFFCURVE",
"194 936 CURVE SMOOTH",
"194 967 OFFCURVE",
"223 1001 OFFCURVE",
"260 1001 CURVE SMOOTH",
"295 1001 OFFCURVE",
"325 967 OFFCURVE",
"325 936 CURVE SMOOTH",
"325 901 OFFCURVE",
"295 866 OFFCURVE",
"260 866 CURVE SMOOTH"
);
}
);
width = 521;
},
{
hints = (
{
place = "{194, 59}";
type = Stem;
},
{
place = "{333, 61}";
type = Stem;
},
{
horizontal = 1;
place = "{945, 63}";
type = Stem;
},
{
horizontal = 1;
place = "{804, 60}";
type = Stem;
},
{
horizontal = 1;
place = "{154, 120}";
type = Stem;
},
{
horizontal = 1;
place = "{0, 21}";
target = up;
type = BottomGhost;
},
{
horizontal = 1;
place = "{737, -20}";
target = down;
type = TopGhost;
}
);
layerId = "228CC867-ECE3-4F82-B853-1E58141B916C";
paths = (
{
closed = 1;
nodes = (
"129 0 OFFCURVE",
"149 8 OFFCURVE",
"155 29 CURVE SMOOTH",
"189 154 LINE",
"400 154 LINE",
"434 29 LINE SMOOTH",
"440 8 OFFCURVE",
"460 0 OFFCURVE",
"485 0 CURVE SMOOTH",
"528 0 OFFCURVE",
"585 27 OFFCURVE",
"585 64 CURVE SMOOTH",
"585 67 OFFCURVE",
"584 71 OFFCURVE",
"583 75 CURVE",
"396 685 LINE SMOOTH",
"385 720 OFFCURVE",
"340 737 OFFCURVE",
"294 737 CURVE SMOOTH",
"248 737 OFFCURVE",
"203 720 OFFCURVE",
"192 685 CURVE SMOOTH",
"6 75 LINE",
"5 71 OFFCURVE",
"4 67 OFFCURVE",
"4 64 CURVE SMOOTH",
"4 27 OFFCURVE",
"61 0 OFFCURVE",
"104 0 CURVE SMOOTH"
);
},
{
closed = 1;
nodes = (
"294 542 LINE",
"367 274 LINE",
"221 274 LINE"
);
},
{
closed = 1;
nodes = (
"346 804 OFFCURVE",
"394 853 OFFCURVE",
"394 907 CURVE SMOOTH",
"394 960 OFFCURVE",
"347 1008 OFFCURVE",
"293 1008 CURVE SMOOTH",
"238 1008 OFFCURVE",
"194 959 OFFCURVE",
"194 907 CURVE SMOOTH",
"194 853 OFFCURVE",
"240 804 OFFCURVE",
"293 804 CURVE SMOOTH"
);
},
{
closed = 1;
nodes = (
"271 864 OFFCURVE",
"253 886 OFFCURVE",
"253 906 CURVE SMOOTH",
"253 925 OFFCURVE",
"271 945 OFFCURVE",
"294 945 CURVE SMOOTH",
"316 945 OFFCURVE",
"333 926 OFFCURVE",
"333 906 CURVE SMOOTH",
"333 885 OFFCURVE",
"316 864 OFFCURVE",
"294 864 CURVE SMOOTH"
);
}
);
width = 589;
}
);
leftKerningGroup = A;
rightKerningGroup = A;
unicode = 00C5;
},
{
color = 4;
glyphname = Atilde;
lastChange = "2016-09-01 13:44:24 +0000";
layers = (
{
hints = (
{
horizontal = 1;
place = "{915, 34}";
type = Stem;
},
{
horizontal = 1;
place = "{878, 34}";
type = Stem;
},
{
horizontal = 1;
place = "{177, 36}";
type = Stem;
},
{
horizontal = 1;
place = "{0, 21}";
target = up;
type = BottomGhost;
},
{
horizontal = 1;
place = "{737, -20}";
target = down;
type = TopGhost;
}
);
layerId = UUID0;
paths = (
{
closed = 1;
nodes = (
"51 0 OFFCURVE",
"58 4 OFFCURVE",
"61 13 CURVE SMOOTH",
"111 177 LINE",
"409 177 LINE",
"460 13 LINE SMOOTH",
"463 4 OFFCURVE",
"469 0 OFFCURVE",
"476 0 CURVE SMOOTH",
"486 0 OFFCURVE",
"496 8 OFFCURVE",
"496 17 CURVE SMOOTH",
"496 19 OFFCURVE",
"495 20 OFFCURVE",
"495 22 CURVE",
"280 723 LINE SMOOTH",
"277 732 OFFCURVE",
"269 737 OFFCURVE",
"261 737 CURVE SMOOTH",
"253 737 OFFCURVE",
"246 733 OFFCURVE",
"243 723 CURVE SMOOTH",
"26 22 LINE",
"25 20 OFFCURVE",
"25 18 OFFCURVE",
"25 16 CURVE SMOOTH",
"25 6 OFFCURVE",
"34 0 OFFCURVE",
"43 0 CURVE SMOOTH"
);
},
{
closed = 1;
nodes = (
"261 661 LINE",
"398 213 LINE",
"122 213 LINE"
);
},
{
closed = 1;
nodes = (
"356 878 OFFCURVE",
"408 898 OFFCURVE",
"408 929 CURVE SMOOTH",
"408 938 OFFCURVE",
"401 944 OFFCURVE",
"394 944 CURVE SMOOTH",
"378 944 OFFCURVE",
"375 912 OFFCURVE",
"329 912 CURVE SMOOTH",
"278 912 OFFCURVE",
"251 949 OFFCURVE",
"202 949 CURVE SMOOTH",
"166 949 OFFCURVE",
"113 923 OFFCURVE",
"113 897 CURVE SMOOTH",
"113 886 OFFCURVE",
"119 880 OFFCURVE",
"126 880 CURVE SMOOTH",
"140 880 OFFCURVE",
"152 915 OFFCURVE",
"195 915 CURVE SMOOTH",
"251 915 OFFCURVE",
"276 878 OFFCURVE",
"324 878 CURVE SMOOTH"
);
}
);
width = 521;
},
{
hints = (
{
horizontal = 1;
place = "{154, 120}";
type = Stem;
},
{
horizontal = 1;
place = "{818, 101}";
type = Stem;
},
{
horizontal = 1;
place = "{845, 74}";
type = Stem;
},
{
horizontal = 1;
place = "{845, 101}";
type = Stem;
},
{
horizontal = 1;
place = "{0, 21}";
target = up;
type = BottomGhost;
},
{
horizontal = 1;
place = "{737, -20}";
target = down;
type = TopGhost;
}
);
layerId = "228CC867-ECE3-4F82-B853-1E58141B916C";
paths = (
{
closed = 1;
nodes = (
"129 0 OFFCURVE",
"149 8 OFFCURVE",
"155 29 CURVE SMOOTH",
"189 154 LINE",
"400 154 LINE",
"434 29 LINE SMOOTH",
"440 8 OFFCURVE",
"460 0 OFFCURVE",
"485 0 CURVE SMOOTH",
"528 0 OFFCURVE",
"585 27 OFFCURVE",
"585 64 CURVE SMOOTH",
"585 67 OFFCURVE",
"584 71 OFFCURVE",
"583 75 CURVE",
"396 685 LINE SMOOTH",
"385 720 OFFCURVE",
"340 737 OFFCURVE",
"294 737 CURVE SMOOTH",
"248 737 OFFCURVE",
"203 720 OFFCURVE",
"192 685 CURVE SMOOTH",
"6 75 LINE",
"5 71 OFFCURVE",
"4 67 OFFCURVE",
"4 64 CURVE SMOOTH",
"4 27 OFFCURVE",
"61 0 OFFCURVE",
"104 0 CURVE SMOOTH"
);
},
{
closed = 1;
nodes = (
"294 542 LINE",
"367 274 LINE",
"221 274 LINE"
);
},
{
closed = 1;
nodes = (
"406 818 OFFCURVE",
"472 820 OFFCURVE",
"472 891 CURVE SMOOTH",
"472 901 OFFCURVE",
"465 940 OFFCURVE",
"434 940 CURVE SMOOTH",
"411 940 OFFCURVE",
"390 919 OFFCURVE",
"348 919 CURVE SMOOTH",
"293 919 OFFCURVE",
"263 946 OFFCURVE",
"202 946 CURVE SMOOTH",
"183 946 OFFCURVE",
"117 944 OFFCURVE",
"117 873 CURVE SMOOTH",
"117 863 OFFCURVE",
"124 824 OFFCURVE",
"155 824 CURVE SMOOTH",
"178 824 OFFCURVE",
"199 845 OFFCURVE",
"241 845 CURVE SMOOTH",
"289 845 OFFCURVE",
"316 818 OFFCURVE",
"387 818 CURVE SMOOTH"
);
}
);
width = 589;
}
);
leftKerningGroup = A;
rightKerningGroup = A;
unicode = 00C3;
},
{
glyphname = AE;
lastChange = "2016-08-25 09:49:10 +0000";
layers = (
{
background = {
paths = (
{
closed = 1;
nodes = (
"398 695 LINE",
"635 695 LINE SMOOTH",
"646 695 OFFCURVE",
"652 704 OFFCURVE",
"652 714 CURVE SMOOTH",
"652 722 OFFCURVE",
"647 731 OFFCURVE",
"635 731 CURVE SMOOTH",
"275 731 LINE SMOOTH",
"165 731 OFFCURVE",
"79 675 OFFCURVE",
"79 525 CURVE SMOOTH",
"79 23 LINE SMOOTH",
"79 10 OFFCURVE",
"84 0 OFFCURVE",
"97 0 CURVE SMOOTH",
"113 0 OFFCURVE",
"115 10 OFFCURVE",
"115 23 CURVE SMOOTH",
"115 348 LINE",
"362 348 LINE",
"362 18 LINE SMOOTH",
"362 6 OFFCURVE",
"371 0 OFFCURVE",
"380 0 CURVE SMOOTH",
"635 0 LINE SMOOTH",
"647 0 OFFCURVE",
"652 9 OFFCURVE",
"652 17 CURVE SMOOTH",
"652 27 OFFCURVE",
"646 36 OFFCURVE",
"635 36 CURVE SMOOTH",
"398 36 LINE",
"398 348 LINE",
"558 348 LINE SMOOTH",
"570 348 OFFCURVE",
"575 357 OFFCURVE",
"575 365 CURVE SMOOTH",
"575 375 OFFCURVE",
"569 384 OFFCURVE",
"558 384 CURVE SMOOTH",
"398 384 LINE"
);
},
{
closed = 1;
nodes = (
"115 525 LINE SMOOTH",
"115 641 OFFCURVE",
"175 695 OFFCURVE",
"275 695 CURVE SMOOTH",
"362 695 LINE",
"362 384 LINE",
"115 384 LINE"
);
}
);
};
hints = (
{
place = "{79, 36}";
type = Stem;
},
{
place = "{362, 36}";
type = Stem;
},
{
horizontal = 1;
place = "{0, 36}";
type = Stem;
},
{
horizontal = 1;
place = "{348, 36}";
type = Stem;
},
{
horizontal = 1;
place = "{695, 36}";
type = Stem;
}
);
layerId = UUID0;
paths = (
{
closed = 1;
nodes = (
"113 0 OFFCURVE",
"115 10 OFFCURVE",
"115 23 CURVE SMOOTH",
"115 348 LINE",
"362 348 LINE",
"362 18 LINE SMOOTH",
"362 6 OFFCURVE",
"371 0 OFFCURVE",
"380 0 CURVE SMOOTH",
"635 0 LINE SMOOTH",
"647 0 OFFCURVE",
"652 9 OFFCURVE",
"652 17 CURVE SMOOTH",
"652 27 OFFCURVE",
"646 36 OFFCURVE",
"635 36 CURVE SMOOTH",
"398 36 LINE",
"398 348 LINE",
"558 348 LINE SMOOTH",
"570 348 OFFCURVE",
"575 357 OFFCURVE",
"575 365 CURVE SMOOTH",
"575 375 OFFCURVE",
"569 384 OFFCURVE",
"558 384 CURVE SMOOTH",
"398 384 LINE",
"398 695 LINE",
"635 695 LINE SMOOTH",
"646 695 OFFCURVE",
"652 704 OFFCURVE",
"652 714 CURVE SMOOTH",
"652 722 OFFCURVE",
"647 731 OFFCURVE",
"635 731 CURVE SMOOTH",
"275 731 LINE SMOOTH",
"165 731 OFFCURVE",
"79 675 OFFCURVE",
"79 525 CURVE SMOOTH",
"79 23 LINE SMOOTH",
"79 10 OFFCURVE",
"84 0 OFFCURVE",
"97 0 CURVE SMOOTH"
);
},
{
closed = 1;
nodes = (
"115 525 LINE SMOOTH",
"115 641 OFFCURVE",
"175 695 OFFCURVE",
"275 695 CURVE SMOOTH",
"362 695 LINE",
"362 384 LINE",
"115 384 LINE"
);
}
);
width = 680;
},
{
background = {
paths = (
{
closed = 1;
nodes = (
"410 695 LINE",
"647 695 LINE SMOOTH",
"658 695 OFFCURVE",
"664 704 OFFCURVE",
"664 714 CURVE SMOOTH",
"664 722 OFFCURVE",
"659 731 OFFCURVE",
"647 731 CURVE SMOOTH",
"287 731 LINE SMOOTH",
"177 731 OFFCURVE",
"91 675 OFFCURVE",
"91 525 CURVE SMOOTH",
"91 23 LINE SMOOTH",
"91 10 OFFCURVE",
"96 0 OFFCURVE",
"109 0 CURVE SMOOTH",
"125 0 OFFCURVE",
"127 10 OFFCURVE",
"127 23 CURVE SMOOTH",
"127 348 LINE",
"374 348 LINE",
"374 18 LINE SMOOTH",
"374 6 OFFCURVE",
"383 0 OFFCURVE",
"392 0 CURVE SMOOTH",
"647 0 LINE SMOOTH",
"659 0 OFFCURVE",
"664 9 OFFCURVE",
"664 17 CURVE SMOOTH",
"664 27 OFFCURVE",
"658 36 OFFCURVE",
"647 36 CURVE SMOOTH",
"410 36 LINE",
"410 348 LINE",
"570 348 LINE SMOOTH",
"582 348 OFFCURVE",
"587 357 OFFCURVE",
"587 365 CURVE SMOOTH",
"587 375 OFFCURVE",
"581 384 OFFCURVE",
"570 384 CURVE SMOOTH",
"410 384 LINE"
);
},
{
closed = 1;
nodes = (
"127 525 LINE SMOOTH",
"127 641 OFFCURVE",
"187 695 OFFCURVE",
"287 695 CURVE SMOOTH",
"374 695 LINE",
"374 384 LINE",
"127 384 LINE"
);
}
);
};
hints = (
{
place = "{51, 146}";
type = Stem;
},
{
place = "{374, 156}";
type = Stem;
},
{
horizontal = 1;
place = "{0, 136}";
type = Stem;
},
{
horizontal = 1;
place = "{306, 120}";
type = Stem;
},
{
horizontal = 1;
place = "{595, 136}";
type = Stem;
}
);
layerId = "228CC867-ECE3-4F82-B853-1E58141B916C";
paths = (
{
closed = 1;
nodes = (
"188 0 OFFCURVE",
"197 23 OFFCURVE",
"197 53 CURVE SMOOTH",
"197 306 LINE",
"374 306 LINE",
"374 48 LINE SMOOTH",
"374 16 OFFCURVE",
"408 0 OFFCURVE",
"442 0 CURVE SMOOTH",
"756 0 LINE SMOOTH",
"789 0 OFFCURVE",
"803 35 OFFCURVE",
"803 67 CURVE SMOOTH",
"803 104 OFFCURVE",
"786 136 OFFCURVE",
"756 136 CURVE SMOOTH",
"530 136 LINE",
"530 306 LINE",
"638 306 LINE SMOOTH",
"671 306 OFFCURVE",
"685 338 OFFCURVE",
"685 365 CURVE SMOOTH",
"685 397 OFFCURVE",
"668 426 OFFCURVE",
"638 426 CURVE SMOOTH",
"530 426 LINE",
"530 595 LINE",
"756 595 LINE SMOOTH",
"786 595 OFFCURVE",
"803 627 OFFCURVE",
"803 664 CURVE SMOOTH",
"803 696 OFFCURVE",
"789 731 OFFCURVE",
"756 731 CURVE SMOOTH",
"287 731 LINE SMOOTH",
"155 731 OFFCURVE",
"51 667 OFFCURVE",
"51 495 CURVE SMOOTH",
"51 53 LINE SMOOTH",
"51 23 OFFCURVE",
"70 0 OFFCURVE",
"119 0 CURVE SMOOTH"
);
},
{
closed = 1;
nodes = (
"197 495 LINE SMOOTH",
"197 563 OFFCURVE",
"231 595 OFFCURVE",
"287 595 CURVE SMOOTH",
"374 595 LINE",
"374 426 LINE",
"197 426 LINE"
);
}
);
width = 817;
}
);
leftKerningGroup = AE;
rightKerningGroup = E;
unicode = 00C6;
},
{
glyphname = AEacute;
lastChange = "2016-08-25 09:49:10 +0000";
layers = (
{
hints = (
{
place = "{79, 36}";
type = Stem;
},
{
place = "{362, 36}";
type = Stem;
},
{
horizontal = 1;
place = "{0, 36}";
type = Stem;
},
{
horizontal = 1;
place = "{348, 36}";
type = Stem;
},
{
horizontal = 1;
place = "{695, 36}";
type = Stem;
},
{
horizontal = 1;
place = "{953, -20}";
target = down;
type = TopGhost;
}
);
layerId = UUID0;
paths = (
{
closed = 1;
nodes = (
"113 0 OFFCURVE",
"115 10 OFFCURVE",
"115 23 CURVE SMOOTH",
"115 348 LINE",
"362 348 LINE",
"362 18 LINE SMOOTH",
"362 6 OFFCURVE",
"371 0 OFFCURVE",
"380 0 CURVE SMOOTH",
"635 0 LINE SMOOTH",
"647 0 OFFCURVE",
"652 9 OFFCURVE",
"652 17 CURVE SMOOTH",
"652 27 OFFCURVE",
"646 36 OFFCURVE",
"635 36 CURVE SMOOTH",
"398 36 LINE",
"398 348 LINE",
"558 348 LINE SMOOTH",
"570 348 OFFCURVE",
"575 357 OFFCURVE",
"575 365 CURVE SMOOTH",
"575 375 OFFCURVE",
"569 384 OFFCURVE",
"558 384 CURVE SMOOTH",
"398 384 LINE",
"398 695 LINE",
"635 695 LINE SMOOTH",
"646 695 OFFCURVE",
"652 704 OFFCURVE",
"652 714 CURVE SMOOTH",
"652 722 OFFCURVE",
"647 731 OFFCURVE",
"635 731 CURVE SMOOTH",
"275 731 LINE SMOOTH",
"165 731 OFFCURVE",
"79 675 OFFCURVE",
"79 525 CURVE SMOOTH",
"79 23 LINE SMOOTH",
"79 10 OFFCURVE",
"84 0 OFFCURVE",
"97 0 CURVE SMOOTH"
);
},
{
closed = 1;
nodes = (
"115 525 LINE SMOOTH",
"115 641 OFFCURVE",
"175 695 OFFCURVE",
"275 695 CURVE SMOOTH",
"362 695 LINE",
"362 384 LINE",
"115 384 LINE"
);
},
{
closed = 1;
nodes = (
"297 860 OFFCURVE",
"300 861 OFFCURVE",
"303 863 CURVE",
"398 917 LINE SMOOTH",
"405 921 OFFCURVE",
"408 928 OFFCURVE",
"408 935 CURVE SMOOTH",
"408 944 OFFCURVE",
"402 953 OFFCURVE",
"392 953 CURVE SMOOTH",
"390 953 OFFCURVE",
"387 952 OFFCURVE",
"385 951 CURVE",
"283 891 LINE",
"277 888 OFFCURVE",
"275 883 OFFCURVE",
"275 878 CURVE SMOOTH",
"275 868 OFFCURVE",
"284 860 OFFCURVE",
"294 860 CURVE SMOOTH"
);
}
);
width = 680;
},
{
hints = (
{
place = "{51, 146}";
type = Stem;
},
{
place = "{374, 156}";
type = Stem;
},
{
place = "{388, 221}";
type = Stem;
},
{
horizontal = 1;
place = "{0, 136}";
type = Stem;
},
{
horizontal = 1;
place = "{306, 120}";
type = Stem;
},
{
horizontal = 1;
place = "{595, 136}";
type = Stem;
},
{
horizontal = 1;
place = "{955, -20}";
target = down;
type = TopGhost;
}
);
layerId = "228CC867-ECE3-4F82-B853-1E58141B916C";
paths = (
{
closed = 1;
nodes = (
"188 0 OFFCURVE",
"197 23 OFFCURVE",
"197 53 CURVE SMOOTH",
"197 306 LINE",
"374 306 LINE",
"374 48 LINE SMOOTH",
"374 16 OFFCURVE",
"408 0 OFFCURVE",
"442 0 CURVE SMOOTH",
"756 0 LINE SMOOTH",
"789 0 OFFCURVE",
"803 35 OFFCURVE",
"803 67 CURVE SMOOTH",
"803 104 OFFCURVE",
"786 136 OFFCURVE",
"756 136 CURVE SMOOTH",
"530 136 LINE",
"530 306 LINE",
"638 306 LINE SMOOTH",
"671 306 OFFCURVE",
"685 338 OFFCURVE",
"685 365 CURVE SMOOTH",
"685 397 OFFCURVE",
"668 426 OFFCURVE",
"638 426 CURVE SMOOTH",
"530 426 LINE",
"530 595 LINE",
"756 595 LINE SMOOTH",
"786 595 OFFCURVE",
"803 627 OFFCURVE",
"803 664 CURVE SMOOTH",
"803 696 OFFCURVE",
"789 731 OFFCURVE",
"756 731 CURVE SMOOTH",
"287 731 LINE SMOOTH",
"155 731 OFFCURVE",
"51 667 OFFCURVE",
"51 495 CURVE SMOOTH",
"51 53 LINE SMOOTH",
"51 23 OFFCURVE",
"70 0 OFFCURVE",
"119 0 CURVE SMOOTH"
);
},
{
closed = 1;
nodes = (
"197 495 LINE SMOOTH",
"197 563 OFFCURVE",
"231 595 OFFCURVE",
"287 595 CURVE SMOOTH",
"374 595 LINE",
"374 426 LINE",
"197 426 LINE"
);
},
{
closed = 1;
nodes = (
"439 794 OFFCURVE",
"444 796 OFFCURVE",
"449 798 CURVE",
"589 863 LINE SMOOTH",
"603 870 OFFCURVE",
"609 883 OFFCURVE",
"609 897 CURVE SMOOTH",
"609 923 OFFCURVE",
"589 955 OFFCURVE",
"562 955 CURVE SMOOTH",
"558 955 OFFCURVE",
"553 954 OFFCURVE",
"548 952 CURVE",
"408 887 LINE SMOOTH",
"394 880 OFFCURVE",
"388 867 OFFCURVE",
"388 852 CURVE SMOOTH",
"388 826 OFFCURVE",
"408 794 OFFCURVE",
"434 794 CURVE SMOOTH"
);
}
);
width = 817;
}
);
leftKerningGroup = AE;
rightKerningGroup = E;
unicode = 01FC;
},
{
glyphname = B;
lastChange = "2016-08-25 09:49:10 +0000";
layers = (
{
background = {
paths = (
{
closed = 1;
nodes = (
"83 17 LINE SMOOTH",
"83 8 OFFCURVE",
"90 1 OFFCURVE",
"101 0 CURVE",
"278 0 LINE SMOOTH",
"388 0 OFFCURVE",
"474 53 OFFCURVE",
"474 203 CURVE SMOOTH",
"474 220 LINE SMOOTH",
"474 323 OFFCURVE",
"433 370 OFFCURVE",
"371 396 CURVE",
"422 418 OFFCURVE",
"456 478 OFFCURVE",
"456 564 CURVE SMOOTH",
"456 704 OFFCURVE",
"367 731 OFFCURVE",
"251 731 CURVE SMOOTH",
"101 731 LINE SMOOTH",
"92 731 OFFCURVE",
"83 725 OFFCURVE",
"83 713 CURVE SMOOTH"
);
},
{
closed = 1;
nodes = (
"119 36 LINE",
"119 378 LINE",
"278 378 LINE SMOOTH",
"378 378 OFFCURVE",
"438 336 OFFCURVE",
"438 220 CURVE SMOOTH",
"438 203 LINE SMOOTH",
"438 87 OFFCURVE",
"378 36 OFFCURVE",
"278 36 CURVE SMOOTH"
);
},
{
closed = 1;
nodes = (
"119 695 LINE",
"253 695 LINE SMOOTH",
"350 695 OFFCURVE",
"420 675 OFFCURVE",
"420 564 CURVE SMOOTH",
"420 448 OFFCURVE",
"368 414 OFFCURVE",
"258 414 CURVE SMOOTH",
"119 414 LINE"
);
}
);
};
hints = (
{
place = "{83, 36}";
type = Stem;
},
{
place = "{420, 36}";
type = Stem;
},
{
place = "{438, 36}";
type = Stem;
},
{
horizontal = 1;
place = "{0, 36}";
type = Stem;
},
{
horizontal = 1;
place = "{378, 36}";
type = Stem;
},
{
horizontal = 1;
place = "{695, 36}";
type = Stem;
}
);
layerId = UUID0;
paths = (
{
closed = 1;
nodes = (
"278 0 LINE SMOOTH",
"388 0 OFFCURVE",
"474 53 OFFCURVE",
"474 203 CURVE SMOOTH",
"474 220 LINE SMOOTH",
"474 323 OFFCURVE",
"433 370 OFFCURVE",
"371 396 CURVE",
"422 418 OFFCURVE",
"456 478 OFFCURVE",
"456 564 CURVE SMOOTH",
"456 704 OFFCURVE",
"367 731 OFFCURVE",
"251 731 CURVE SMOOTH",
"101 731 LINE SMOOTH",
"92 731 OFFCURVE",
"83 725 OFFCURVE",
"83 713 CURVE SMOOTH",
"83 17 LINE SMOOTH",
"83 8 OFFCURVE",
"90 0 OFFCURVE",
"101 0 CURVE SMOOTH"
);
},
{
closed = 1;
nodes = (
"119 378 LINE",
"278 378 LINE SMOOTH",
"378 378 OFFCURVE",
"438 336 OFFCURVE",
"438 220 CURVE SMOOTH",
"438 203 LINE SMOOTH",
"438 87 OFFCURVE",
"378 36 OFFCURVE",
"278 36 CURVE SMOOTH",
"119 36 LINE"
);
},
{
closed = 1;
nodes = (
"119 695 LINE",
"253 695 LINE SMOOTH",
"350 695 OFFCURVE",
"420 675 OFFCURVE",
"420 564 CURVE SMOOTH",
"420 448 OFFCURVE",
"368 414 OFFCURVE",
"258 414 CURVE SMOOTH",
"119 414 LINE"
);
}
);
width = 527;
},
{
background = {
paths = (
{
closed = 1;
nodes = (
"104 17 LINE SMOOTH",
"104 8 OFFCURVE",
"111 1 OFFCURVE",
"122 0 CURVE",
"299 0 LINE SMOOTH",
"409 0 OFFCURVE",
"495 53 OFFCURVE",
"495 203 CURVE SMOOTH",
"495 220 LINE SMOOTH",
"495 323 OFFCURVE",
"454 370 OFFCURVE",
"392 396 CURVE",
"443 418 OFFCURVE",
"477 478 OFFCURVE",
"477 564 CURVE SMOOTH",
"477 704 OFFCURVE",
"388 731 OFFCURVE",
"272 731 CURVE SMOOTH",
"122 731 LINE SMOOTH",
"113 731 OFFCURVE",
"104 725 OFFCURVE",
"104 713 CURVE SMOOTH"
);
},
{
closed = 1;
nodes = (
"140 36 LINE",
"140 378 LINE",
"299 378 LINE SMOOTH",
"399 378 OFFCURVE",
"459 336 OFFCURVE",
"459 220 CURVE SMOOTH",
"459 203 LINE SMOOTH",
"459 87 OFFCURVE",
"399 36 OFFCURVE",
"299 36 CURVE SMOOTH"
);
},
{
closed = 1;
nodes = (
"140 695 LINE",
"274 695 LINE SMOOTH",
"371 695 OFFCURVE",
"441 675 OFFCURVE",
"441 564 CURVE SMOOTH",
"441 448 OFFCURVE",
"389 414 OFFCURVE",
"279 414 CURVE SMOOTH",
"140 414 LINE"
);
}
);
};
hints = (
{
place = "{54, 155}";
type = Stem;
},
{
place = "{371, 156}";
type = Stem;
},
{
place = "{389, 156}";
type = Stem;
},
{
horizontal = 1;
place = "{0, 136}";
type = Stem;
},
{
horizontal = 1;
place = "{336, 120}";
type = Stem;
},
{
horizontal = 1;
place = "{595, 136}";
type = Stem;
}
);
layerId = "228CC867-ECE3-4F82-B853-1E58141B916C";
paths = (
{
closed = 1;
nodes = (
"344 0 LINE SMOOTH",
"457 0 OFFCURVE",
"545 57 OFFCURVE",
"545 215 CURVE SMOOTH",
"545 236 LINE SMOOTH",
"545 336 OFFCURVE",
"503 373 OFFCURVE",
"442 396 CURVE",
"495 419 OFFCURVE",
"527 472 OFFCURVE",
"527 553 CURVE SMOOTH",
"527 695 OFFCURVE",
"427 731 OFFCURVE",
"327 731 CURVE SMOOTH",
"122 731 LINE SMOOTH",
"88 731 OFFCURVE",
"54 715 OFFCURVE",
"54 683 CURVE SMOOTH",
"54 47 LINE SMOOTH",
"54 22 OFFCURVE",
"80 0 OFFCURVE",
"122 0 CURVE SMOOTH"
);
},
{
closed = 1;
nodes = (
"209 336 LINE",
"309 336 LINE SMOOTH",
"359 336 OFFCURVE",
"389 312 OFFCURVE",
"389 244 CURVE SMOOTH",
"389 228 LINE SMOOTH",
"389 164 OFFCURVE",
"359 136 OFFCURVE",
"309 136 CURVE SMOOTH",
"209 136 LINE"
);
},
{
closed = 1;
nodes = (
"209 595 LINE",
"314 595 LINE SMOOTH",
"352 595 OFFCURVE",
"371 560 OFFCURVE",
"371 525 CURVE SMOOTH",
"371 491 OFFCURVE",
"352 456 OFFCURVE",
"314 456 CURVE SMOOTH",
"209 456 LINE"
);
}
);
width = 572;
}
);
leftKerningGroup = I;
unicode = 0042;
},
{
glyphname = C;
lastChange = "2016-08-25 09:49:10 +0000";
layers = (
{
background = {
paths = (
{
closed = 1;
nodes = (
"112 525 LINE SMOOTH",
"112 641 OFFCURVE",
"171 695 OFFCURVE",
"271 695 CURVE SMOOTH",
"359 695 OFFCURVE",
"419 654 OFFCURVE",
"431 564 CURVE SMOOTH",
"432 552 OFFCURVE",
"440 546 OFFCURVE",
"449 546 CURVE SMOOTH",
"458 546 OFFCURVE",
"467 552 OFFCURVE",
"467 566 CURVE",
"460 658 OFFCURVE",
"394 731 OFFCURVE",
"271 731 CURVE SMOOTH",
"161 731 OFFCURVE",
"76 675 OFFCURVE",
"76 525 CURVE SMOOTH",
"76 200 LINE SMOOTH",
"76 50 OFFCURVE",
"161 -6 OFFCURVE",
"271 -6 CURVE SMOOTH",
"394 -6 OFFCURVE",
"460 67 OFFCURVE",
"467 159 CURVE",
"467 173 OFFCURVE",
"458 179 OFFCURVE",
"449 179 CURVE SMOOTH",
"440 179 OFFCURVE",
"432 173 OFFCURVE",
"431 161 CURVE SMOOTH",
"419 71 OFFCURVE",
"359 30 OFFCURVE",
"271 30 CURVE SMOOTH",
"171 30 OFFCURVE",
"112 84 OFFCURVE",
"112 200 CURVE SMOOTH"
);
}
);
};
hints = (
{
place = "{76, 36}";
type = Stem;
},
{
place = "{431, 36}";
type = Stem;
},
{
horizontal = 1;
place = "{-6, 36}";
type = Stem;
},
{
horizontal = 1;
place = "{546, 185}";
type = Stem;
},
{
horizontal = 1;
place = "{695, 36}";
type = Stem;
},
{
horizontal = 1;
place = "{-6, 185}";
type = Stem;
}
);
layerId = UUID0;
paths = (
{
closed = 1;
nodes = (
"400 -6 OFFCURVE",
"467 73 OFFCURVE",
"467 150 CURVE SMOOTH",
"467 173 OFFCURVE",
"461 179 OFFCURVE",
"449 179 CURVE SMOOTH",
"434 179 OFFCURVE",
"432 170 OFFCURVE",
"431 161 CURVE",
"423 109 OFFCURVE",
"410 30 OFFCURVE",
"278 30 CURVE SMOOTH",
"169 30 OFFCURVE",
"112 83 OFFCURVE",
"112 200 CURVE SMOOTH",
"112 525 LINE SMOOTH",
"112 641 OFFCURVE",
"169 695 OFFCURVE",
"274 695 CURVE SMOOTH",
"404 695 OFFCURVE",
"428 612 OFFCURVE",
"431 564 CURVE",
"431 557 OFFCURVE",
"432 546 OFFCURVE",
"449 546 CURVE SMOOTH",
"461 546 OFFCURVE",
"467 551 OFFCURVE",
"467 574 CURVE SMOOTH",
"467 652 OFFCURVE",
"403 731 OFFCURVE",
"275 731 CURVE SMOOTH",
"167 731 OFFCURVE",
"76 675 OFFCURVE",
"76 525 CURVE SMOOTH",
"76 200 LINE SMOOTH",
"76 50 OFFCURVE",
"165 -6 OFFCURVE",
"272 -6 CURVE SMOOTH"
);
}
);
width = 512;
},
{
background = {
paths = (
{
closed = 1;
nodes = (
"132 525 LINE SMOOTH",
"132 641 OFFCURVE",
"191 695 OFFCURVE",
"291 695 CURVE SMOOTH",
"379 695 OFFCURVE",
"439 654 OFFCURVE",
"451 564 CURVE SMOOTH",
"452 552 OFFCURVE",
"460 546 OFFCURVE",
"469 546 CURVE SMOOTH",
"478 546 OFFCURVE",
"487 552 OFFCURVE",
"487 566 CURVE",
"480 658 OFFCURVE",
"414 731 OFFCURVE",
"291 731 CURVE SMOOTH",
"181 731 OFFCURVE",
"96 675 OFFCURVE",
"96 525 CURVE SMOOTH",
"96 200 LINE SMOOTH",
"96 50 OFFCURVE",
"181 -6 OFFCURVE",
"291 -6 CURVE SMOOTH",
"414 -6 OFFCURVE",
"480 67 OFFCURVE",
"487 159 CURVE",
"487 173 OFFCURVE",
"478 179 OFFCURVE",
"469 179 CURVE SMOOTH",
"460 179 OFFCURVE",
"452 173 OFFCURVE",
"451 161 CURVE SMOOTH",
"439 71 OFFCURVE",
"379 30 OFFCURVE",
"291 30 CURVE SMOOTH",
"191 30 OFFCURVE",
"132 84 OFFCURVE",
"132 200 CURVE SMOOTH"
);
}
);
};
hints = (
{
place = "{46, 156}";
type = Stem;
},
{
place = "{381, 156}";
type = Stem;
},
{
horizontal = 1;
place = "{-6, 136}";
type = Stem;
},
{
horizontal = 1;
place = "{595, 136}";
type = Stem;
}
);
layerId = "228CC867-ECE3-4F82-B853-1E58141B916C";
paths = (
{
closed = 1;
nodes = (
"429 -6 OFFCURVE",
"537 70 OFFCURVE",
"537 203 CURVE SMOOTH",
"537 263 OFFCURVE",
"512 277 OFFCURVE",
"458 277 CURVE SMOOTH",
"418 277 OFFCURVE",
"384 267 OFFCURVE",
"381 230 CURVE SMOOTH",
"378 191 OFFCURVE",
"373 130 OFFCURVE",
"293 130 CURVE SMOOTH",
"235 130 OFFCURVE",
"202 162 OFFCURVE",
"202 230 CURVE SMOOTH",
"202 495 LINE SMOOTH",
"202 563 OFFCURVE",
"235 595 OFFCURVE",
"292 595 CURVE SMOOTH",
"377 595 OFFCURVE",
"380 531 OFFCURVE",
"381 505 CURVE SMOOTH",
"383 469 OFFCURVE",
"417 458 OFFCURVE",
"459 458 CURVE SMOOTH",
"512 458 OFFCURVE",
"537 472 OFFCURVE",
"537 532 CURVE SMOOTH",
"537 659 OFFCURVE",
"429 731 OFFCURVE",
"286 731 CURVE SMOOTH",
"155 731 OFFCURVE",
"46 667 OFFCURVE",
"46 495 CURVE SMOOTH",
"46 230 LINE SMOOTH",
"46 58 OFFCURVE",
"155 -6 OFFCURVE",
"286 -6 CURVE SMOOTH"
);
}
);
width = 562;
}
);
leftKerningGroup = O;
rightKerningGroup = C;
unicode = 0043;
},
{
glyphname = Cacute;
lastChange = "2016-08-25 09:49:10 +0000";
layers = (
{
hints = (
{
place = "{76, 36}";
type = Stem;
},
{
place = "{431, 36}";
type = Stem;
},
{
horizontal = 1;
place = "{-6, 36}";
type = Stem;
},
{
horizontal = 1;
place = "{546, 185}";
type = Stem;
},
{
horizontal = 1;
place = "{695, 36}";
type = Stem;
},
{
horizontal = 1;
place = "{-6, 185}";
type = Stem;
},
{
horizontal = 1;
place = "{953, -20}";
target = down;
type = TopGhost;
}
);
layerId = UUID0;
paths = (
{
closed = 1;
nodes = (
"400 -6 OFFCURVE",
"467 73 OFFCURVE",
"467 150 CURVE SMOOTH",
"467 173 OFFCURVE",
"461 179 OFFCURVE",
"449 179 CURVE SMOOTH",
"434 179 OFFCURVE",
"432 170 OFFCURVE",
"431 161 CURVE",
"423 109 OFFCURVE",
"410 30 OFFCURVE",
"278 30 CURVE SMOOTH",
"169 30 OFFCURVE",
"112 83 OFFCURVE",
"112 200 CURVE SMOOTH",
"112 525 LINE SMOOTH",
"112 641 OFFCURVE",
"169 695 OFFCURVE",
"274 695 CURVE SMOOTH",
"404 695 OFFCURVE",
"428 612 OFFCURVE",
"431 564 CURVE",
"431 557 OFFCURVE",
"432 546 OFFCURVE",
"449 546 CURVE SMOOTH",
"461 546 OFFCURVE",
"467 551 OFFCURVE",
"467 574 CURVE SMOOTH",
"467 652 OFFCURVE",
"403 731 OFFCURVE",
"275 731 CURVE SMOOTH",
"167 731 OFFCURVE",
"76 675 OFFCURVE",
"76 525 CURVE SMOOTH",
"76 200 LINE SMOOTH",
"76 50 OFFCURVE",
"165 -6 OFFCURVE",
"272 -6 CURVE SMOOTH"
);
},
{
closed = 1;
nodes = (
"227 860 OFFCURVE",
"230 861 OFFCURVE",
"233 863 CURVE",
"328 917 LINE SMOOTH",
"335 921 OFFCURVE",
"338 928 OFFCURVE",
"338 935 CURVE SMOOTH",
"338 944 OFFCURVE",
"332 953 OFFCURVE",
"322 953 CURVE SMOOTH",
"320 953 OFFCURVE",
"317 952 OFFCURVE",
"315 951 CURVE",
"213 891 LINE",
"207 888 OFFCURVE",
"205 883 OFFCURVE",
"205 878 CURVE SMOOTH",
"205 868 OFFCURVE",
"214 860 OFFCURVE",
"224 860 CURVE SMOOTH"
);
}
);
width = 512;
},
{
hints = (
{
place = "{46, 156}";
type = Stem;
},
{
place = "{205, 221}";
type = Stem;
},
{
place = "{381, 156}";
type = Stem;
},
{
horizontal = 1;
place = "{-6, 136}";
type = Stem;
},
{
horizontal = 1;
place = "{595, 136}";
type = Stem;
},
{
horizontal = 1;
place = "{959, -20}";
target = down;
type = TopGhost;
}
);
layerId = "228CC867-ECE3-4F82-B853-1E58141B916C";
paths = (
{
closed = 1;
nodes = (
"429 -6 OFFCURVE",
"537 70 OFFCURVE",
"537 203 CURVE SMOOTH",
"537 263 OFFCURVE",
"512 277 OFFCURVE",
"458 277 CURVE SMOOTH",
"418 277 OFFCURVE",
"384 267 OFFCURVE",
"381 230 CURVE SMOOTH",
"378 191 OFFCURVE",
"373 130 OFFCURVE",
"293 130 CURVE SMOOTH",
"235 130 OFFCURVE",
"202 162 OFFCURVE",
"202 230 CURVE SMOOTH",
"202 495 LINE SMOOTH",
"202 563 OFFCURVE",
"235 595 OFFCURVE",
"292 595 CURVE SMOOTH",
"377 595 OFFCURVE",
"380 531 OFFCURVE",
"381 505 CURVE SMOOTH",
"383 469 OFFCURVE",
"417 458 OFFCURVE",
"459 458 CURVE SMOOTH",
"512 458 OFFCURVE",
"537 472 OFFCURVE",
"537 532 CURVE SMOOTH",
"537 659 OFFCURVE",
"429 731 OFFCURVE",
"286 731 CURVE SMOOTH",
"155 731 OFFCURVE",
"46 667 OFFCURVE",
"46 495 CURVE SMOOTH",
"46 230 LINE SMOOTH",
"46 58 OFFCURVE",
"155 -6 OFFCURVE",
"286 -6 CURVE SMOOTH"
);
},
{
closed = 1;
nodes = (
"256 798 OFFCURVE",
"261 800 OFFCURVE",
"266 802 CURVE",
"406 867 LINE SMOOTH",
"420 874 OFFCURVE",
"426 887 OFFCURVE",
"426 901 CURVE SMOOTH",
"426 927 OFFCURVE",
"406 959 OFFCURVE",
"379 959 CURVE SMOOTH",
"375 959 OFFCURVE",
"370 958 OFFCURVE",
"365 956 CURVE",
"225 891 LINE SMOOTH",
"211 884 OFFCURVE",
"205 871 OFFCURVE",
"205 856 CURVE SMOOTH",
"205 830 OFFCURVE",
"225 798 OFFCURVE",
"251 798 CURVE SMOOTH"
);
}
);
width = 562;
}
);
leftKerningGroup = O;
rightKerningGroup = C;
unicode = 0106;
},
{
glyphname = Ccaron;
lastChange = "2016-08-25 09:49:10 +0000";
layers = (
{
hints = (
{
place = "{76, 36}";
type = Stem;
},
{
place = "{431, 36}";
type = Stem;
},
{
horizontal = 1;
place = "{-6, 36}";
type = Stem;
},
{
horizontal = 1;
place = "{546, 185}";
type = Stem;
},
{
horizontal = 1;
place = "{695, 36}";
type = Stem;
},
{
horizontal = 1;
place = "{-6, 185}";
type = Stem;
},
{
horizontal = 1;
place = "{990, -20}";
target = down;
type = TopGhost;
}
);
layerId = UUID0;
paths = (
{
closed = 1;
nodes = (
"400 -6 OFFCURVE",
"467 73 OFFCURVE",
"467 150 CURVE SMOOTH",
"467 173 OFFCURVE",
"461 179 OFFCURVE",
"449 179 CURVE SMOOTH",
"434 179 OFFCURVE",
"432 170 OFFCURVE",
"431 161 CURVE",
"423 109 OFFCURVE",
"410 30 OFFCURVE",
"278 30 CURVE SMOOTH",
"169 30 OFFCURVE",
"112 83 OFFCURVE",
"112 200 CURVE SMOOTH",
"112 525 LINE SMOOTH",
"112 641 OFFCURVE",
"169 695 OFFCURVE",
"274 695 CURVE SMOOTH",
"404 695 OFFCURVE",
"428 612 OFFCURVE",
"431 564 CURVE",
"431 557 OFFCURVE",
"432 546 OFFCURVE",
"449 546 CURVE SMOOTH",
"461 546 OFFCURVE",
"467 551 OFFCURVE",
"467 574 CURVE SMOOTH",
"467 652 OFFCURVE",
"403 731 OFFCURVE",
"275 731 CURVE SMOOTH",
"167 731 OFFCURVE",
"76 675 OFFCURVE",
"76 525 CURVE SMOOTH",
"76 200 LINE SMOOTH",
"76 50 OFFCURVE",
"165 -6 OFFCURVE",
"272 -6 CURVE SMOOTH"
);
},
{
closed = 1;
nodes = (
"277 847 OFFCURVE",
"284 851 OFFCURVE",
"291 858 CURVE SMOOTH",
"391 959 LINE",
"396 965 OFFCURVE",
"399 970 OFFCURVE",
"399 975 CURVE SMOOTH",
"399 982 OFFCURVE",
"393 990 OFFCURVE",
"384 990 CURVE SMOOTH",
"379 990 OFFCURVE",
"373 988 OFFCURVE",
"368 982 CURVE",
"270 879 LINE",
"172 982 LINE",
"167 988 OFFCURVE",
"161 990 OFFCURVE",
"156 990 CURVE SMOOTH",
"147 990 OFFCURVE",
"141 982 OFFCURVE",
"141 975 CURVE SMOOTH",
"141 970 OFFCURVE",
"144 965 OFFCURVE",
"149 959 CURVE",
"249 858 LINE",
"255 851 OFFCURVE",
"263 847 OFFCURVE",
"270 847 CURVE SMOOTH"
);
}
);
width = 512;
},
{
hints = (
{
place = "{46, 156}";
type = Stem;
},
{
place = "{381, 156}";
type = Stem;
},
{
horizontal = 1;
place = "{-6, 136}";
type = Stem;
},
{
horizontal = 1;
place = "{595, 136}";
type = Stem;
},
{
horizontal = 1;
place = "{971, -20}";
target = down;
type = TopGhost;
}
);
layerId = "228CC867-ECE3-4F82-B853-1E58141B916C";
paths = (
{
closed = 1;
nodes = (
"429 -6 OFFCURVE",
"537 70 OFFCURVE",
"537 203 CURVE SMOOTH",
"537 263 OFFCURVE",
"512 277 OFFCURVE",
"458 277 CURVE SMOOTH",
"418 277 OFFCURVE",
"384 267 OFFCURVE",
"381 230 CURVE SMOOTH",
"378 191 OFFCURVE",
"373 130 OFFCURVE",
"293 130 CURVE SMOOTH",
"235 130 OFFCURVE",
"202 162 OFFCURVE",
"202 230 CURVE SMOOTH",
"202 495 LINE SMOOTH",
"202 563 OFFCURVE",
"235 595 OFFCURVE",
"292 595 CURVE SMOOTH",
"377 595 OFFCURVE",
"380 531 OFFCURVE",
"381 505 CURVE SMOOTH",
"383 469 OFFCURVE",
"417 458 OFFCURVE",
"459 458 CURVE SMOOTH",
"512 458 OFFCURVE",
"537 472 OFFCURVE",
"537 532 CURVE SMOOTH",
"537 659 OFFCURVE",
"429 731 OFFCURVE",
"286 731 CURVE SMOOTH",
"155 731 OFFCURVE",
"46 667 OFFCURVE",
"46 495 CURVE SMOOTH",
"46 230 LINE SMOOTH",
"46 58 OFFCURVE",
"155 -6 OFFCURVE",
"286 -6 CURVE SMOOTH"
);
},
{
closed = 1;
nodes = (
"296 820 OFFCURVE",
"301 822 OFFCURVE",
"307 825 CURVE SMOOTH",
"411 881 LINE SMOOTH",
"429 891 OFFCURVE",
"436 908 OFFCURVE",
"436 925 CURVE SMOOTH",
"436 948 OFFCURVE",
"423 971 OFFCURVE",
"405 971 CURVE SMOOTH",
"402 971 OFFCURVE",
"398 970 OFFCURVE",
"394 968 CURVE SMOOTH",
"290 912 LINE",
"186 968 LINE SMOOTH",
"182 970 OFFCURVE",
"178 971 OFFCURVE",
"175 971 CURVE SMOOTH",
"157 971 OFFCURVE",
"144 948 OFFCURVE",
"144 925 CURVE SMOOTH",
"144 908 OFFCURVE",
"151 891 OFFCURVE",
"169 881 CURVE SMOOTH",
"273 825 LINE SMOOTH",
"279 822 OFFCURVE",
"284 820 OFFCURVE",
"290 820 CURVE SMOOTH"
);
}
);
width = 562;
}
);
leftKerningGroup = O;
rightKerningGroup = C;
unicode = 010C;
},
{
glyphname = Ccedilla;
lastChange = "2016-09-01 12:15:50 +0000";
layers = (
{
hints = (
{
place = "{76, 36}";
type = Stem;
},
{
place = "{354, 33}";
type = Stem;
},
{
place = "{431, 36}";
type = Stem;
},
{
horizontal = 1;
place = "{-207, 29}";
type = Stem;
},
{
horizontal = 1;
place = "{-92, 27}";
type = Stem;
},
{
horizontal = 1;
place = "{-6, 36}";
type = Stem;
},
{
horizontal = 1;
place = "{546, 185}";
type = Stem;
},
{
horizontal = 1;
place = "{695, 36}";
type = Stem;
}
);
layerId = UUID0;
paths = (
{
closed = 1;
nodes = (
"357 -207 OFFCURVE",
"387 -172 OFFCURVE",
"387 -135 CURVE SMOOTH",
"387 -101 OFFCURVE",
"361 -67 OFFCURVE",
"293 -65 CURVE",
"308 -3 LINE",
"412 10 OFFCURVE",
"467 80 OFFCURVE",
"467 150 CURVE SMOOTH",
"467 173 OFFCURVE",
"461 179 OFFCURVE",
"449 179 CURVE SMOOTH",
"434 179 OFFCURVE",
"432 170 OFFCURVE",
"431 161 CURVE",
"423 109 OFFCURVE",
"410 30 OFFCURVE",
"278 30 CURVE SMOOTH",
"169 30 OFFCURVE",
"112 83 OFFCURVE",
"112 200 CURVE SMOOTH",
"112 525 LINE SMOOTH",
"112 641 OFFCURVE",
"169 695 OFFCURVE",
"274 695 CURVE SMOOTH",
"404 695 OFFCURVE",
"428 612 OFFCURVE",
"431 564 CURVE",
"431 557 OFFCURVE",
"432 546 OFFCURVE",
"449 546 CURVE SMOOTH",
"461 546 OFFCURVE",
"467 551 OFFCURVE",
"467 574 CURVE SMOOTH",
"467 652 OFFCURVE",
"403 731 OFFCURVE",
"275 731 CURVE SMOOTH",
"167 731 OFFCURVE",
"76 675 OFFCURVE",
"76 525 CURVE SMOOTH",
"76 200 LINE SMOOTH",
"76 70 OFFCURVE",
"144 -6 OFFCURVE",
"276 -6 CURVE",
"255 -90 LINE",
"284 -92 LINE SMOOTH",
"327 -95 OFFCURVE",
"354 -106 OFFCURVE",
"354 -137 CURVE SMOOTH",
"354 -158 OFFCURVE",
"341 -178 OFFCURVE",
"299 -178 CURVE SMOOTH",
"266 -178 OFFCURVE",
"250 -165 OFFCURVE",
"243 -165 CURVE SMOOTH",
"237 -165 OFFCURVE",
"231 -177 OFFCURVE",
"231 -183 CURVE SMOOTH",
"231 -200 OFFCURVE",
"282 -207 OFFCURVE",
"305 -207 CURVE SMOOTH"
);
}
);
width = 512;
},
{
hints = (
{
place = "{46, 156}";
type = Stem;
},
{
place = "{209, 199}";
type = Stem;
},
{
place = "{339, 69}";
type = Stem;
},
{
place = "{381, 156}";
type = Stem;
},
{
horizontal = 1;
place = "{-219, 59}";
type = Stem;
},
{
horizontal = 1;
place = "{-5, 135}";
type = Stem;
},
{
horizontal = 1;
place = "{595, 136}";
type = Stem;
},
{
horizontal = 1;
place = "{-219, 172}";
type = Stem;
},
{
horizontal = 1;
place = "{-219, 73}";
type = Stem;
}
);
layerId = "228CC867-ECE3-4F82-B853-1E58141B916C";
paths = (
{
closed = 1;
nodes = (
"385 -219 OFFCURVE",
"408 -161 OFFCURVE",
"408 -126 CURVE SMOOTH",
"408 -84 OFFCURVE",
"376 -50 OFFCURVE",
"308 -47 CURVE",
"322 -4 LINE",
"447 8 OFFCURVE",
"537 81 OFFCURVE",
"537 203 CURVE SMOOTH",
"537 263 OFFCURVE",
"512 277 OFFCURVE",
"458 277 CURVE SMOOTH",
"418 277 OFFCURVE",
"384 267 OFFCURVE",
"381 230 CURVE SMOOTH",
"378 191 OFFCURVE",
"373 130 OFFCURVE",
"293 130 CURVE SMOOTH",
"235 130 OFFCURVE",
"202 162 OFFCURVE",
"202 230 CURVE SMOOTH",
"202 495 LINE SMOOTH",
"202 563 OFFCURVE",
"235 595 OFFCURVE",
"292 595 CURVE SMOOTH",
"377 595 OFFCURVE",
"380 531 OFFCURVE",
"381 505 CURVE SMOOTH",
"383 469 OFFCURVE",
"417 458 OFFCURVE",
"459 458 CURVE SMOOTH",
"512 458 OFFCURVE",
"537 472 OFFCURVE",
"537 532 CURVE SMOOTH",
"537 659 OFFCURVE",
"429 731 OFFCURVE",
"286 731 CURVE SMOOTH",
"155 731 OFFCURVE",
"46 667 OFFCURVE",
"46 495 CURVE SMOOTH",
"46 230 LINE SMOOTH",
"46 70 OFFCURVE",
"140 3 OFFCURVE",
"259 -5 CURVE",
"234 -89 LINE",
"296 -95 LINE SMOOTH",
"326 -98 OFFCURVE",
"339 -112 OFFCURVE",
"339 -129 CURVE SMOOTH",
"339 -150 OFFCURVE",
"320 -160 OFFCURVE",
"293 -160 CURVE SMOOTH",
"261 -160 OFFCURVE",
"247 -146 OFFCURVE",
"235 -146 CURVE SMOOTH",
"216 -146 OFFCURVE",
"209 -180 OFFCURVE",
"209 -188 CURVE SMOOTH",
"209 -209 OFFCURVE",
"260 -219 OFFCURVE",
"297 -219 CURVE SMOOTH"
);
}
);
width = 562;
}
);
leftKerningGroup = O;
rightKerningGroup = C;
unicode = 00C7;
},
{
glyphname = Ccircumflex;
lastChange = "2016-08-25 09:49:10 +0000";
layers = (
{
hints = (
{
place = "{76, 36}";
type = Stem;
},
{
place = "{431, 36}";
type = Stem;
},
{
horizontal = 1;
place = "{-6, 36}";
type = Stem;
},
{
horizontal = 1;
place = "{546, 185}";
type = Stem;
},
{
horizontal = 1;
place = "{695, 36}";
type = Stem;
},
{
horizontal = 1;
place = "{-6, 185}";
type = Stem;
},
{
horizontal = 1;
place = "{953, -20}";
target = down;
type = TopGhost;
}
);
layerId = UUID0;
paths = (
{
closed = 1;
nodes = (
"400 -6 OFFCURVE",
"467 73 OFFCURVE",
"467 150 CURVE SMOOTH",
"467 173 OFFCURVE",
"461 179 OFFCURVE",
"449 179 CURVE SMOOTH",
"434 179 OFFCURVE",
"432 170 OFFCURVE",
"431 161 CURVE",
"423 109 OFFCURVE",
"410 30 OFFCURVE",
"278 30 CURVE SMOOTH",
"169 30 OFFCURVE",
"112 83 OFFCURVE",
"112 200 CURVE SMOOTH",
"112 525 LINE SMOOTH",
"112 641 OFFCURVE",
"169 695 OFFCURVE",
"274 695 CURVE SMOOTH",
"404 695 OFFCURVE",
"428 612 OFFCURVE",
"431 564 CURVE",
"431 557 OFFCURVE",
"432 546 OFFCURVE",
"449 546 CURVE SMOOTH",
"461 546 OFFCURVE",
"467 551 OFFCURVE",
"467 574 CURVE SMOOTH",
"467 652 OFFCURVE",
"403 731 OFFCURVE",
"275 731 CURVE SMOOTH",
"167 731 OFFCURVE",
"76 675 OFFCURVE",
"76 525 CURVE SMOOTH",
"76 200 LINE SMOOTH",
"76 50 OFFCURVE",
"165 -6 OFFCURVE",
"272 -6 CURVE SMOOTH"
);
},
{
closed = 1;
nodes = (
"161 859 OFFCURVE",
"164 861 OFFCURVE",
"167 862 CURVE",
"271 918 LINE",
"375 863 LINE",
"378 862 OFFCURVE",
"381 860 OFFCURVE",
"384 860 CURVE SMOOTH",
"393 860 OFFCURVE",
"401 867 OFFCURVE",
"401 876 CURVE SMOOTH",
"401 883 OFFCURVE",
"398 890 OFFCURVE",
"392 893 CURVE SMOOTH",
"288 948 LINE",
"283 951 OFFCURVE",
"277 953 OFFCURVE",
"271 953 CURVE SMOOTH",
"265 953 OFFCURVE",
"259 951 OFFCURVE",
"254 948 CURVE",
"150 892 LINE SMOOTH",
"144 889 OFFCURVE",
"141 883 OFFCURVE",
"141 878 CURVE SMOOTH",
"141 867 OFFCURVE",
"150 859 OFFCURVE",
"159 859 CURVE SMOOTH"
);
}
);
width = 512;
},
{
hints = (
{
place = "{46, 156}";
type = Stem;
},
{
place = "{381, 156}";
type = Stem;
},
{
horizontal = 1;
place = "{-6, 136}";
type = Stem;
},
{
horizontal = 1;
place = "{595, 136}";
type = Stem;
},
{
horizontal = 1;
place = "{731, 77}";
type = Stem;
},
{
horizontal = 1;
place = "{277, 181}";
type = Stem;
},
{
horizontal = 1;
place = "{959, -20}";
target = down;
type = TopGhost;
}
);
layerId = "228CC867-ECE3-4F82-B853-1E58141B916C";
paths = (
{
closed = 1;
nodes = (
"429 -6 OFFCURVE",
"537 70 OFFCURVE",
"537 203 CURVE SMOOTH",
"537 263 OFFCURVE",
"512 277 OFFCURVE",
"458 277 CURVE SMOOTH",
"418 277 OFFCURVE",
"384 267 OFFCURVE",
"381 230 CURVE SMOOTH",
"378 191 OFFCURVE",
"373 130 OFFCURVE",
"293 130 CURVE SMOOTH",
"235 130 OFFCURVE",
"202 162 OFFCURVE",
"202 230 CURVE SMOOTH",
"202 495 LINE SMOOTH",
"202 563 OFFCURVE",
"235 595 OFFCURVE",
"292 595 CURVE SMOOTH",
"377 595 OFFCURVE",
"380 531 OFFCURVE",
"381 505 CURVE SMOOTH",
"383 469 OFFCURVE",
"417 458 OFFCURVE",
"459 458 CURVE SMOOTH",
"512 458 OFFCURVE",
"537 472 OFFCURVE",
"537 532 CURVE SMOOTH",
"537 659 OFFCURVE",
"429 731 OFFCURVE",
"286 731 CURVE SMOOTH",
"155 731 OFFCURVE",
"46 667 OFFCURVE",
"46 495 CURVE SMOOTH",
"46 230 LINE SMOOTH",
"46 58 OFFCURVE",
"155 -6 OFFCURVE",
"286 -6 CURVE SMOOTH"
);
},
{
closed = 1;
nodes = (
"179 808 OFFCURVE",
"183 809 OFFCURVE",
"187 811 CURVE SMOOTH",
"291 867 LINE",
"395 811 LINE SMOOTH",
"399 809 OFFCURVE",
"403 808 OFFCURVE",
"406 808 CURVE SMOOTH",
"424 808 OFFCURVE",
"437 831 OFFCURVE",
"437 854 CURVE SMOOTH",
"437 871 OFFCURVE",
"430 888 OFFCURVE",
"412 898 CURVE SMOOTH",
"308 954 LINE SMOOTH",
"302 957 OFFCURVE",
"297 959 OFFCURVE",
"291 959 CURVE SMOOTH",
"285 959 OFFCURVE",
"280 957 OFFCURVE",
"274 954 CURVE SMOOTH",
"170 898 LINE SMOOTH",
"152 888 OFFCURVE",
"145 871 OFFCURVE",
"145 854 CURVE SMOOTH",
"145 831 OFFCURVE",
"158 808 OFFCURVE",
"176 808 CURVE SMOOTH"
);
}
);
width = 562;
}
);
leftKerningGroup = O;
rightKerningGroup = C;
unicode = 0108;
},
{
glyphname = Cdotaccent;
lastChange = "2016-08-25 09:49:10 +0000";
layers = (
{
hints = (
{
place = "{76, 36}";
type = Stem;
},
{
place = "{242, 59}";
type = Stem;
},
{
place = "{431, 36}";
type = Stem;
},
{
horizontal = 1;
place = "{-6, 36}";
type = Stem;
},
{
horizontal = 1;
place = "{546, 185}";
type = Stem;
},
{
horizontal = 1;
place = "{695, 36}";
type = Stem;
},
{
horizontal = 1;
place = "{859, 59}";
type = Stem;
},
{
horizontal = 1;
place = "{-6, 185}";
type = Stem;
}
);
layerId = UUID0;
paths = (
{
closed = 1;
nodes = (
"400 -6 OFFCURVE",
"467 73 OFFCURVE",
"467 150 CURVE SMOOTH",
"467 173 OFFCURVE",
"461 179 OFFCURVE",
"449 179 CURVE SMOOTH",
"434 179 OFFCURVE",
"432 170 OFFCURVE",
"431 161 CURVE",
"423 109 OFFCURVE",
"410 30 OFFCURVE",
"278 30 CURVE SMOOTH",
"169 30 OFFCURVE",
"112 83 OFFCURVE",
"112 200 CURVE SMOOTH",
"112 525 LINE SMOOTH",
"112 641 OFFCURVE",
"169 695 OFFCURVE",
"274 695 CURVE SMOOTH",
"404 695 OFFCURVE",
"428 612 OFFCURVE",
"431 564 CURVE",
"431 557 OFFCURVE",
"432 546 OFFCURVE",
"449 546 CURVE SMOOTH",
"461 546 OFFCURVE",
"467 551 OFFCURVE",
"467 574 CURVE SMOOTH",
"467 652 OFFCURVE",
"403 731 OFFCURVE",
"275 731 CURVE SMOOTH",
"167 731 OFFCURVE",
"76 675 OFFCURVE",
"76 525 CURVE SMOOTH",
"76 200 LINE SMOOTH",
"76 50 OFFCURVE",
"165 -6 OFFCURVE",
"272 -6 CURVE SMOOTH"
);
},
{
closed = 1;
nodes = (
"289 859 OFFCURVE",
"301 872 OFFCURVE",
"301 889 CURVE SMOOTH",
"301 906 OFFCURVE",
"289 918 OFFCURVE",
"272 918 CURVE SMOOTH",
"254 918 OFFCURVE",
"242 906 OFFCURVE",
"242 889 CURVE SMOOTH",
"242 872 OFFCURVE",
"254 859 OFFCURVE",
"272 859 CURVE SMOOTH"
);
}
);
width = 512;
},
{
hints = (
{
place = "{46, 156}";
type = Stem;
},
{
place = "{236, 113}";
type = Stem;
},
{
place = "{381, 156}";
type = Stem;
},
{
horizontal = 1;
place = "{-6, 136}";
type = Stem;
},
{
horizontal = 1;
place = "{595, 136}";
type = Stem;
},
{
horizontal = 1;
place = "{810, 117}";
type = Stem;
}
);
layerId = "228CC867-ECE3-4F82-B853-1E58141B916C";
paths = (
{
closed = 1;
nodes = (
"429 -6 OFFCURVE",
"537 70 OFFCURVE",
"537 203 CURVE SMOOTH",
"537 263 OFFCURVE",
"512 277 OFFCURVE",
"458 277 CURVE SMOOTH",
"418 277 OFFCURVE",
"384 267 OFFCURVE",
"381 230 CURVE SMOOTH",
"378 191 OFFCURVE",
"373 130 OFFCURVE",
"293 130 CURVE SMOOTH",
"235 130 OFFCURVE",
"202 162 OFFCURVE",
"202 230 CURVE SMOOTH",
"202 495 LINE SMOOTH",
"202 563 OFFCURVE",
"235 595 OFFCURVE",
"292 595 CURVE SMOOTH",
"377 595 OFFCURVE",
"380 531 OFFCURVE",
"381 505 CURVE SMOOTH",
"383 469 OFFCURVE",
"417 458 OFFCURVE",
"459 458 CURVE SMOOTH",
"512 458 OFFCURVE",
"537 472 OFFCURVE",
"537 532 CURVE SMOOTH",
"537 659 OFFCURVE",
"429 731 OFFCURVE",
"286 731 CURVE SMOOTH",
"155 731 OFFCURVE",
"46 667 OFFCURVE",
"46 495 CURVE SMOOTH",
"46 230 LINE SMOOTH",
"46 58 OFFCURVE",
"155 -6 OFFCURVE",
"286 -6 CURVE SMOOTH"
);
},
{
closed = 1;
nodes = (
"324 810 OFFCURVE",
"349 838 OFFCURVE",
"349 869 CURVE SMOOTH",
"349 900 OFFCURVE",
"324 927 OFFCURVE",
"293 927 CURVE SMOOTH",
"262 927 OFFCURVE",
"236 900 OFFCURVE",
"236 869 CURVE SMOOTH",
"236 838 OFFCURVE",
"262 810 OFFCURVE",
"293 810 CURVE SMOOTH"
);
}
);
width = 562;
}
);
leftKerningGroup = O;
rightKerningGroup = C;
unicode = 010A;
},
{
glyphname = D;
lastChange = "2016-08-25 09:49:10 +0000";
layers = (
{
background = {
paths = (
{
closed = 1;
nodes = (
"101 731 LINE SMOOTH",
"90 731 OFFCURVE",
"83 723 OFFCURVE",
"83 714 CURVE SMOOTH",
"83 17 LINE SMOOTH",
"83 8 OFFCURVE",
"90 0 OFFCURVE",
"101 0 CURVE SMOOTH",
"278 0 LINE SMOOTH",
"388 0 OFFCURVE",
"474 56 OFFCURVE",
"474 206 CURVE SMOOTH",
"474 525 LINE SMOOTH",
"474 675 OFFCURVE",
"388 731 OFFCURVE",
"278 731 CURVE SMOOTH"
);
},
{
closed = 1;
nodes = (
"278 695 LINE SMOOTH",
"378 695 OFFCURVE",
"438 641 OFFCURVE",
"438 525 CURVE SMOOTH",
"438 206 LINE SMOOTH",
"438 90 OFFCURVE",
"378 36 OFFCURVE",
"278 36 CURVE SMOOTH",
"119 36 LINE",
"119 695 LINE"
);
}
);
};
hints = (
{
place = "{83, 36}";
type = Stem;
},
{
place = "{438, 36}";
type = Stem;
},
{
horizontal = 1;
place = "{0, 36}";
type = Stem;
},
{
horizontal = 1;
place = "{695, 36}";
type = Stem;
}
);
layerId = UUID0;
paths = (
{
closed = 1;
nodes = (
"278 0 LINE SMOOTH",
"388 0 OFFCURVE",
"474 56 OFFCURVE",
"474 206 CURVE SMOOTH",
"474 525 LINE SMOOTH",
"474 675 OFFCURVE",
"388 731 OFFCURVE",
"278 731 CURVE SMOOTH",
"101 731 LINE SMOOTH",
"90 731 OFFCURVE",
"83 723 OFFCURVE",
"83 714 CURVE SMOOTH",
"83 17 LINE SMOOTH",
"83 8 OFFCURVE",
"90 0 OFFCURVE",
"101 0 CURVE SMOOTH"
);
},
{
closed = 1;
nodes = (
"119 695 LINE",
"278 695 LINE SMOOTH",
"378 695 OFFCURVE",
"438 641 OFFCURVE",
"438 525 CURVE SMOOTH",
"438 206 LINE SMOOTH",
"438 90 OFFCURVE",
"378 36 OFFCURVE",
"278 36 CURVE SMOOTH",
"119 36 LINE"
);
}
);
width = 550;
},
{
background = {
paths = (
{
closed = 1;
nodes = (
"122 731 LINE SMOOTH",
"111 731 OFFCURVE",
"104 723 OFFCURVE",
"104 714 CURVE SMOOTH",
"104 17 LINE SMOOTH",
"104 8 OFFCURVE",
"111 0 OFFCURVE",
"122 0 CURVE SMOOTH",
"299 0 LINE SMOOTH",
"409 0 OFFCURVE",
"495 56 OFFCURVE",
"495 206 CURVE SMOOTH",
"495 525 LINE SMOOTH",
"495 675 OFFCURVE",
"409 731 OFFCURVE",
"299 731 CURVE SMOOTH"
);
},
{
closed = 1;
nodes = (
"299 695 LINE SMOOTH",
"399 695 OFFCURVE",
"459 641 OFFCURVE",
"459 525 CURVE SMOOTH",
"459 206 LINE SMOOTH",
"459 90 OFFCURVE",
"399 36 OFFCURVE",
"299 36 CURVE SMOOTH",
"140 36 LINE",
"140 695 LINE"
);
}
);
};
hints = (
{
place = "{54, 156}";
type = Stem;
},
{
place = "{389, 156}";
type = Stem;
},
{
horizontal = 1;
place = "{0, 136}";
type = Stem;
},
{
horizontal = 1;
place = "{595, 136}";
type = Stem;
}
);
layerId = "228CC867-ECE3-4F82-B853-1E58141B916C";
paths = (
{
closed = 1;
nodes = (
"299 0 LINE SMOOTH",
"437 0 OFFCURVE",
"545 64 OFFCURVE",
"545 236 CURVE SMOOTH",
"545 495 LINE SMOOTH",
"545 667 OFFCURVE",
"437 731 OFFCURVE",
"299 731 CURVE SMOOTH",
"122 731 LINE SMOOTH",
"81 731 OFFCURVE",
"54 709 OFFCURVE",
"54 684 CURVE SMOOTH",
"54 47 LINE SMOOTH",
"54 22 OFFCURVE",
"81 0 OFFCURVE",
"122 0 CURVE SMOOTH"
);
},
{
closed = 1;
nodes = (
"210 595 LINE",
"299 595 LINE SMOOTH",
"355 595 OFFCURVE",
"389 563 OFFCURVE",
"389 495 CURVE SMOOTH",
"389 236 LINE SMOOTH",
"389 168 OFFCURVE",
"355 136 OFFCURVE",
"299 136 CURVE SMOOTH",
"210 136 LINE"
);
}
);
width = 590;
}
);
leftKerningGroup = I;
rightKerningGroup = O;
unicode = 0044;
},
{
glyphname = Eth;
lastChange = "2016-08-25 09:49:10 +0000";
layers = (
{
background = {
paths = (
{
closed = 1;
nodes = (
"3 374 OFFCURVE",
"10 367 OFFCURVE",
"20 367 CURVE SMOOTH",
"260 367 LINE SMOOTH",
"269 367 OFFCURVE",
"278 374 OFFCURVE",
"278 384 CURVE SMOOTH",
"278 394 OFFCURVE",
"269 402 OFFCURVE",
"260 402 CURVE SMOOTH",
"20 402 LINE SMOOTH",
"10 402 OFFCURVE",
"3 394 OFFCURVE",
"3 384 CURVE SMOOTH"
);
}
);
};
hints = (
{
place = "{93, 36}";
type = Stem;
},
{
place = "{448, 36}";
type = Stem;
},
{
horizontal = 1;
place = "{0, 36}";
type = Stem;
},
{
horizontal = 1;
place = "{367, 35}";
type = Stem;
},
{
horizontal = 1;
place = "{695, 36}";
type = Stem;
}
);
layerId = UUID0;
paths = (
{
closed = 1;
nodes = (
"288 0 LINE SMOOTH",
"398 0 OFFCURVE",
"484 56 OFFCURVE",
"484 206 CURVE SMOOTH",
"484 525 LINE SMOOTH",
"484 675 OFFCURVE",
"398 731 OFFCURVE",
"288 731 CURVE SMOOTH",
"111 731 LINE SMOOTH",
"100 731 OFFCURVE",
"93 723 OFFCURVE",
"93 714 CURVE SMOOTH",
"93 402 LINE",
"20 402 LINE SMOOTH",
"10 402 OFFCURVE",
"3 394 OFFCURVE",
"3 384 CURVE SMOOTH",
"3 374 OFFCURVE",
"10 367 OFFCURVE",
"20 367 CURVE SMOOTH",
"93 367 LINE",
"93 17 LINE SMOOTH",
"93 8 OFFCURVE",
"100 0 OFFCURVE",
"111 0 CURVE SMOOTH"
);
},
{
closed = 1;
nodes = (
"129 367 LINE",
"260 367 LINE SMOOTH",
"269 367 OFFCURVE",
"278 374 OFFCURVE",
"278 384 CURVE SMOOTH",
"278 394 OFFCURVE",
"269 402 OFFCURVE",
"260 402 CURVE SMOOTH",
"129 402 LINE",
"129 695 LINE",
"288 695 LINE SMOOTH",
"388 695 OFFCURVE",
"448 641 OFFCURVE",
"448 525 CURVE SMOOTH",
"448 206 LINE SMOOTH",
"448 90 OFFCURVE",
"388 36 OFFCURVE",
"288 36 CURVE SMOOTH",
"129 36 LINE"
);
}
);
width = 560;
},
{
background = {
paths = (
{
closed = 1;
nodes = (
"20 374 OFFCURVE",
"27 367 OFFCURVE",
"37 367 CURVE SMOOTH",
"277 367 LINE SMOOTH",
"286 367 OFFCURVE",
"295 374 OFFCURVE",
"295 384 CURVE SMOOTH",
"295 394 OFFCURVE",
"286 402 OFFCURVE",
"277 402 CURVE SMOOTH",
"37 402 LINE SMOOTH",
"27 402 OFFCURVE",
"20 394 OFFCURVE",
"20 384 CURVE SMOOTH"
);
}
);
};
hints = (
{
place = "{-10, 226}";
type = Stem;
},
{
place = "{60, 156}";
type = Stem;
},
{
place = "{395, 156}";
type = Stem;
},
{
horizontal = 1;
place = "{0, 136}";
type = Stem;
},
{
horizontal = 1;
place = "{327, 110}";
type = Stem;
},
{
horizontal = 1;
place = "{595, 136}";
type = Stem;
}
);
layerId = "228CC867-ECE3-4F82-B853-1E58141B916C";
paths = (
{
closed = 1;
nodes = (
"305 0 LINE SMOOTH",
"443 0 OFFCURVE",
"551 64 OFFCURVE",
"551 236 CURVE SMOOTH",
"551 495 LINE SMOOTH",
"551 667 OFFCURVE",
"443 731 OFFCURVE",
"305 731 CURVE SMOOTH",
"128 731 LINE SMOOTH",
"87 731 OFFCURVE",
"60 709 OFFCURVE",
"60 684 CURVE SMOOTH",
"60 437 LINE",
"28 437 LINE SMOOTH",
"3 437 OFFCURVE",
"-10 409 OFFCURVE",
"-10 382 CURVE SMOOTH",
"-10 354 OFFCURVE",
"3 327 OFFCURVE",
"28 327 CURVE SMOOTH",
"60 327 LINE",
"60 47 LINE SMOOTH",
"60 22 OFFCURVE",
"87 0 OFFCURVE",
"128 0 CURVE SMOOTH"
);
},
{
closed = 1;
nodes = (
"216 327 LINE",
"278 327 LINE SMOOTH",
"303 327 OFFCURVE",
"316 353 OFFCURVE",
"316 382 CURVE SMOOTH",
"316 409 OFFCURVE",
"303 437 OFFCURVE",
"278 437 CURVE SMOOTH",
"216 437 LINE",
"216 595 LINE",
"305 595 LINE SMOOTH",
"361 595 OFFCURVE",
"395 563 OFFCURVE",
"395 495 CURVE SMOOTH",
"395 236 LINE SMOOTH",
"395 168 OFFCURVE",
"361 136 OFFCURVE",
"305 136 CURVE SMOOTH",
"216 136 LINE"
);
}
);
width = 596;
}
);
leftKerningGroup = I;
rightKerningGroup = O;
unicode = 00D0;
},
{
glyphname = Dcaron;
lastChange = "2016-08-25 09:49:10 +0000";
layers = (
{
hints = (
{
place = "{83, 36}";
type = Stem;
},
{
place = "{438, 36}";
type = Stem;
},
{
horizontal = 1;
place = "{0, 36}";
type = Stem;
},
{
horizontal = 1;
place = "{695, 36}";
type = Stem;
},
{
horizontal = 1;
place = "{990, -20}";
target = down;
type = TopGhost;
}
);
layerId = UUID0;
paths = (
{
closed = 1;
nodes = (
"278 0 LINE SMOOTH",
"388 0 OFFCURVE",
"474 56 OFFCURVE",
"474 206 CURVE SMOOTH",
"474 525 LINE SMOOTH",
"474 675 OFFCURVE",
"388 731 OFFCURVE",
"278 731 CURVE SMOOTH",
"101 731 LINE SMOOTH",
"90 731 OFFCURVE",
"83 723 OFFCURVE",
"83 714 CURVE SMOOTH",
"83 17 LINE SMOOTH",
"83 8 OFFCURVE",
"90 0 OFFCURVE",
"101 0 CURVE SMOOTH"
);
},
{
closed = 1;
nodes = (
"119 695 LINE",
"278 695 LINE SMOOTH",
"378 695 OFFCURVE",
"438 641 OFFCURVE",
"438 525 CURVE SMOOTH",
"438 206 LINE SMOOTH",
"438 90 OFFCURVE",
"378 36 OFFCURVE",
"278 36 CURVE SMOOTH",
"119 36 LINE"
);
},
{
closed = 1;
nodes = (
"284 847 OFFCURVE",
"291 851 OFFCURVE",
"298 858 CURVE SMOOTH",
"398 959 LINE",
"403 965 OFFCURVE",
"406 970 OFFCURVE",
"406 975 CURVE SMOOTH",
"406 982 OFFCURVE",
"400 990 OFFCURVE",
"391 990 CURVE SMOOTH",
"386 990 OFFCURVE",
"380 988 OFFCURVE",
"375 982 CURVE",
"277 879 LINE",
"179 982 LINE",
"174 988 OFFCURVE",
"168 990 OFFCURVE",
"163 990 CURVE SMOOTH",
"154 990 OFFCURVE",
"148 982 OFFCURVE",
"148 975 CURVE SMOOTH",
"148 970 OFFCURVE",
"151 965 OFFCURVE",
"156 959 CURVE",
"256 858 LINE",
"262 851 OFFCURVE",
"270 847 OFFCURVE",
"277 847 CURVE SMOOTH"
);
}
);
width = 550;
},
{
hints = (
{
place = "{54, 156}";
type = Stem;
},
{
place = "{389, 156}";
type = Stem;
},
{
horizontal = 1;
place = "{0, 136}";
type = Stem;
},
{
horizontal = 1;
place = "{595, 136}";
type = Stem;
},
{
horizontal = 1;
place = "{971, -20}";
target = down;
type = TopGhost;
}
);
layerId = "228CC867-ECE3-4F82-B853-1E58141B916C";
paths = (
{
closed = 1;
nodes = (
"299 0 LINE SMOOTH",
"437 0 OFFCURVE",
"545 64 OFFCURVE",
"545 236 CURVE SMOOTH",
"545 495 LINE SMOOTH",
"545 667 OFFCURVE",
"437 731 OFFCURVE",
"299 731 CURVE SMOOTH",
"122 731 LINE SMOOTH",
"81 731 OFFCURVE",
"54 709 OFFCURVE",
"54 684 CURVE SMOOTH",
"54 47 LINE SMOOTH",
"54 22 OFFCURVE",
"81 0 OFFCURVE",
"122 0 CURVE SMOOTH"
);
},
{
closed = 1;
nodes = (
"210 595 LINE",
"299 595 LINE SMOOTH",
"355 595 OFFCURVE",
"389 563 OFFCURVE",
"389 495 CURVE SMOOTH",
"389 236 LINE SMOOTH",
"389 168 OFFCURVE",
"355 136 OFFCURVE",
"299 136 CURVE SMOOTH",
"210 136 LINE"
);
},
{
closed = 1;
nodes = (
"280 820 OFFCURVE",
"285 822 OFFCURVE",
"291 825 CURVE SMOOTH",
"395 881 LINE SMOOTH",
"413 891 OFFCURVE",
"420 908 OFFCURVE",
"420 925 CURVE SMOOTH",
"420 948 OFFCURVE",
"407 971 OFFCURVE",
"389 971 CURVE SMOOTH",
"386 971 OFFCURVE",
"382 970 OFFCURVE",
"378 968 CURVE SMOOTH",
"274 912 LINE",
"170 968 LINE SMOOTH",
"166 970 OFFCURVE",
"162 971 OFFCURVE",
"159 971 CURVE SMOOTH",
"141 971 OFFCURVE",
"128 948 OFFCURVE",
"128 925 CURVE SMOOTH",
"128 908 OFFCURVE",
"135 891 OFFCURVE",
"153 881 CURVE SMOOTH",
"257 825 LINE SMOOTH",
"263 822 OFFCURVE",
"268 820 OFFCURVE",
"274 820 CURVE SMOOTH"
);
}
);
width = 590;
}
);
leftKerningGroup = I;
rightKerningGroup = O;
unicode = 010E;
},
{
color = 4;
glyphname = Dcroat;
lastChange = "2016-09-01 13:44:24 +0000";
layers = (
{
background = {
paths = (
{
closed = 1;
nodes = (
"3 374 OFFCURVE",
"10 367 OFFCURVE",
"20 367 CURVE SMOOTH",
"260 367 LINE SMOOTH",
"269 367 OFFCURVE",
"278 374 OFFCURVE",
"278 384 CURVE SMOOTH",
"278 394 OFFCURVE",
"269 402 OFFCURVE",
"260 402 CURVE SMOOTH",
"20 402 LINE SMOOTH",
"10 402 OFFCURVE",
"3 394 OFFCURVE",
"3 384 CURVE SMOOTH"
);
}
);
};
hints = (
{
place = "{93, 36}";
type = Stem;
},
{
place = "{448, 36}";
type = Stem;
},
{
horizontal = 1;
place = "{0, 36}";
type = Stem;
},
{
horizontal = 1;
place = "{367, 35}";
type = Stem;
},
{
horizontal = 1;
place = "{695, 36}";
type = Stem;
}
);
layerId = UUID0;
paths = (
{
closed = 1;
nodes = (
"288 0 LINE SMOOTH",
"398 0 OFFCURVE",
"484 56 OFFCURVE",
"484 206 CURVE SMOOTH",
"484 525 LINE SMOOTH",
"484 675 OFFCURVE",
"398 731 OFFCURVE",
"288 731 CURVE SMOOTH",
"111 731 LINE SMOOTH",
"100 731 OFFCURVE",
"93 723 OFFCURVE",
"93 714 CURVE SMOOTH",
"93 402 LINE",
"20 402 LINE SMOOTH",
"10 402 OFFCURVE",
"3 394 OFFCURVE",
"3 384 CURVE SMOOTH",
"3 374 OFFCURVE",
"10 367 OFFCURVE",
"20 367 CURVE SMOOTH",
"93 367 LINE",
"93 17 LINE SMOOTH",
"93 8 OFFCURVE",
"100 0 OFFCURVE",
"111 0 CURVE SMOOTH"
);
},
{
closed = 1;
nodes = (
"129 367 LINE",
"260 367 LINE SMOOTH",
"269 367 OFFCURVE",
"278 374 OFFCURVE",
"278 384 CURVE SMOOTH",
"278 394 OFFCURVE",
"269 402 OFFCURVE",
"260 402 CURVE SMOOTH",
"129 402 LINE",
"129 695 LINE",
"288 695 LINE SMOOTH",
"388 695 OFFCURVE",
"448 641 OFFCURVE",
"448 525 CURVE SMOOTH",
"448 206 LINE SMOOTH",
"448 90 OFFCURVE",
"388 36 OFFCURVE",
"288 36 CURVE SMOOTH",
"129 36 LINE"
);
}
);
width = 560;
},
{
background = {
paths = (
{
closed = 1;
nodes = (
"20 374 OFFCURVE",
"27 367 OFFCURVE",
"37 367 CURVE SMOOTH",
"277 367 LINE SMOOTH",
"286 367 OFFCURVE",
"295 374 OFFCURVE",
"295 384 CURVE SMOOTH",
"295 394 OFFCURVE",
"286 402 OFFCURVE",
"277 402 CURVE SMOOTH",
"37 402 LINE SMOOTH",
"27 402 OFFCURVE",
"20 394 OFFCURVE",
"20 384 CURVE SMOOTH"
);
}
);
};
hints = (
{
place = "{-10, 226}";
type = Stem;
},
{
place = "{60, 156}";
type = Stem;
},
{
place = "{395, 156}";
type = Stem;
},
{
horizontal = 1;
place = "{0, 136}";
type = Stem;
},
{
horizontal = 1;
place = "{327, 110}";
type = Stem;
},
{
horizontal = 1;
place = "{595, 136}";
type = Stem;
}
);
layerId = "228CC867-ECE3-4F82-B853-1E58141B916C";
paths = (
{
closed = 1;
nodes = (
"305 0 LINE SMOOTH",
"443 0 OFFCURVE",
"551 64 OFFCURVE",
"551 236 CURVE SMOOTH",
"551 495 LINE SMOOTH",
"551 667 OFFCURVE",
"443 731 OFFCURVE",
"305 731 CURVE SMOOTH",
"128 731 LINE SMOOTH",
"87 731 OFFCURVE",
"60 709 OFFCURVE",
"60 684 CURVE SMOOTH",
"60 437 LINE",
"28 437 LINE SMOOTH",
"3 437 OFFCURVE",
"-10 409 OFFCURVE",
"-10 382 CURVE SMOOTH",
"-10 354 OFFCURVE",
"3 327 OFFCURVE",
"28 327 CURVE SMOOTH",
"60 327 LINE",
"60 47 LINE SMOOTH",
"60 22 OFFCURVE",
"87 0 OFFCURVE",
"128 0 CURVE SMOOTH"
);
},
{
closed = 1;
nodes = (
"216 327 LINE",
"278 327 LINE SMOOTH",
"303 327 OFFCURVE",
"316 353 OFFCURVE",
"316 382 CURVE SMOOTH",
"316 409 OFFCURVE",
"303 437 OFFCURVE",
"278 437 CURVE SMOOTH",
"216 437 LINE",
"216 595 LINE",
"305 595 LINE SMOOTH",
"361 595 OFFCURVE",
"395 563 OFFCURVE",
"395 495 CURVE SMOOTH",
"395 236 LINE SMOOTH",
"395 168 OFFCURVE",
"361 136 OFFCURVE",
"305 136 CURVE SMOOTH",
"216 136 LINE"
);
}
);
width = 596;
}
);
leftKerningGroup = I;
rightKerningGroup = O;
unicode = 0110;
},
{
glyphname = E;
lastChange = "2016-09-01 13:37:54 +0000";
layers = (
{
anchors = (
{
name = bottom;
position = "{249, 0}";
},
{
name = ogonek;
position = "{448, 10}";
},
{
name = top;
position = "{285, 731}";
},
{
name = topleft;
position = "{20, 731}";
}
);
background = {
paths = (
{
closed = 1;
nodes = (
"119 695 LINE",
"457 695 LINE SMOOTH",
"468 695 OFFCURVE",
"474 704 OFFCURVE",
"474 714 CURVE SMOOTH",
"474 722 OFFCURVE",
"469 731 OFFCURVE",
"457 731 CURVE SMOOTH",
"101 731 LINE SMOOTH",
"92 731 OFFCURVE",
"83 725 OFFCURVE",
"83 713 CURVE SMOOTH",
"83 18 LINE SMOOTH",
"83 6 OFFCURVE",
"92 0 OFFCURVE",
"101 0 CURVE SMOOTH",
"457 0 LINE SMOOTH",
"469 0 OFFCURVE",
"474 9 OFFCURVE",
"474 17 CURVE SMOOTH",
"474 27 OFFCURVE",
"468 36 OFFCURVE",
"457 36 CURVE SMOOTH",
"119 36 LINE",
"119 348 LINE",
"279 348 LINE SMOOTH",
"291 348 OFFCURVE",
"296 357 OFFCURVE",
"296 365 CURVE SMOOTH",
"296 375 OFFCURVE",
"290 384 OFFCURVE",
"279 384 CURVE SMOOTH",
"119 384 LINE"
);
}
);
};
hints = (
{
place = "{83, 36}";
type = Stem;
},
{
horizontal = 1;
place = "{0, 36}";
type = Stem;
},
{
horizontal = 1;
place = "{348, 36}";
type = Stem;
},
{
horizontal = 1;
place = "{695, 36}";
type = Stem;
}
);
layerId = UUID0;
paths = (
{
closed = 1;
nodes = (
"457 0 LINE SMOOTH",
"469 0 OFFCURVE",
"474 9 OFFCURVE",
"474 17 CURVE SMOOTH",
"474 27 OFFCURVE",
"468 36 OFFCURVE",
"457 36 CURVE SMOOTH",
"119 36 LINE",
"119 348 LINE",
"279 348 LINE SMOOTH",
"291 348 OFFCURVE",
"296 357 OFFCURVE",
"296 365 CURVE SMOOTH",
"296 375 OFFCURVE",
"290 384 OFFCURVE",
"279 384 CURVE SMOOTH",
"119 384 LINE",
"119 695 LINE",
"457 695 LINE SMOOTH",
"468 695 OFFCURVE",
"474 704 OFFCURVE",
"474 714 CURVE SMOOTH",
"474 722 OFFCURVE",
"469 731 OFFCURVE",
"457 731 CURVE SMOOTH",
"101 731 LINE SMOOTH",
"92 731 OFFCURVE",
"83 725 OFFCURVE",
"83 713 CURVE SMOOTH",
"83 18 LINE SMOOTH",
"83 6 OFFCURVE",
"92 0 OFFCURVE",
"101 0 CURVE SMOOTH"
);
}
);
width = 498;
},
{
anchors = (
{
name = bottom;
position = "{270, 0}";
},
{
name = ogonek;
position = "{485, 10}";
},
{
name = top;
position = "{270, 731}";
},
{
name = topleft;
position = "{20, 731}";
}
);
background = {
paths = (
{
closed = 1;
nodes = (
"140 695 LINE",
"478 695 LINE SMOOTH",
"489 695 OFFCURVE",
"495 704 OFFCURVE",
"495 714 CURVE SMOOTH",
"495 722 OFFCURVE",
"490 731 OFFCURVE",
"478 731 CURVE SMOOTH",
"122 731 LINE SMOOTH",
"113 731 OFFCURVE",
"104 725 OFFCURVE",
"104 713 CURVE SMOOTH",
"104 18 LINE SMOOTH",
"104 6 OFFCURVE",
"113 0 OFFCURVE",
"122 0 CURVE SMOOTH",
"478 0 LINE SMOOTH",
"490 0 OFFCURVE",
"495 9 OFFCURVE",
"495 17 CURVE SMOOTH",
"495 27 OFFCURVE",
"489 36 OFFCURVE",
"478 36 CURVE SMOOTH",
"140 36 LINE",
"140 348 LINE",
"300 348 LINE SMOOTH",
"312 348 OFFCURVE",
"317 357 OFFCURVE",
"317 365 CURVE SMOOTH",
"317 375 OFFCURVE",
"311 384 OFFCURVE",
"300 384 CURVE SMOOTH",
"140 384 LINE"
);
}
);
};
hints = (
{
place = "{54, 156}";
type = Stem;
},
{
horizontal = 1;
place = "{0, 136}";
type = Stem;
},
{
horizontal = 1;
place = "{306, 120}";
type = Stem;
},
{
horizontal = 1;
place = "{595, 136}";
type = Stem;
}
);
layerId = "228CC867-ECE3-4F82-B853-1E58141B916C";
paths = (
{
closed = 1;
nodes = (
"478 0 LINE SMOOTH",
"511 0 OFFCURVE",
"525 35 OFFCURVE",
"525 67 CURVE SMOOTH",
"525 104 OFFCURVE",
"508 136 OFFCURVE",
"478 136 CURVE SMOOTH",
"210 136 LINE",
"210 306 LINE",
"360 306 LINE SMOOTH",
"393 306 OFFCURVE",
"407 338 OFFCURVE",
"407 365 CURVE SMOOTH",
"407 397 OFFCURVE",
"390 426 OFFCURVE",
"360 426 CURVE SMOOTH",
"210 426 LINE",
"210 595 LINE",
"478 595 LINE SMOOTH",
"508 595 OFFCURVE",
"525 627 OFFCURVE",
"525 664 CURVE SMOOTH",
"525 696 OFFCURVE",
"511 731 OFFCURVE",
"478 731 CURVE SMOOTH",
"122 731 LINE SMOOTH",
"88 731 OFFCURVE",
"54 715 OFFCURVE",
"54 683 CURVE SMOOTH",
"54 48 LINE SMOOTH",
"54 16 OFFCURVE",
"88 0 OFFCURVE",
"122 0 CURVE SMOOTH"
);
}
);
width = 539;
}
);
leftKerningGroup = I;
rightKerningGroup = E;
unicode = 0045;
},
{
color = 4;
glyphname = Eacute;
lastChange = "2016-09-01 13:44:24 +0000";
layers = (
{
hints = (
{
place = "{83, 36}";
type = Stem;
},
{
horizontal = 1;
place = "{0, 36}";
type = Stem;
},
{
horizontal = 1;
place = "{348, 36}";
type = Stem;
},
{
horizontal = 1;
place = "{695, 36}";
type = Stem;
},
{
horizontal = 1;
place = "{953, -20}";
target = down;
type = TopGhost;
}
);
layerId = UUID0;
paths = (
{
closed = 1;
nodes = (
"457 0 LINE SMOOTH",
"469 0 OFFCURVE",
"474 9 OFFCURVE",
"474 17 CURVE SMOOTH",
"474 27 OFFCURVE",
"468 36 OFFCURVE",
"457 36 CURVE SMOOTH",
"119 36 LINE",
"119 348 LINE",
"279 348 LINE SMOOTH",
"291 348 OFFCURVE",
"296 357 OFFCURVE",
"296 365 CURVE SMOOTH",
"296 375 OFFCURVE",
"290 384 OFFCURVE",
"279 384 CURVE SMOOTH",
"119 384 LINE",
"119 695 LINE",
"457 695 LINE SMOOTH",
"468 695 OFFCURVE",
"474 704 OFFCURVE",
"474 714 CURVE SMOOTH",
"474 722 OFFCURVE",
"469 731 OFFCURVE",
"457 731 CURVE SMOOTH",
"101 731 LINE SMOOTH",
"92 731 OFFCURVE",
"83 725 OFFCURVE",
"83 713 CURVE SMOOTH",
"83 18 LINE SMOOTH",
"83 6 OFFCURVE",
"92 0 OFFCURVE",
"101 0 CURVE SMOOTH"
);
},
{
closed = 1;
nodes = (
"234 860 OFFCURVE",
"237 861 OFFCURVE",
"240 863 CURVE",
"335 917 LINE SMOOTH",
"342 921 OFFCURVE",
"345 928 OFFCURVE",
"345 935 CURVE SMOOTH",
"345 944 OFFCURVE",
"339 953 OFFCURVE",
"329 953 CURVE SMOOTH",
"327 953 OFFCURVE",
"324 952 OFFCURVE",
"322 951 CURVE",
"220 891 LINE",
"214 888 OFFCURVE",
"212 883 OFFCURVE",
"212 878 CURVE SMOOTH",
"212 868 OFFCURVE",
"221 860 OFFCURVE",
"231 860 CURVE SMOOTH"
);
}
);
width = 498;
},
{
hints = (
{
place = "{54, 156}";
type = Stem;
},
{
place = "{203, 221}";
type = Stem;
},
{
horizontal = 1;
place = "{0, 136}";
type = Stem;
},
{
horizontal = 1;
place = "{306, 120}";
type = Stem;
},
{
horizontal = 1;
place = "{595, 136}";
type = Stem;
},
{
horizontal = 1;
place = "{959, -20}";
target = down;
type = TopGhost;
}
);
layerId = "228CC867-ECE3-4F82-B853-1E58141B916C";
paths = (
{
closed = 1;
nodes = (
"478 0 LINE SMOOTH",
"511 0 OFFCURVE",
"525 35 OFFCURVE",
"525 67 CURVE SMOOTH",
"525 104 OFFCURVE",
"508 136 OFFCURVE",
"478 136 CURVE SMOOTH",
"210 136 LINE",
"210 306 LINE",
"360 306 LINE SMOOTH",
"393 306 OFFCURVE",
"407 338 OFFCURVE",
"407 365 CURVE SMOOTH",
"407 397 OFFCURVE",
"390 426 OFFCURVE",
"360 426 CURVE SMOOTH",
"210 426 LINE",
"210 595 LINE",
"478 595 LINE SMOOTH",
"508 595 OFFCURVE",
"525 627 OFFCURVE",
"525 664 CURVE SMOOTH",
"525 696 OFFCURVE",
"511 731 OFFCURVE",
"478 731 CURVE SMOOTH",
"122 731 LINE SMOOTH",
"88 731 OFFCURVE",
"54 715 OFFCURVE",
"54 683 CURVE SMOOTH",
"54 48 LINE SMOOTH",
"54 16 OFFCURVE",
"88 0 OFFCURVE",
"122 0 CURVE SMOOTH"
);
},
{
closed = 1;
nodes = (
"254 798 OFFCURVE",
"259 800 OFFCURVE",
"264 802 CURVE",
"404 867 LINE SMOOTH",
"418 874 OFFCURVE",
"424 887 OFFCURVE",
"424 901 CURVE SMOOTH",
"424 927 OFFCURVE",
"404 959 OFFCURVE",
"377 959 CURVE SMOOTH",
"373 959 OFFCURVE",
"368 958 OFFCURVE",
"363 956 CURVE",
"223 891 LINE SMOOTH",
"209 884 OFFCURVE",
"203 871 OFFCURVE",
"203 856 CURVE SMOOTH",
"203 830 OFFCURVE",
"223 798 OFFCURVE",
"249 798 CURVE SMOOTH"
);
}
);
width = 539;
}
);
leftKerningGroup = I;
rightKerningGroup = E;
unicode = 00C9;
},
{
glyphname = Ebreve;
lastChange = "2016-08-25 09:49:10 +0000";
layers = (
{
hints = (
{
place = "{83, 36}";
type = Stem;
},
{
place = "{169, 32}";
type = Stem;
},
{
place = "{354, 33}";
type = Stem;
},
{
horizontal = 1;
place = "{0, 36}";
type = Stem;
},
{
horizontal = 1;
place = "{348, 36}";
type = Stem;
},
{
horizontal = 1;
place = "{695, 36}";
type = Stem;
},
{
horizontal = 1;
place = "{860, 26}";
type = Stem;
},
{
horizontal = 1;
place = "{860, 109}";
type = Stem;
}
);
layerId = UUID0;
paths = (
{
closed = 1;
nodes = (
"457 0 LINE SMOOTH",
"469 0 OFFCURVE",
"474 9 OFFCURVE",
"474 17 CURVE SMOOTH",
"474 27 OFFCURVE",
"468 36 OFFCURVE",
"457 36 CURVE SMOOTH",
"119 36 LINE",
"119 348 LINE",
"279 348 LINE SMOOTH",
"291 348 OFFCURVE",
"296 357 OFFCURVE",
"296 365 CURVE SMOOTH",
"296 375 OFFCURVE",
"290 384 OFFCURVE",
"279 384 CURVE SMOOTH",
"119 384 LINE",
"119 695 LINE",
"457 695 LINE SMOOTH",
"468 695 OFFCURVE",
"474 704 OFFCURVE",
"474 714 CURVE SMOOTH",
"474 722 OFFCURVE",
"469 731 OFFCURVE",
"457 731 CURVE SMOOTH",
"101 731 LINE SMOOTH",
"92 731 OFFCURVE",
"83 725 OFFCURVE",
"83 713 CURVE SMOOTH",
"83 18 LINE SMOOTH",
"83 6 OFFCURVE",
"92 0 OFFCURVE",
"101 0 CURVE SMOOTH"
);
},
{
closed = 1;
nodes = (
"335 860 OFFCURVE",
"387 910 OFFCURVE",
"387 969 CURVE",
"354 969 LINE",
"354 923 OFFCURVE",
"319 886 OFFCURVE",
"278 886 CURVE SMOOTH",
"236 886 OFFCURVE",
"201 923 OFFCURVE",
"201 969 CURVE",
"169 969 LINE",
"169 910 OFFCURVE",
"220 860 OFFCURVE",
"278 860 CURVE SMOOTH"
);
}
);
width = 498;
},
{
hints = (
{
place = "{54, 156}";
type = Stem;
},
{
place = "{149, 80}";
type = Stem;
},
{
horizontal = 1;
place = "{0, 136}";
type = Stem;
},
{
horizontal = 1;
place = "{306, 120}";
type = Stem;
},
{
horizontal = 1;
place = "{595, 136}";
type = Stem;
},
{
horizontal = 1;
place = "{824, 66}";
type = Stem;
},
{
horizontal = 1;
place = "{824, 139}";
type = Stem;
}
);
layerId = "228CC867-ECE3-4F82-B853-1E58141B916C";
paths = (
{
closed = 1;
nodes = (
"478 0 LINE SMOOTH",
"511 0 OFFCURVE",
"525 35 OFFCURVE",
"525 67 CURVE SMOOTH",
"525 104 OFFCURVE",
"508 136 OFFCURVE",
"478 136 CURVE SMOOTH",
"210 136 LINE",
"210 306 LINE",
"360 306 LINE SMOOTH",
"393 306 OFFCURVE",
"407 338 OFFCURVE",
"407 365 CURVE SMOOTH",
"407 397 OFFCURVE",
"390 426 OFFCURVE",
"360 426 CURVE SMOOTH",
"210 426 LINE",
"210 595 LINE",
"478 595 LINE SMOOTH",
"508 595 OFFCURVE",
"525 627 OFFCURVE",
"525 664 CURVE SMOOTH",
"525 696 OFFCURVE",
"511 731 OFFCURVE",
"478 731 CURVE SMOOTH",
"122 731 LINE SMOOTH",
"88 731 OFFCURVE",
"54 715 OFFCURVE",
"54 683 CURVE SMOOTH",
"54 48 LINE SMOOTH",
"54 16 OFFCURVE",
"88 0 OFFCURVE",
"122 0 CURVE SMOOTH"
);
},
{
closed = 1;
nodes = (
"360 824 OFFCURVE",
"428 889 OFFCURVE",
"428 963 CURVE",
"348 963 LINE",
"348 920 OFFCURVE",
"317 890 OFFCURVE",
"289 890 CURVE SMOOTH",
"260 890 OFFCURVE",
"229 920 OFFCURVE",
"229 963 CURVE",
"149 963 LINE",
"149 889 OFFCURVE",
"217 824 OFFCURVE",
"289 824 CURVE SMOOTH"
);
}
);
width = 539;
}
);
leftKerningGroup = I;
rightKerningGroup = E;
unicode = 0114;
},
{
glyphname = Ecaron;
lastChange = "2016-08-25 09:49:10 +0000";
layers = (
{
hints = (
{
place = "{83, 36}";
type = Stem;
},
{
horizontal = 1;
place = "{0, 36}";
type = Stem;
},
{
horizontal = 1;
place = "{348, 36}";
type = Stem;
},
{
horizontal = 1;
place = "{695, 36}";
type = Stem;
},
{
horizontal = 1;
place = "{990, -20}";
target = down;
type = TopGhost;
}
);
layerId = UUID0;
paths = (
{
closed = 1;
nodes = (
"457 0 LINE SMOOTH",
"469 0 OFFCURVE",
"474 9 OFFCURVE",
"474 17 CURVE SMOOTH",
"474 27 OFFCURVE",
"468 36 OFFCURVE",
"457 36 CURVE SMOOTH",
"119 36 LINE",
"119 348 LINE",
"279 348 LINE SMOOTH",
"291 348 OFFCURVE",
"296 357 OFFCURVE",
"296 365 CURVE SMOOTH",
"296 375 OFFCURVE",
"290 384 OFFCURVE",
"279 384 CURVE SMOOTH",
"119 384 LINE",
"119 695 LINE",
"457 695 LINE SMOOTH",
"468 695 OFFCURVE",
"474 704 OFFCURVE",
"474 714 CURVE SMOOTH",
"474 722 OFFCURVE",
"469 731 OFFCURVE",
"457 731 CURVE SMOOTH",
"101 731 LINE SMOOTH",
"92 731 OFFCURVE",
"83 725 OFFCURVE",
"83 713 CURVE SMOOTH",
"83 18 LINE SMOOTH",
"83 6 OFFCURVE",
"92 0 OFFCURVE",
"101 0 CURVE SMOOTH"
);
},
{
closed = 1;
nodes = (
"284 847 OFFCURVE",
"291 851 OFFCURVE",
"298 858 CURVE SMOOTH",
"398 959 LINE",
"403 965 OFFCURVE",
"406 970 OFFCURVE",
"406 975 CURVE SMOOTH",
"406 982 OFFCURVE",
"400 990 OFFCURVE",
"391 990 CURVE SMOOTH",
"386 990 OFFCURVE",
"380 988 OFFCURVE",
"375 982 CURVE",
"277 879 LINE",
"179 982 LINE",
"174 988 OFFCURVE",
"168 990 OFFCURVE",
"163 990 CURVE SMOOTH",
"154 990 OFFCURVE",
"148 982 OFFCURVE",
"148 975 CURVE SMOOTH",
"148 970 OFFCURVE",
"151 965 OFFCURVE",
"156 959 CURVE",
"256 858 LINE",
"262 851 OFFCURVE",
"270 847 OFFCURVE",
"277 847 CURVE SMOOTH"
);
}
);
width = 498;
},
{
hints = (
{
place = "{54, 156}";
type = Stem;
},
{
horizontal = 1;
place = "{0, 136}";
type = Stem;
},
{
horizontal = 1;
place = "{306, 120}";
type = Stem;
},
{
horizontal = 1;
place = "{595, 136}";
type = Stem;
},
{
horizontal = 1;
place = "{971, -20}";
target = down;
type = TopGhost;
}
);
layerId = "228CC867-ECE3-4F82-B853-1E58141B916C";
paths = (
{
closed = 1;
nodes = (
"478 0 LINE SMOOTH",
"511 0 OFFCURVE",
"525 35 OFFCURVE",
"525 67 CURVE SMOOTH",
"525 104 OFFCURVE",
"508 136 OFFCURVE",
"478 136 CURVE SMOOTH",
"210 136 LINE",
"210 306 LINE",
"360 306 LINE SMOOTH",
"393 306 OFFCURVE",
"407 338 OFFCURVE",
"407 365 CURVE SMOOTH",
"407 397 OFFCURVE",
"390 426 OFFCURVE",
"360 426 CURVE SMOOTH",
"210 426 LINE",
"210 595 LINE",
"478 595 LINE SMOOTH",
"508 595 OFFCURVE",
"525 627 OFFCURVE",
"525 664 CURVE SMOOTH",
"525 696 OFFCURVE",
"511 731 OFFCURVE",
"478 731 CURVE SMOOTH",
"122 731 LINE SMOOTH",
"88 731 OFFCURVE",
"54 715 OFFCURVE",
"54 683 CURVE SMOOTH",
"54 48 LINE SMOOTH",
"54 16 OFFCURVE",
"88 0 OFFCURVE",
"122 0 CURVE SMOOTH"
);
},
{
closed = 1;
nodes = (
"294 820 OFFCURVE",
"299 822 OFFCURVE",
"305 825 CURVE SMOOTH",
"409 881 LINE SMOOTH",
"427 891 OFFCURVE",
"434 908 OFFCURVE",
"434 925 CURVE SMOOTH",
"434 948 OFFCURVE",
"421 971 OFFCURVE",
"403 971 CURVE SMOOTH",
"400 971 OFFCURVE",
"396 970 OFFCURVE",
"392 968 CURVE SMOOTH",
"288 912 LINE",
"184 968 LINE SMOOTH",
"180 970 OFFCURVE",
"176 971 OFFCURVE",
"173 971 CURVE SMOOTH",
"155 971 OFFCURVE",
"142 948 OFFCURVE",
"142 925 CURVE SMOOTH",
"142 908 OFFCURVE",
"149 891 OFFCURVE",
"167 881 CURVE SMOOTH",
"271 825 LINE SMOOTH",
"277 822 OFFCURVE",
"282 820 OFFCURVE",
"288 820 CURVE SMOOTH"
);
}
);
width = 539;
}
);
leftKerningGroup = I;
rightKerningGroup = E;
unicode = 011A;
},
{
color = 4;
glyphname = Ecircumflex;
lastChange = "2016-09-01 13:44:24 +0000";
layers = (
{
hints = (
{
place = "{83, 36}";
type = Stem;
},
{
horizontal = 1;
place = "{0, 36}";
type = Stem;
},
{
horizontal = 1;
place = "{348, 36}";
type = Stem;
},
{
horizontal = 1;
place = "{695, 36}";
type = Stem;
},
{
horizontal = 1;
place = "{953, -20}";
target = down;
type = TopGhost;
}
);
layerId = UUID0;
paths = (
{
closed = 1;
nodes = (
"457 0 LINE SMOOTH",
"469 0 OFFCURVE",
"474 9 OFFCURVE",
"474 17 CURVE SMOOTH",
"474 27 OFFCURVE",
"468 36 OFFCURVE",
"457 36 CURVE SMOOTH",
"119 36 LINE",
"119 348 LINE",
"279 348 LINE SMOOTH",
"291 348 OFFCURVE",
"296 357 OFFCURVE",
"296 365 CURVE SMOOTH",
"296 375 OFFCURVE",
"290 384 OFFCURVE",
"279 384 CURVE SMOOTH",
"119 384 LINE",
"119 695 LINE",
"457 695 LINE SMOOTH",
"468 695 OFFCURVE",
"474 704 OFFCURVE",
"474 714 CURVE SMOOTH",
"474 722 OFFCURVE",
"469 731 OFFCURVE",
"457 731 CURVE SMOOTH",
"101 731 LINE SMOOTH",
"92 731 OFFCURVE",
"83 725 OFFCURVE",
"83 713 CURVE SMOOTH",
"83 18 LINE SMOOTH",
"83 6 OFFCURVE",
"92 0 OFFCURVE",
"101 0 CURVE SMOOTH"
);
},
{
closed = 1;
nodes = (
"168 859 OFFCURVE",
"171 861 OFFCURVE",
"174 862 CURVE",
"278 918 LINE",
"382 863 LINE",
"385 862 OFFCURVE",
"388 860 OFFCURVE",
"391 860 CURVE SMOOTH",
"400 860 OFFCURVE",
"408 867 OFFCURVE",
"408 876 CURVE SMOOTH",
"408 883 OFFCURVE",
"405 890 OFFCURVE",
"399 893 CURVE SMOOTH",
"295 948 LINE",
"290 951 OFFCURVE",
"284 953 OFFCURVE",
"278 953 CURVE SMOOTH",
"272 953 OFFCURVE",
"266 951 OFFCURVE",
"261 948 CURVE",
"157 892 LINE SMOOTH",
"151 889 OFFCURVE",
"148 883 OFFCURVE",
"148 878 CURVE SMOOTH",
"148 867 OFFCURVE",
"157 859 OFFCURVE",
"166 859 CURVE SMOOTH"
);
}
);
width = 498;
},
{
hints = (
{
place = "{54, 156}";
type = Stem;
},
{
horizontal = 1;
place = "{0, 136}";
type = Stem;
},
{
horizontal = 1;
place = "{306, 120}";
type = Stem;
},
{
horizontal = 1;
place = "{595, 136}";
type = Stem;
},
{
horizontal = 1;
place = "{731, 77}";
type = Stem;
},
{
horizontal = 1;
place = "{426, 169}";
type = Stem;
},
{
horizontal = 1;
place = "{136, 170}";
type = Stem;
},
{
horizontal = 1;
place = "{959, -20}";
target = down;
type = TopGhost;
}
);
layerId = "228CC867-ECE3-4F82-B853-1E58141B916C";
paths = (
{
closed = 1;
nodes = (
"478 0 LINE SMOOTH",
"511 0 OFFCURVE",
"525 35 OFFCURVE",
"525 67 CURVE SMOOTH",
"525 104 OFFCURVE",
"508 136 OFFCURVE",
"478 136 CURVE SMOOTH",
"210 136 LINE",
"210 306 LINE",
"360 306 LINE SMOOTH",
"393 306 OFFCURVE",
"407 338 OFFCURVE",
"407 365 CURVE SMOOTH",
"407 397 OFFCURVE",
"390 426 OFFCURVE",
"360 426 CURVE SMOOTH",
"210 426 LINE",
"210 595 LINE",
"478 595 LINE SMOOTH",
"508 595 OFFCURVE",
"525 627 OFFCURVE",
"525 664 CURVE SMOOTH",
"525 696 OFFCURVE",
"511 731 OFFCURVE",
"478 731 CURVE SMOOTH",
"122 731 LINE SMOOTH",
"88 731 OFFCURVE",
"54 715 OFFCURVE",
"54 683 CURVE SMOOTH",
"54 48 LINE SMOOTH",
"54 16 OFFCURVE",
"88 0 OFFCURVE",
"122 0 CURVE SMOOTH"
);
},
{
closed = 1;
nodes = (
"187 808 OFFCURVE",
"191 809 OFFCURVE",
"195 811 CURVE SMOOTH",
"299 867 LINE",
"403 811 LINE SMOOTH",
"407 809 OFFCURVE",
"411 808 OFFCURVE",
"414 808 CURVE SMOOTH",
"432 808 OFFCURVE",
"445 831 OFFCURVE",
"445 854 CURVE SMOOTH",
"445 871 OFFCURVE",
"438 888 OFFCURVE",
"420 898 CURVE SMOOTH",
"316 954 LINE SMOOTH",
"310 957 OFFCURVE",
"305 959 OFFCURVE",
"299 959 CURVE SMOOTH",
"293 959 OFFCURVE",
"288 957 OFFCURVE",
"282 954 CURVE SMOOTH",
"178 898 LINE SMOOTH",
"160 888 OFFCURVE",
"153 871 OFFCURVE",
"153 854 CURVE SMOOTH",
"153 831 OFFCURVE",
"166 808 OFFCURVE",
"184 808 CURVE SMOOTH"
);
}
);
width = 539;
}
);
leftKerningGroup = I;
rightKerningGroup = E;
unicode = 00CA;
},
{
glyphname = Edieresis;
lastChange = "2016-08-25 09:49:10 +0000";
layers = (
{
hints = (
{
place = "{83, 36}";
type = Stem;
},
{
place = "{193, 59}";
type = Stem;
},
{
place = "{304, 59}";
type = Stem;
},
{
horizontal = 1;
place = "{0, 36}";
type = Stem;
},
{
horizontal = 1;
place = "{348, 36}";
type = Stem;
},
{
horizontal = 1;
place = "{695, 36}";
type = Stem;
},
{
horizontal = 1;
place = "{859, 59}";
type = Stem;
}
);
layerId = UUID0;
paths = (
{
closed = 1;
nodes = (
"457 0 LINE SMOOTH",
"469 0 OFFCURVE",
"474 9 OFFCURVE",
"474 17 CURVE SMOOTH",
"474 27 OFFCURVE",
"468 36 OFFCURVE",
"457 36 CURVE SMOOTH",
"119 36 LINE",
"119 348 LINE",
"279 348 LINE SMOOTH",
"291 348 OFFCURVE",
"296 357 OFFCURVE",
"296 365 CURVE SMOOTH",
"296 375 OFFCURVE",
"290 384 OFFCURVE",
"279 384 CURVE SMOOTH",
"119 384 LINE",
"119 695 LINE",
"457 695 LINE SMOOTH",
"468 695 OFFCURVE",
"474 704 OFFCURVE",
"474 714 CURVE SMOOTH",
"474 722 OFFCURVE",
"469 731 OFFCURVE",
"457 731 CURVE SMOOTH",
"101 731 LINE SMOOTH",
"92 731 OFFCURVE",
"83 725 OFFCURVE",
"83 713 CURVE SMOOTH",
"83 18 LINE SMOOTH",
"83 6 OFFCURVE",
"92 0 OFFCURVE",
"101 0 CURVE SMOOTH"
);
},
{
closed = 1;
nodes = (
"240 859 OFFCURVE",
"252 872 OFFCURVE",
"252 889 CURVE SMOOTH",
"252 906 OFFCURVE",
"240 918 OFFCURVE",
"223 918 CURVE SMOOTH",
"205 918 OFFCURVE",
"193 906 OFFCURVE",
"193 889 CURVE SMOOTH",
"193 872 OFFCURVE",
"205 859 OFFCURVE",
"223 859 CURVE SMOOTH"
);
},
{
closed = 1;
nodes = (
"351 859 OFFCURVE",
"363 872 OFFCURVE",
"363 889 CURVE SMOOTH",
"363 906 OFFCURVE",
"351 918 OFFCURVE",
"334 918 CURVE SMOOTH",
"316 918 OFFCURVE",
"304 906 OFFCURVE",
"304 889 CURVE SMOOTH",
"304 872 OFFCURVE",
"316 859 OFFCURVE",
"334 859 CURVE SMOOTH"
);
}
);
width = 498;
},
{
hints = (
{
place = "{54, 156}";
type = Stem;
},
{
place = "{156, 113}";
type = Stem;
},
{
place = "{316, 113}";
type = Stem;
},
{
horizontal = 1;
place = "{0, 136}";
type = Stem;
},
{
horizontal = 1;
place = "{306, 120}";
type = Stem;
},
{
horizontal = 1;
place = "{595, 136}";
type = Stem;
},
{
horizontal = 1;
place = "{810, 117}";
type = Stem;
}
);
layerId = "228CC867-ECE3-4F82-B853-1E58141B916C";
paths = (
{
closed = 1;
nodes = (
"478 0 LINE SMOOTH",
"511 0 OFFCURVE",
"525 35 OFFCURVE",
"525 67 CURVE SMOOTH",
"525 104 OFFCURVE",
"508 136 OFFCURVE",
"478 136 CURVE SMOOTH",
"210 136 LINE",
"210 306 LINE",
"360 306 LINE SMOOTH",
"393 306 OFFCURVE",
"407 338 OFFCURVE",
"407 365 CURVE SMOOTH",
"407 397 OFFCURVE",
"390 426 OFFCURVE",
"360 426 CURVE SMOOTH",
"210 426 LINE",
"210 595 LINE",
"478 595 LINE SMOOTH",
"508 595 OFFCURVE",
"525 627 OFFCURVE",
"525 664 CURVE SMOOTH",
"525 696 OFFCURVE",
"511 731 OFFCURVE",
"478 731 CURVE SMOOTH",
"122 731 LINE SMOOTH",
"88 731 OFFCURVE",
"54 715 OFFCURVE",
"54 683 CURVE SMOOTH",
"54 48 LINE SMOOTH",
"54 16 OFFCURVE",
"88 0 OFFCURVE",
"122 0 CURVE SMOOTH"
);
},
{
closed = 1;
nodes = (
"244 810 OFFCURVE",
"269 838 OFFCURVE",
"269 869 CURVE SMOOTH",
"269 900 OFFCURVE",
"244 927 OFFCURVE",
"213 927 CURVE SMOOTH",
"182 927 OFFCURVE",
"156 900 OFFCURVE",
"156 869 CURVE SMOOTH",
"156 838 OFFCURVE",
"182 810 OFFCURVE",
"213 810 CURVE SMOOTH"
);
},
{
closed = 1;
nodes = (
"404 810 OFFCURVE",
"429 838 OFFCURVE",
"429 869 CURVE SMOOTH",
"429 900 OFFCURVE",
"404 927 OFFCURVE",
"373 927 CURVE SMOOTH",
"342 927 OFFCURVE",
"316 900 OFFCURVE",
"316 869 CURVE SMOOTH",
"316 838 OFFCURVE",
"342 810 OFFCURVE",
"373 810 CURVE SMOOTH"
);
}
);
width = 539;
}
);
leftKerningGroup = I;
rightKerningGroup = E;
unicode = 00CB;
},
{
glyphname = Edotaccent;
lastChange = "2016-08-25 09:49:10 +0000";
layers = (
{
hints = (
{
place = "{83, 36}";
type = Stem;
},
{
place = "{249, 59}";
type = Stem;
},
{
horizontal = 1;
place = "{0, 36}";
type = Stem;
},
{
horizontal = 1;
place = "{348, 36}";
type = Stem;
},
{
horizontal = 1;
place = "{695, 36}";
type = Stem;
},
{
horizontal = 1;
place = "{859, 59}";
type = Stem;
}
);
layerId = UUID0;
paths = (
{
closed = 1;
nodes = (
"457 0 LINE SMOOTH",
"469 0 OFFCURVE",
"474 9 OFFCURVE",
"474 17 CURVE SMOOTH",
"474 27 OFFCURVE",
"468 36 OFFCURVE",
"457 36 CURVE SMOOTH",
"119 36 LINE",
"119 348 LINE",
"279 348 LINE SMOOTH",
"291 348 OFFCURVE",
"296 357 OFFCURVE",
"296 365 CURVE SMOOTH",
"296 375 OFFCURVE",
"290 384 OFFCURVE",
"279 384 CURVE SMOOTH",
"119 384 LINE",
"119 695 LINE",
"457 695 LINE SMOOTH",
"468 695 OFFCURVE",
"474 704 OFFCURVE",
"474 714 CURVE SMOOTH",
"474 722 OFFCURVE",
"469 731 OFFCURVE",
"457 731 CURVE SMOOTH",
"101 731 LINE SMOOTH",
"92 731 OFFCURVE",
"83 725 OFFCURVE",
"83 713 CURVE SMOOTH",
"83 18 LINE SMOOTH",
"83 6 OFFCURVE",
"92 0 OFFCURVE",
"101 0 CURVE SMOOTH"
);
},
{
closed = 1;
nodes = (
"296 859 OFFCURVE",
"308 872 OFFCURVE",
"308 889 CURVE SMOOTH",
"308 906 OFFCURVE",
"296 918 OFFCURVE",
"279 918 CURVE SMOOTH",
"261 918 OFFCURVE",
"249 906 OFFCURVE",
"249 889 CURVE SMOOTH",
"249 872 OFFCURVE",
"261 859 OFFCURVE",
"279 859 CURVE SMOOTH"
);
}
);
width = 498;
},
{
hints = (
{
place = "{54, 156}";
type = Stem;
},
{
place = "{246, 113}";
type = Stem;
},
{
horizontal = 1;
place = "{0, 136}";
type = Stem;
},
{
horizontal = 1;
place = "{306, 120}";
type = Stem;
},
{
horizontal = 1;
place = "{595, 136}";
type = Stem;
},
{
horizontal = 1;
place = "{810, 117}";
type = Stem;
}
);
layerId = "228CC867-ECE3-4F82-B853-1E58141B916C";
paths = (
{
closed = 1;
nodes = (
"478 0 LINE SMOOTH",
"511 0 OFFCURVE",
"525 35 OFFCURVE",
"525 67 CURVE SMOOTH",
"525 104 OFFCURVE",
"508 136 OFFCURVE",
"478 136 CURVE SMOOTH",
"210 136 LINE",
"210 306 LINE",
"360 306 LINE SMOOTH",
"393 306 OFFCURVE",
"407 338 OFFCURVE",
"407 365 CURVE SMOOTH",
"407 397 OFFCURVE",
"390 426 OFFCURVE",
"360 426 CURVE SMOOTH",
"210 426 LINE",
"210 595 LINE",
"478 595 LINE SMOOTH",
"508 595 OFFCURVE",
"525 627 OFFCURVE",
"525 664 CURVE SMOOTH",
"525 696 OFFCURVE",
"511 731 OFFCURVE",
"478 731 CURVE SMOOTH",
"122 731 LINE SMOOTH",
"88 731 OFFCURVE",
"54 715 OFFCURVE",
"54 683 CURVE SMOOTH",
"54 48 LINE SMOOTH",
"54 16 OFFCURVE",
"88 0 OFFCURVE",
"122 0 CURVE SMOOTH"
);
},
{
closed = 1;
nodes = (
"334 810 OFFCURVE",
"359 838 OFFCURVE",
"359 869 CURVE SMOOTH",
"359 900 OFFCURVE",
"334 927 OFFCURVE",
"303 927 CURVE SMOOTH",
"272 927 OFFCURVE",
"246 900 OFFCURVE",
"246 869 CURVE SMOOTH",
"246 838 OFFCURVE",
"272 810 OFFCURVE",
"303 810 CURVE SMOOTH"
);
}
);
width = 539;
}
);
leftKerningGroup = I;
rightKerningGroup = E;
unicode = 0116;
},
{
color = 4;
glyphname = Egrave;
lastChange = "2016-09-01 13:44:24 +0000";
layers = (
{
hints = (
{
place = "{83, 36}";
type = Stem;
},
{
horizontal = 1;
place = "{0, 36}";
type = Stem;
},
{
horizontal = 1;
place = "{348, 36}";
type = Stem;
},
{
horizontal = 1;
place = "{695, 36}";
type = Stem;
},
{
horizontal = 1;
place = "{953, -20}";
target = down;
type = TopGhost;
}
);
layerId = UUID0;
paths = (
{
closed = 1;
nodes = (
"457 0 LINE SMOOTH",
"469 0 OFFCURVE",
"474 9 OFFCURVE",
"474 17 CURVE SMOOTH",
"474 27 OFFCURVE",
"468 36 OFFCURVE",
"457 36 CURVE SMOOTH",
"119 36 LINE",
"119 348 LINE",
"279 348 LINE SMOOTH",
"291 348 OFFCURVE",
"296 357 OFFCURVE",
"296 365 CURVE SMOOTH",
"296 375 OFFCURVE",
"290 384 OFFCURVE",
"279 384 CURVE SMOOTH",
"119 384 LINE",
"119 695 LINE",
"457 695 LINE SMOOTH",
"468 695 OFFCURVE",
"474 704 OFFCURVE",
"474 714 CURVE SMOOTH",
"474 722 OFFCURVE",
"469 731 OFFCURVE",
"457 731 CURVE SMOOTH",
"101 731 LINE SMOOTH",
"92 731 OFFCURVE",
"83 725 OFFCURVE",
"83 713 CURVE SMOOTH",
"83 18 LINE SMOOTH",
"83 6 OFFCURVE",
"92 0 OFFCURVE",
"101 0 CURVE SMOOTH"
);
},
{
closed = 1;
nodes = (
"336 860 OFFCURVE",
"345 868 OFFCURVE",
"345 878 CURVE SMOOTH",
"345 883 OFFCURVE",
"343 888 OFFCURVE",
"337 891 CURVE",
"235 951 LINE",
"233 952 OFFCURVE",
"230 953 OFFCURVE",
"228 953 CURVE SMOOTH",
"218 953 OFFCURVE",
"212 944 OFFCURVE",
"212 935 CURVE SMOOTH",
"212 928 OFFCURVE",
"215 921 OFFCURVE",
"222 917 CURVE SMOOTH",
"317 863 LINE",
"320 861 OFFCURVE",
"323 860 OFFCURVE",
"326 860 CURVE SMOOTH"
);
}
);
width = 498;
},
{
hints = (
{
place = "{54, 156}";
type = Stem;
},
{
place = "{173, 221}";
type = Stem;
},
{
horizontal = 1;
place = "{0, 136}";
type = Stem;
},
{
horizontal = 1;
place = "{306, 120}";
type = Stem;
},
{
horizontal = 1;
place = "{595, 136}";
type = Stem;
},
{
horizontal = 1;
place = "{959, -20}";
target = down;
type = TopGhost;
}
);
layerId = "228CC867-ECE3-4F82-B853-1E58141B916C";
paths = (
{
closed = 1;
nodes = (
"478 0 LINE SMOOTH",
"511 0 OFFCURVE",
"525 35 OFFCURVE",
"525 67 CURVE SMOOTH",
"525 104 OFFCURVE",
"508 136 OFFCURVE",
"478 136 CURVE SMOOTH",
"210 136 LINE",
"210 306 LINE",
"360 306 LINE SMOOTH",
"393 306 OFFCURVE",
"407 338 OFFCURVE",
"407 365 CURVE SMOOTH",
"407 397 OFFCURVE",
"390 426 OFFCURVE",
"360 426 CURVE SMOOTH",
"210 426 LINE",
"210 595 LINE",
"478 595 LINE SMOOTH",
"508 595 OFFCURVE",
"525 627 OFFCURVE",
"525 664 CURVE SMOOTH",
"525 696 OFFCURVE",
"511 731 OFFCURVE",
"478 731 CURVE SMOOTH",
"122 731 LINE SMOOTH",
"88 731 OFFCURVE",
"54 715 OFFCURVE",
"54 683 CURVE SMOOTH",
"54 48 LINE SMOOTH",
"54 16 OFFCURVE",
"88 0 OFFCURVE",
"122 0 CURVE SMOOTH"
);
},
{
closed = 1;
nodes = (
"374 798 OFFCURVE",
"394 830 OFFCURVE",
"394 856 CURVE SMOOTH",
"394 871 OFFCURVE",
"388 884 OFFCURVE",
"374 891 CURVE SMOOTH",
"234 956 LINE",
"229 958 OFFCURVE",
"224 959 OFFCURVE",
"220 959 CURVE SMOOTH",
"193 959 OFFCURVE",
"173 927 OFFCURVE",
"173 901 CURVE SMOOTH",
"173 887 OFFCURVE",
"179 874 OFFCURVE",
"193 867 CURVE SMOOTH",
"333 802 LINE",
"338 800 OFFCURVE",
"343 798 OFFCURVE",
"348 798 CURVE SMOOTH"
);
}
);
width = 539;
}
);
leftKerningGroup = I;
rightKerningGroup = E;
unicode = 00C8;
},
{
glyphname = Emacron;
lastChange = "2016-08-25 09:49:10 +0000";
layers = (
{
hints = (
{
place = "{83, 36}";
type = Stem;
},
{
horizontal = 1;
place = "{0, 36}";
type = Stem;
},
{
horizontal = 1;
place = "{348, 36}";
type = Stem;
},
{
horizontal = 1;
place = "{695, 36}";
type = Stem;
},
{
horizontal = 1;
place = "{906, 35}";
type = Stem;
}
);
layerId = UUID0;
paths = (
{
closed = 1;
nodes = (
"457 0 LINE SMOOTH",
"469 0 OFFCURVE",
"474 9 OFFCURVE",
"474 17 CURVE SMOOTH",
"474 27 OFFCURVE",
"468 36 OFFCURVE",
"457 36 CURVE SMOOTH",
"119 36 LINE",
"119 348 LINE",
"279 348 LINE SMOOTH",
"291 348 OFFCURVE",
"296 357 OFFCURVE",
"296 365 CURVE SMOOTH",
"296 375 OFFCURVE",
"290 384 OFFCURVE",
"279 384 CURVE SMOOTH",
"119 384 LINE",
"119 695 LINE",
"457 695 LINE SMOOTH",
"468 695 OFFCURVE",
"474 704 OFFCURVE",
"474 714 CURVE SMOOTH",
"474 722 OFFCURVE",
"469 731 OFFCURVE",
"457 731 CURVE SMOOTH",
"101 731 LINE SMOOTH",
"92 731 OFFCURVE",
"83 725 OFFCURVE",
"83 713 CURVE SMOOTH",
"83 18 LINE SMOOTH",
"83 6 OFFCURVE",
"92 0 OFFCURVE",
"101 0 CURVE SMOOTH"
);
},
{
closed = 1;
nodes = (
"388 906 LINE SMOOTH",
"397 906 OFFCURVE",
"406 913 OFFCURVE",
"406 923 CURVE SMOOTH",
"406 933 OFFCURVE",
"397 941 OFFCURVE",
"388 941 CURVE SMOOTH",
"168 941 LINE SMOOTH",
"158 941 OFFCURVE",
"151 933 OFFCURVE",
"151 923 CURVE SMOOTH",
"151 913 OFFCURVE",
"158 906 OFFCURVE",
"168 906 CURVE SMOOTH"
);
}
);
width = 498;
},
{
hints = (
{
place = "{54, 156}";
type = Stem;
},
{
horizontal = 1;
place = "{0, 136}";
type = Stem;
},
{
horizontal = 1;
place = "{306, 120}";
type = Stem;
},
{
horizontal = 1;
place = "{595, 136}";
type = Stem;
},
{
horizontal = 1;
place = "{839, 99}";
type = Stem;
}
);
layerId = "228CC867-ECE3-4F82-B853-1E58141B916C";
paths = (
{
closed = 1;
nodes = (
"478 0 LINE SMOOTH",
"511 0 OFFCURVE",
"525 35 OFFCURVE",
"525 67 CURVE SMOOTH",
"525 104 OFFCURVE",
"508 136 OFFCURVE",
"478 136 CURVE SMOOTH",
"210 136 LINE",
"210 306 LINE",
"360 306 LINE SMOOTH",
"393 306 OFFCURVE",
"407 338 OFFCURVE",
"407 365 CURVE SMOOTH",
"407 397 OFFCURVE",
"390 426 OFFCURVE",
"360 426 CURVE SMOOTH",
"210 426 LINE",
"210 595 LINE",
"478 595 LINE SMOOTH",
"508 595 OFFCURVE",
"525 627 OFFCURVE",
"525 664 CURVE SMOOTH",
"525 696 OFFCURVE",
"511 731 OFFCURVE",
"478 731 CURVE SMOOTH",
"122 731 LINE SMOOTH",
"88 731 OFFCURVE",
"54 715 OFFCURVE",
"54 683 CURVE SMOOTH",
"54 48 LINE SMOOTH",
"54 16 OFFCURVE",
"88 0 OFFCURVE",
"122 0 CURVE SMOOTH"
);
},
{
closed = 1;
nodes = (
"394 839 LINE SMOOTH",
"418 839 OFFCURVE",
"442 859 OFFCURVE",
"442 888 CURVE SMOOTH",
"442 916 OFFCURVE",
"418 938 OFFCURVE",
"394 938 CURVE SMOOTH",
"194 938 LINE SMOOTH",
"166 938 OFFCURVE",
"147 916 OFFCURVE",
"147 888 CURVE SMOOTH",
"147 859 OFFCURVE",
"166 839 OFFCURVE",
"194 839 CURVE SMOOTH"
);
}
);
width = 539;
}
);
leftKerningGroup = I;
rightKerningGroup = E;
unicode = 0112;
},
{
glyphname = Eogonek;
lastChange = "2016-08-25 09:49:10 +0000";
layers = (
{
hints = (
{
place = "{83, 36}";
type = Stem;
},
{
place = "{364, 29}";
type = Stem;
},
{
place = "{364, 110}";
type = Stem;
},
{
horizontal = 1;
place = "{-195, 26}";
type = Stem;
},
{
horizontal = 1;
place = "{0, 36}";
type = Stem;
},
{
horizontal = 1;
place = "{348, 36}";
type = Stem;
},
{
horizontal = 1;
place = "{695, 36}";
type = Stem;
}
);
layerId = UUID0;
paths = (
{
closed = 1;
nodes = (
"468 -195 OFFCURVE",
"474 -192 OFFCURVE",
"474 -182 CURVE SMOOTH",
"474 -172 OFFCURVE",
"466 -169 OFFCURVE",
"456 -169 CURVE SMOOTH",
"418 -169 OFFCURVE",
"393 -159 OFFCURVE",
"393 -126 CURVE SMOOTH",
"393 -74 OFFCURVE",
"424 -37 OFFCURVE",
"464 1 CURVE",
"471 3 OFFCURVE",
"474 11 OFFCURVE",
"474 17 CURVE SMOOTH",
"474 27 OFFCURVE",
"468 36 OFFCURVE",
"457 36 CURVE SMOOTH",
"119 36 LINE",
"119 348 LINE",
"279 348 LINE SMOOTH",
"291 348 OFFCURVE",
"296 357 OFFCURVE",
"296 365 CURVE SMOOTH",
"296 375 OFFCURVE",
"290 384 OFFCURVE",
"279 384 CURVE SMOOTH",
"119 384 LINE",
"119 695 LINE",
"457 695 LINE SMOOTH",
"468 695 OFFCURVE",
"474 704 OFFCURVE",
"474 714 CURVE SMOOTH",
"474 722 OFFCURVE",
"469 731 OFFCURVE",
"457 731 CURVE SMOOTH",
"101 731 LINE SMOOTH",
"92 731 OFFCURVE",
"83 725 OFFCURVE",
"83 713 CURVE SMOOTH",
"83 18 LINE SMOOTH",
"83 6 OFFCURVE",
"92 0 OFFCURVE",
"101 0 CURVE SMOOTH",
"421 0 LINE",
"386 -37 OFFCURVE",
"364 -78 OFFCURVE",
"364 -128 CURVE SMOOTH",
"364 -182 OFFCURVE",
"415 -195 OFFCURVE",
"451 -195 CURVE SMOOTH"
);
}
);
width = 498;
},
{
hints = (
{
place = "{54, 156}";
type = Stem;
},
{
place = "{351, 73}";
type = Stem;
},
{
place = "{351, 156}";
type = Stem;
},
{
horizontal = 1;
place = "{-218, 63}";
type = Stem;
},
{
horizontal = 1;
place = "{0, 136}";
type = Stem;
},
{
horizontal = 1;
place = "{306, 120}";
type = Stem;
},
{
horizontal = 1;
place = "{595, 136}";
type = Stem;
}
);
layerId = "228CC867-ECE3-4F82-B853-1E58141B916C";
paths = (
{
closed = 1;
nodes = (
"502 -218 OFFCURVE",
"507 -204 OFFCURVE",
"507 -189 CURVE SMOOTH",
"507 -174 OFFCURVE",
"501 -155 OFFCURVE",
"482 -155 CURVE SMOOTH",
"440 -155 OFFCURVE",
"424 -135 OFFCURVE",
"424 -107 CURVE SMOOTH",
"424 -71 OFFCURVE",
"452 -25 OFFCURVE",
"491 2 CURVE",
"515 10 OFFCURVE",
"525 40 OFFCURVE",
"525 67 CURVE SMOOTH",
"525 104 OFFCURVE",
"508 136 OFFCURVE",
"478 136 CURVE SMOOTH",
"210 136 LINE",
"210 306 LINE",
"360 306 LINE SMOOTH",
"393 306 OFFCURVE",
"407 338 OFFCURVE",
"407 365 CURVE SMOOTH",
"407 397 OFFCURVE",
"390 426 OFFCURVE",
"360 426 CURVE SMOOTH",
"210 426 LINE",
"210 595 LINE",
"478 595 LINE SMOOTH",
"508 595 OFFCURVE",
"525 627 OFFCURVE",
"525 664 CURVE SMOOTH",
"525 696 OFFCURVE",
"511 731 OFFCURVE",
"478 731 CURVE SMOOTH",
"122 731 LINE SMOOTH",
"88 731 OFFCURVE",
"54 715 OFFCURVE",
"54 683 CURVE SMOOTH",
"54 48 LINE SMOOTH",
"54 16 OFFCURVE",
"88 0 OFFCURVE",
"122 0 CURVE SMOOTH",
"411 0 LINE",
"373 -34 OFFCURVE",
"351 -80 OFFCURVE",
"351 -121 CURVE SMOOTH",
"351 -174 OFFCURVE",
"388 -218 OFFCURVE",
"476 -218 CURVE SMOOTH"
);
}
);
width = 539;
}
);
leftKerningGroup = I;
rightKerningGroup = E;
unicode = 0118;
},
{
glyphname = F;
lastChange = "2016-08-25 09:49:10 +0000";
layers = (
{
background = {
paths = (
{
closed = 1;
nodes = (
"101 731 LINE SMOOTH",
"92 731 OFFCURVE",
"83 725 OFFCURVE",
"83 713 CURVE SMOOTH",
"83 17 LINE SMOOTH",
"83 5 OFFCURVE",
"92 0 OFFCURVE",
"101 0 CURVE SMOOTH",
"110 0 OFFCURVE",
"119 5 OFFCURVE",
"119 17 CURVE SMOOTH",
"119 348 LINE",
"279 348 LINE SMOOTH",
"291 348 OFFCURVE",
"296 357 OFFCURVE",
"296 365 CURVE SMOOTH",
"296 375 OFFCURVE",
"290 384 OFFCURVE",
"279 384 CURVE SMOOTH",
"119 384 LINE",
"119 695 LINE",
"457 695 LINE SMOOTH",
"468 695 OFFCURVE",
"474 704 OFFCURVE",
"474 714 CURVE SMOOTH",
"474 722 OFFCURVE",
"469 731 OFFCURVE",
"457 731 CURVE SMOOTH"
);
}
);
};
hints = (
{
place = "{83, 36}";
type = Stem;
},
{
horizontal = 1;
place = "{348, 36}";
type = Stem;
},
{
horizontal = 1;
place = "{695, 36}";
type = Stem;
},
{
horizontal = 1;
place = "{0, 21}";
target = up;
type = BottomGhost;
}
);
layerId = UUID0;
paths = (
{
closed = 1;
nodes = (
"110 0 OFFCURVE",
"119 5 OFFCURVE",
"119 17 CURVE SMOOTH",
"119 348 LINE",
"279 348 LINE SMOOTH",
"291 348 OFFCURVE",
"296 357 OFFCURVE",
"296 365 CURVE SMOOTH",
"296 375 OFFCURVE",
"290 384 OFFCURVE",
"279 384 CURVE SMOOTH",
"119 384 LINE",
"119 695 LINE",
"457 695 LINE SMOOTH",
"468 695 OFFCURVE",
"474 704 OFFCURVE",
"474 714 CURVE SMOOTH",
"474 722 OFFCURVE",
"469 731 OFFCURVE",
"457 731 CURVE SMOOTH",
"101 731 LINE SMOOTH",
"92 731 OFFCURVE",
"83 725 OFFCURVE",
"83 713 CURVE SMOOTH",
"83 17 LINE SMOOTH",
"83 5 OFFCURVE",
"92 0 OFFCURVE",
"101 0 CURVE SMOOTH"
);
}
);
width = 489;
},
{
background = {
paths = (
{
closed = 1;
nodes = (
"122 731 LINE SMOOTH",
"113 731 OFFCURVE",
"104 725 OFFCURVE",
"104 713 CURVE SMOOTH",
"104 17 LINE SMOOTH",
"104 5 OFFCURVE",
"113 0 OFFCURVE",
"122 0 CURVE SMOOTH",
"131 0 OFFCURVE",
"140 5 OFFCURVE",
"140 17 CURVE SMOOTH",
"140 348 LINE",
"300 348 LINE SMOOTH",
"312 348 OFFCURVE",
"317 357 OFFCURVE",
"317 365 CURVE SMOOTH",
"317 375 OFFCURVE",
"311 384 OFFCURVE",
"300 384 CURVE SMOOTH",
"140 384 LINE",
"140 695 LINE",
"478 695 LINE SMOOTH",
"489 695 OFFCURVE",
"495 704 OFFCURVE",
"495 714 CURVE SMOOTH",
"495 722 OFFCURVE",
"490 731 OFFCURVE",
"478 731 CURVE SMOOTH"
);
}
);
};
hints = (
{
place = "{54, 156}";
type = Stem;
},
{
horizontal = 1;
place = "{306, 120}";
type = Stem;
},
{
horizontal = 1;
place = "{595, 136}";
type = Stem;
},
{
horizontal = 1;
place = "{0, 21}";
target = up;
type = BottomGhost;
}
);
layerId = "228CC867-ECE3-4F82-B853-1E58141B916C";
paths = (
{
closed = 1;
nodes = (
"171 0 OFFCURVE",
"210 16 OFFCURVE",
"210 48 CURVE SMOOTH",
"210 306 LINE",
"361 306 LINE SMOOTH",
"394 306 OFFCURVE",
"408 338 OFFCURVE",
"408 365 CURVE SMOOTH",
"408 397 OFFCURVE",
"391 426 OFFCURVE",
"361 426 CURVE SMOOTH",
"210 426 LINE",
"210 595 LINE",
"469 595 LINE SMOOTH",
"499 595 OFFCURVE",
"516 627 OFFCURVE",
"516 664 CURVE SMOOTH",
"516 696 OFFCURVE",
"502 731 OFFCURVE",
"469 731 CURVE SMOOTH",
"122 731 LINE SMOOTH",
"88 731 OFFCURVE",
"54 715 OFFCURVE",
"54 683 CURVE SMOOTH",
"54 48 LINE SMOOTH",
"54 16 OFFCURVE",
"93 0 OFFCURVE",
"132 0 CURVE SMOOTH"
);
}
);
width = 515;
}
);
leftKerningGroup = I;
unicode = 0046;
},
{
glyphname = G;
lastChange = "2016-08-25 09:49:10 +0000";
layers = (
{
background = {
paths = (
{
closed = 1;
nodes = (
"431 348 LINE",
"431 200 LINE SMOOTH",
"431 84 OFFCURVE",
"371 30 OFFCURVE",
"271 30 CURVE SMOOTH",
"171 30 OFFCURVE",
"112 84 OFFCURVE",
"112 200 CURVE SMOOTH",
"112 525 LINE SMOOTH",
"112 641 OFFCURVE",
"171 695 OFFCURVE",
"271 695 CURVE SMOOTH",
"359 695 OFFCURVE",
"419 654 OFFCURVE",
"431 564 CURVE SMOOTH",
"432 552 OFFCURVE",
"440 546 OFFCURVE",
"449 546 CURVE SMOOTH",
"458 546 OFFCURVE",
"467 552 OFFCURVE",
"467 566 CURVE",
"460 658 OFFCURVE",
"394 731 OFFCURVE",
"271 731 CURVE SMOOTH",
"161 731 OFFCURVE",
"76 675 OFFCURVE",
"76 525 CURVE SMOOTH",
"76 200 LINE SMOOTH",
"76 50 OFFCURVE",
"161 -6 OFFCURVE",
"271 -6 CURVE SMOOTH",
"381 -6 OFFCURVE",
"467 50 OFFCURVE",
"467 200 CURVE SMOOTH",
"467 365 LINE SMOOTH",
"467 375 OFFCURVE",
"461 384 OFFCURVE",
"450 384 CURVE SMOOTH",
"272 384 LINE SMOOTH",
"261 384 OFFCURVE",
"255 375 OFFCURVE",
"255 366 CURVE SMOOTH",
"255 357 OFFCURVE",
"261 348 OFFCURVE",
"272 348 CURVE SMOOTH"
);
}
);
};
hints = (
{
place = "{76, 36}";
type = Stem;
},
{
place = "{431, 36}";
type = Stem;
},
{
horizontal = 1;
place = "{-6, 36}";
type = Stem;
},
{
horizontal = 1;
place = "{348, 36}";
type = Stem;
},
{
horizontal = 1;
place = "{695, 36}";
type = Stem;
}
);
layerId = UUID0;
paths = (
{
closed = 1;
nodes = (
"381 -6 OFFCURVE",
"467 50 OFFCURVE",
"467 200 CURVE SMOOTH",
"467 365 LINE SMOOTH",
"467 375 OFFCURVE",
"461 384 OFFCURVE",
"450 384 CURVE SMOOTH",
"272 384 LINE SMOOTH",
"261 384 OFFCURVE",
"255 375 OFFCURVE",
"255 366 CURVE SMOOTH",
"255 357 OFFCURVE",
"261 348 OFFCURVE",
"272 348 CURVE SMOOTH",
"431 348 LINE",
"431 200 LINE SMOOTH",
"431 84 OFFCURVE",
"371 30 OFFCURVE",
"271 30 CURVE SMOOTH",
"171 30 OFFCURVE",
"112 84 OFFCURVE",
"112 200 CURVE SMOOTH",
"112 525 LINE SMOOTH",
"112 641 OFFCURVE",
"171 695 OFFCURVE",
"271 695 CURVE SMOOTH",
"359 695 OFFCURVE",
"419 654 OFFCURVE",
"431 564 CURVE",
"432 552 OFFCURVE",
"440 546 OFFCURVE",
"449 546 CURVE SMOOTH",
"458 546 OFFCURVE",
"467 552 OFFCURVE",
"467 566 CURVE SMOOTH",
"467 658 OFFCURVE",
"394 731 OFFCURVE",
"271 731 CURVE SMOOTH",
"161 731 OFFCURVE",
"76 675 OFFCURVE",
"76 525 CURVE SMOOTH",
"76 200 LINE SMOOTH",
"76 50 OFFCURVE",
"161 -6 OFFCURVE",
"271 -6 CURVE SMOOTH"
);
}
);
width = 531;
},
{
background = {
paths = (
{
closed = 1;
nodes = (
"436 348 LINE",
"436 200 LINE SMOOTH",
"436 84 OFFCURVE",
"376 30 OFFCURVE",
"276 30 CURVE SMOOTH",
"176 30 OFFCURVE",
"117 84 OFFCURVE",
"117 200 CURVE SMOOTH",
"117 525 LINE SMOOTH",
"117 641 OFFCURVE",
"176 695 OFFCURVE",
"276 695 CURVE SMOOTH",
"364 695 OFFCURVE",
"424 654 OFFCURVE",
"436 564 CURVE SMOOTH",
"437 552 OFFCURVE",
"445 546 OFFCURVE",
"454 546 CURVE SMOOTH",
"463 546 OFFCURVE",
"472 552 OFFCURVE",
"472 566 CURVE",
"465 658 OFFCURVE",
"399 731 OFFCURVE",
"276 731 CURVE SMOOTH",
"166 731 OFFCURVE",
"81 675 OFFCURVE",
"81 525 CURVE SMOOTH",
"81 200 LINE SMOOTH",
"81 50 OFFCURVE",
"166 -6 OFFCURVE",
"276 -6 CURVE SMOOTH",
"386 -6 OFFCURVE",
"472 50 OFFCURVE",
"472 200 CURVE SMOOTH",
"472 365 LINE SMOOTH",
"472 375 OFFCURVE",
"466 384 OFFCURVE",
"455 384 CURVE SMOOTH",
"277 384 LINE SMOOTH",
"266 384 OFFCURVE",
"260 375 OFFCURVE",
"260 366 CURVE SMOOTH",
"260 357 OFFCURVE",
"266 348 OFFCURVE",
"277 348 CURVE SMOOTH"
);
}
);
};
hints = (
{
place = "{46, 156}";
type = Stem;
},
{
place = "{381, 156}";
type = Stem;
},
{
horizontal = 1;
place = "{-6, 136}";
type = Stem;
},
{
horizontal = 1;
place = "{264, 120}";
type = Stem;
},
{
horizontal = 1;
place = "{595, 136}";
type = Stem;
}
);
layerId = "228CC867-ECE3-4F82-B853-1E58141B916C";
paths = (
{
closed = 1;
nodes = (
"429 -6 OFFCURVE",
"537 58 OFFCURVE",
"537 230 CURVE SMOOTH",
"537 335 LINE SMOOTH",
"537 361 OFFCURVE",
"520 384 OFFCURVE",
"490 384 CURVE SMOOTH",
"322 384 LINE SMOOTH",
"292 384 OFFCURVE",
"275 353 OFFCURVE",
"275 324 CURVE SMOOTH",
"275 293 OFFCURVE",
"292 264 OFFCURVE",
"322 264 CURVE SMOOTH",
"381 264 LINE",
"381 230 LINE SMOOTH",
"381 162 OFFCURVE",
"347 130 OFFCURVE",
"291 130 CURVE SMOOTH",
"235 130 OFFCURVE",
"202 162 OFFCURVE",
"202 230 CURVE SMOOTH",
"202 495 LINE SMOOTH",
"202 563 OFFCURVE",
"235 595 OFFCURVE",
"292 595 CURVE SMOOTH",
"377 595 OFFCURVE",
"380 541 OFFCURVE",
"381 505 CURVE SMOOTH",
"382 469 OFFCURVE",
"417 458 OFFCURVE",
"459 458 CURVE SMOOTH",
"512 458 OFFCURVE",
"537 472 OFFCURVE",
"537 532 CURVE SMOOTH",
"537 659 OFFCURVE",
"429 731 OFFCURVE",
"286 731 CURVE SMOOTH",
"155 731 OFFCURVE",
"46 667 OFFCURVE",
"46 495 CURVE SMOOTH",
"46 230 LINE SMOOTH",
"46 58 OFFCURVE",
"153 -6 OFFCURVE",
"291 -6 CURVE SMOOTH"
);
}
);
width = 573;
}
);
leftKerningGroup = O;
rightKerningGroup = G;
unicode = 0047;
},
{
glyphname = Gbreve;
lastChange = "2016-08-25 09:49:10 +0000";
layers = (
{
hints = (
{
place = "{76, 36}";
type = Stem;
},
{
place = "{162, 32}";
type = Stem;
},
{
place = "{347, 33}";
type = Stem;
},
{
place = "{431, 36}";
type = Stem;
},
{
horizontal = 1;
place = "{-6, 36}";
type = Stem;
},
{
horizontal = 1;
place = "{348, 36}";
type = Stem;
},
{
horizontal = 1;
place = "{695, 36}";
type = Stem;
},
{
horizontal = 1;
place = "{860, 26}";
type = Stem;
},
{
horizontal = 1;
place = "{860, 109}";
type = Stem;
}
);
layerId = UUID0;
paths = (
{
closed = 1;
nodes = (
"381 -6 OFFCURVE",
"467 50 OFFCURVE",
"467 200 CURVE SMOOTH",
"467 365 LINE SMOOTH",
"467 375 OFFCURVE",
"461 384 OFFCURVE",
"450 384 CURVE SMOOTH",
"272 384 LINE SMOOTH",
"261 384 OFFCURVE",
"255 375 OFFCURVE",
"255 366 CURVE SMOOTH",
"255 357 OFFCURVE",
"261 348 OFFCURVE",
"272 348 CURVE SMOOTH",
"431 348 LINE",
"431 200 LINE SMOOTH",
"431 84 OFFCURVE",
"371 30 OFFCURVE",
"271 30 CURVE SMOOTH",
"171 30 OFFCURVE",
"112 84 OFFCURVE",
"112 200 CURVE SMOOTH",
"112 525 LINE SMOOTH",
"112 641 OFFCURVE",
"171 695 OFFCURVE",
"271 695 CURVE SMOOTH",
"359 695 OFFCURVE",
"419 654 OFFCURVE",
"431 564 CURVE",
"432 552 OFFCURVE",
"440 546 OFFCURVE",
"449 546 CURVE SMOOTH",
"458 546 OFFCURVE",
"467 552 OFFCURVE",
"467 566 CURVE SMOOTH",
"467 658 OFFCURVE",
"394 731 OFFCURVE",
"271 731 CURVE SMOOTH",
"161 731 OFFCURVE",
"76 675 OFFCURVE",
"76 525 CURVE SMOOTH",
"76 200 LINE SMOOTH",
"76 50 OFFCURVE",
"161 -6 OFFCURVE",
"271 -6 CURVE SMOOTH"
);
},
{
closed = 1;
nodes = (
"328 860 OFFCURVE",
"380 910 OFFCURVE",
"380 969 CURVE",
"347 969 LINE",
"347 923 OFFCURVE",
"312 886 OFFCURVE",
"271 886 CURVE SMOOTH",
"229 886 OFFCURVE",
"194 923 OFFCURVE",
"194 969 CURVE",
"162 969 LINE",
"162 910 OFFCURVE",
"213 860 OFFCURVE",
"271 860 CURVE SMOOTH"
);
}
);
width = 531;
},
{
hints = (
{
place = "{46, 156}";
type = Stem;
},
{
place = "{150, 80}";
type = Stem;
},
{
place = "{381, 156}";
type = Stem;
},
{
horizontal = 1;
place = "{-6, 136}";
type = Stem;
},
{
horizontal = 1;
place = "{264, 120}";
type = Stem;
},
{
horizontal = 1;
place = "{595, 136}";
type = Stem;
},
{
horizontal = 1;
place = "{824, 66}";
type = Stem;
},
{
horizontal = 1;
place = "{824, 139}";
type = Stem;
}
);
layerId = "228CC867-ECE3-4F82-B853-1E58141B916C";
paths = (
{
closed = 1;
nodes = (
"429 -6 OFFCURVE",
"537 58 OFFCURVE",
"537 230 CURVE SMOOTH",
"537 335 LINE SMOOTH",
"537 361 OFFCURVE",
"520 384 OFFCURVE",
"490 384 CURVE SMOOTH",
"322 384 LINE SMOOTH",
"292 384 OFFCURVE",
"275 353 OFFCURVE",
"275 324 CURVE SMOOTH",
"275 293 OFFCURVE",
"292 264 OFFCURVE",
"322 264 CURVE SMOOTH",
"381 264 LINE",
"381 230 LINE SMOOTH",
"381 162 OFFCURVE",
"347 130 OFFCURVE",
"291 130 CURVE SMOOTH",
"235 130 OFFCURVE",
"202 162 OFFCURVE",
"202 230 CURVE SMOOTH",
"202 495 LINE SMOOTH",
"202 563 OFFCURVE",
"235 595 OFFCURVE",
"292 595 CURVE SMOOTH",
"377 595 OFFCURVE",
"380 541 OFFCURVE",
"381 505 CURVE SMOOTH",
"382 469 OFFCURVE",
"417 458 OFFCURVE",
"459 458 CURVE SMOOTH",
"512 458 OFFCURVE",
"537 472 OFFCURVE",
"537 532 CURVE SMOOTH",
"537 659 OFFCURVE",
"429 731 OFFCURVE",
"286 731 CURVE SMOOTH",
"155 731 OFFCURVE",
"46 667 OFFCURVE",
"46 495 CURVE SMOOTH",
"46 230 LINE SMOOTH",
"46 58 OFFCURVE",
"153 -6 OFFCURVE",
"291 -6 CURVE SMOOTH"
);
},
{
closed = 1;
nodes = (
"361 824 OFFCURVE",
"429 889 OFFCURVE",
"429 963 CURVE",
"349 963 LINE",
"349 920 OFFCURVE",
"318 890 OFFCURVE",
"290 890 CURVE SMOOTH",
"261 890 OFFCURVE",
"230 920 OFFCURVE",
"230 963 CURVE",
"150 963 LINE",
"150 889 OFFCURVE",
"218 824 OFFCURVE",
"290 824 CURVE SMOOTH"
);
}
);
width = 573;
}
);
leftKerningGroup = O;
rightKerningGroup = G;
unicode = 011E;
},
{
glyphname = Gcircumflex;
lastChange = "2016-08-25 09:49:10 +0000";
layers = (
{
hints = (
{
place = "{76, 36}";
type = Stem;
},
{
place = "{431, 36}";
type = Stem;
},
{
horizontal = 1;
place = "{-6, 36}";
type = Stem;
},
{
horizontal = 1;
place = "{348, 36}";
type = Stem;
},
{
horizontal = 1;
place = "{695, 36}";
type = Stem;
},
{
horizontal = 1;
place = "{953, -20}";
target = down;
type = TopGhost;
}
);
layerId = UUID0;
paths = (
{
closed = 1;
nodes = (
"381 -6 OFFCURVE",
"467 50 OFFCURVE",
"467 200 CURVE SMOOTH",
"467 365 LINE SMOOTH",
"467 375 OFFCURVE",
"461 384 OFFCURVE",
"450 384 CURVE SMOOTH",
"272 384 LINE SMOOTH",
"261 384 OFFCURVE",
"255 375 OFFCURVE",
"255 366 CURVE SMOOTH",
"255 357 OFFCURVE",
"261 348 OFFCURVE",
"272 348 CURVE SMOOTH",
"431 348 LINE",
"431 200 LINE SMOOTH",
"431 84 OFFCURVE",
"371 30 OFFCURVE",
"271 30 CURVE SMOOTH",
"171 30 OFFCURVE",
"112 84 OFFCURVE",
"112 200 CURVE SMOOTH",
"112 525 LINE SMOOTH",
"112 641 OFFCURVE",
"171 695 OFFCURVE",
"271 695 CURVE SMOOTH",
"359 695 OFFCURVE",
"419 654 OFFCURVE",
"431 564 CURVE",
"432 552 OFFCURVE",
"440 546 OFFCURVE",
"449 546 CURVE SMOOTH",
"458 546 OFFCURVE",
"467 552 OFFCURVE",
"467 566 CURVE SMOOTH",
"467 658 OFFCURVE",
"394 731 OFFCURVE",
"271 731 CURVE SMOOTH",
"161 731 OFFCURVE",
"76 675 OFFCURVE",
"76 525 CURVE SMOOTH",
"76 200 LINE SMOOTH",
"76 50 OFFCURVE",
"161 -6 OFFCURVE",
"271 -6 CURVE SMOOTH"
);
},
{
closed = 1;
nodes = (
"161 859 OFFCURVE",
"164 861 OFFCURVE",
"167 862 CURVE",
"271 918 LINE",
"375 863 LINE",
"378 862 OFFCURVE",
"381 860 OFFCURVE",
"384 860 CURVE SMOOTH",
"393 860 OFFCURVE",
"401 867 OFFCURVE",
"401 876 CURVE SMOOTH",
"401 883 OFFCURVE",
"398 890 OFFCURVE",
"392 893 CURVE SMOOTH",
"288 948 LINE",
"283 951 OFFCURVE",
"277 953 OFFCURVE",
"271 953 CURVE SMOOTH",
"265 953 OFFCURVE",
"259 951 OFFCURVE",
"254 948 CURVE",
"150 892 LINE SMOOTH",
"144 889 OFFCURVE",
"141 883 OFFCURVE",
"141 878 CURVE SMOOTH",
"141 867 OFFCURVE",
"150 859 OFFCURVE",
"159 859 CURVE SMOOTH"
);
}
);
width = 531;
},
{
hints = (
{
place = "{46, 156}";
type = Stem;
},
{
place = "{381, 156}";
type = Stem;
},
{
horizontal = 1;
place = "{-6, 136}";
type = Stem;
},
{
horizontal = 1;
place = "{264, 120}";
type = Stem;
},
{
horizontal = 1;
place = "{595, 136}";
type = Stem;
},
{
horizontal = 1;
place = "{731, 77}";
type = Stem;
},
{
horizontal = 1;
place = "{384, 211}";
type = Stem;
},
{
horizontal = 1;
place = "{384, 74}";
type = Stem;
},
{
horizontal = 1;
place = "{130, 134}";
type = Stem;
},
{
horizontal = 1;
place = "{959, -20}";
target = down;
type = TopGhost;
}
);
layerId = "228CC867-ECE3-4F82-B853-1E58141B916C";
paths = (
{
closed = 1;
nodes = (
"429 -6 OFFCURVE",
"537 58 OFFCURVE",
"537 230 CURVE SMOOTH",
"537 335 LINE SMOOTH",
"537 361 OFFCURVE",
"520 384 OFFCURVE",
"490 384 CURVE SMOOTH",
"322 384 LINE SMOOTH",
"292 384 OFFCURVE",
"275 353 OFFCURVE",
"275 324 CURVE SMOOTH",
"275 293 OFFCURVE",
"292 264 OFFCURVE",
"322 264 CURVE SMOOTH",
"381 264 LINE",
"381 230 LINE SMOOTH",
"381 162 OFFCURVE",
"347 130 OFFCURVE",
"291 130 CURVE SMOOTH",
"235 130 OFFCURVE",
"202 162 OFFCURVE",
"202 230 CURVE SMOOTH",
"202 495 LINE SMOOTH",
"202 563 OFFCURVE",
"235 595 OFFCURVE",
"292 595 CURVE SMOOTH",
"377 595 OFFCURVE",
"380 541 OFFCURVE",
"381 505 CURVE SMOOTH",
"382 469 OFFCURVE",
"417 458 OFFCURVE",
"459 458 CURVE SMOOTH",
"512 458 OFFCURVE",
"537 472 OFFCURVE",
"537 532 CURVE SMOOTH",
"537 659 OFFCURVE",
"429 731 OFFCURVE",
"286 731 CURVE SMOOTH",
"155 731 OFFCURVE",
"46 667 OFFCURVE",
"46 495 CURVE SMOOTH",
"46 230 LINE SMOOTH",
"46 58 OFFCURVE",
"153 -6 OFFCURVE",
"291 -6 CURVE SMOOTH"
);
},
{
closed = 1;
nodes = (
"164 808 OFFCURVE",
"168 809 OFFCURVE",
"172 811 CURVE SMOOTH",
"276 867 LINE",
"380 811 LINE SMOOTH",
"384 809 OFFCURVE",
"388 808 OFFCURVE",
"391 808 CURVE SMOOTH",
"409 808 OFFCURVE",
"422 831 OFFCURVE",
"422 854 CURVE SMOOTH",
"422 871 OFFCURVE",
"415 888 OFFCURVE",
"397 898 CURVE SMOOTH",
"293 954 LINE SMOOTH",
"287 957 OFFCURVE",
"282 959 OFFCURVE",
"276 959 CURVE SMOOTH",
"270 959 OFFCURVE",
"265 957 OFFCURVE",
"259 954 CURVE SMOOTH",
"155 898 LINE SMOOTH",
"137 888 OFFCURVE",
"130 871 OFFCURVE",
"130 854 CURVE SMOOTH",
"130 831 OFFCURVE",
"143 808 OFFCURVE",
"161 808 CURVE SMOOTH"
);
}
);
width = 573;
}
);
leftKerningGroup = O;
rightKerningGroup = G;
unicode = 011C;
},
{
glyphname = Gcommaaccent;
lastChange = "2016-08-25 09:49:10 +0000";
layers = (
{
hints = (
{
place = "{76, 36}";
type = Stem;
},
{
place = "{431, 36}";
type = Stem;
},
{
horizontal = 1;
place = "{-6, 36}";
type = Stem;
},
{
horizontal = 1;
place = "{348, 36}";
type = Stem;
},
{
horizontal = 1;
place = "{695, 36}";
type = Stem;
},
{
horizontal = 1;
place = "{-141, 21}";
target = up;
type = BottomGhost;
}
);
layerId = UUID0;
paths = (
{
closed = 1;
nodes = (
"381 -6 OFFCURVE",
"467 50 OFFCURVE",
"467 200 CURVE SMOOTH",
"467 365 LINE SMOOTH",
"467 375 OFFCURVE",
"461 384 OFFCURVE",
"450 384 CURVE SMOOTH",
"272 384 LINE SMOOTH",
"261 384 OFFCURVE",
"255 375 OFFCURVE",
"255 366 CURVE SMOOTH",
"255 357 OFFCURVE",
"261 348 OFFCURVE",
"272 348 CURVE SMOOTH",
"431 348 LINE",
"431 200 LINE SMOOTH",
"431 84 OFFCURVE",
"371 30 OFFCURVE",
"271 30 CURVE SMOOTH",
"171 30 OFFCURVE",
"112 84 OFFCURVE",
"112 200 CURVE SMOOTH",
"112 525 LINE SMOOTH",
"112 641 OFFCURVE",
"171 695 OFFCURVE",
"271 695 CURVE SMOOTH",
"359 695 OFFCURVE",
"419 654 OFFCURVE",
"431 564 CURVE",
"432 552 OFFCURVE",
"440 546 OFFCURVE",
"449 546 CURVE SMOOTH",
"458 546 OFFCURVE",
"467 552 OFFCURVE",
"467 566 CURVE SMOOTH",
"467 658 OFFCURVE",
"394 731 OFFCURVE",
"271 731 CURVE SMOOTH",
"161 731 OFFCURVE",
"76 675 OFFCURVE",
"76 525 CURVE SMOOTH",
"76 200 LINE SMOOTH",
"76 50 OFFCURVE",
"161 -6 OFFCURVE",
"271 -6 CURVE SMOOTH"
);
},
{
closed = 1;
nodes = (
"224 -141 OFFCURVE",
"227 -140 OFFCURVE",
"230 -138 CURVE",
"325 -84 LINE SMOOTH",
"332 -80 OFFCURVE",
"335 -73 OFFCURVE",
"335 -66 CURVE SMOOTH",
"335 -57 OFFCURVE",
"329 -48 OFFCURVE",
"319 -48 CURVE SMOOTH",
"317 -48 OFFCURVE",
"314 -49 OFFCURVE",
"312 -50 CURVE",
"210 -110 LINE",
"204 -113 OFFCURVE",
"202 -118 OFFCURVE",
"202 -123 CURVE SMOOTH",
"202 -133 OFFCURVE",
"211 -141 OFFCURVE",
"221 -141 CURVE SMOOTH"
);
}
);
width = 531;
},
{
hints = (
{
place = "{46, 156}";
type = Stem;
},
{
place = "{180, 221}";
type = Stem;
},
{
place = "{381, 156}";
type = Stem;
},
{
horizontal = 1;
place = "{-6, 136}";
type = Stem;
},
{
horizontal = 1;
place = "{264, 120}";
type = Stem;
},
{
horizontal = 1;
place = "{595, 136}";
type = Stem;
},
{
horizontal = 1;
place = "{-209, 21}";
target = up;
type = BottomGhost;
}
);
layerId = "228CC867-ECE3-4F82-B853-1E58141B916C";
paths = (
{
closed = 1;
nodes = (
"429 -6 OFFCURVE",
"537 58 OFFCURVE",
"537 230 CURVE SMOOTH",
"537 335 LINE SMOOTH",
"537 361 OFFCURVE",
"520 384 OFFCURVE",
"490 384 CURVE SMOOTH",
"322 384 LINE SMOOTH",
"292 384 OFFCURVE",
"275 353 OFFCURVE",
"275 324 CURVE SMOOTH",
"275 293 OFFCURVE",
"292 264 OFFCURVE",
"322 264 CURVE SMOOTH",
"381 264 LINE",
"381 230 LINE SMOOTH",
"381 162 OFFCURVE",
"347 130 OFFCURVE",
"291 130 CURVE SMOOTH",
"235 130 OFFCURVE",
"202 162 OFFCURVE",
"202 230 CURVE SMOOTH",
"202 495 LINE SMOOTH",
"202 563 OFFCURVE",
"235 595 OFFCURVE",
"292 595 CURVE SMOOTH",
"377 595 OFFCURVE",
"380 541 OFFCURVE",
"381 505 CURVE SMOOTH",
"382 469 OFFCURVE",
"417 458 OFFCURVE",
"459 458 CURVE SMOOTH",
"512 458 OFFCURVE",
"537 472 OFFCURVE",
"537 532 CURVE SMOOTH",
"537 659 OFFCURVE",
"429 731 OFFCURVE",
"286 731 CURVE SMOOTH",
"155 731 OFFCURVE",
"46 667 OFFCURVE",
"46 495 CURVE SMOOTH",
"46 230 LINE SMOOTH",
"46 58 OFFCURVE",
"153 -6 OFFCURVE",
"291 -6 CURVE SMOOTH"
);
},
{
closed = 1;
nodes = (
"231 -209 OFFCURVE",
"236 -207 OFFCURVE",
"241 -205 CURVE",
"381 -140 LINE SMOOTH",
"395 -133 OFFCURVE",
"401 -120 OFFCURVE",
"401 -106 CURVE SMOOTH",
"401 -80 OFFCURVE",
"381 -48 OFFCURVE",
"354 -48 CURVE SMOOTH",
"350 -48 OFFCURVE",
"345 -49 OFFCURVE",
"340 -51 CURVE",
"200 -116 LINE SMOOTH",
"186 -123 OFFCURVE",
"180 -136 OFFCURVE",
"180 -151 CURVE SMOOTH",
"180 -177 OFFCURVE",
"200 -209 OFFCURVE",
"226 -209 CURVE SMOOTH"
);
}
);
width = 573;
}
);
leftKerningGroup = O;
rightKerningGroup = G;
unicode = 0122;
},
{
glyphname = Gdotaccent;
lastChange = "2016-08-25 09:49:10 +0000";
layers = (
{
hints = (
{
place = "{76, 36}";
type = Stem;
},
{
place = "{242, 59}";
type = Stem;
},
{
place = "{431, 36}";
type = Stem;
},
{
horizontal = 1;
place = "{-6, 36}";
type = Stem;
},
{
horizontal = 1;
place = "{348, 36}";
type = Stem;
},
{
horizontal = 1;
place = "{695, 36}";
type = Stem;
},
{
horizontal = 1;
place = "{859, 59}";
type = Stem;
}
);
layerId = UUID0;
paths = (
{
closed = 1;
nodes = (
"381 -6 OFFCURVE",
"467 50 OFFCURVE",
"467 200 CURVE SMOOTH",
"467 365 LINE SMOOTH",
"467 375 OFFCURVE",
"461 384 OFFCURVE",
"450 384 CURVE SMOOTH",
"272 384 LINE SMOOTH",
"261 384 OFFCURVE",
"255 375 OFFCURVE",
"255 366 CURVE SMOOTH",
"255 357 OFFCURVE",
"261 348 OFFCURVE",
"272 348 CURVE SMOOTH",
"431 348 LINE",
"431 200 LINE SMOOTH",
"431 84 OFFCURVE",
"371 30 OFFCURVE",
"271 30 CURVE SMOOTH",
"171 30 OFFCURVE",
"112 84 OFFCURVE",
"112 200 CURVE SMOOTH",
"112 525 LINE SMOOTH",
"112 641 OFFCURVE",
"171 695 OFFCURVE",
"271 695 CURVE SMOOTH",
"359 695 OFFCURVE",
"419 654 OFFCURVE",
"431 564 CURVE",
"432 552 OFFCURVE",
"440 546 OFFCURVE",
"449 546 CURVE SMOOTH",
"458 546 OFFCURVE",
"467 552 OFFCURVE",
"467 566 CURVE SMOOTH",
"467 658 OFFCURVE",
"394 731 OFFCURVE",
"271 731 CURVE SMOOTH",
"161 731 OFFCURVE",
"76 675 OFFCURVE",
"76 525 CURVE SMOOTH",
"76 200 LINE SMOOTH",
"76 50 OFFCURVE",
"161 -6 OFFCURVE",
"271 -6 CURVE SMOOTH"
);
},
{
closed = 1;
nodes = (
"289 859 OFFCURVE",
"301 872 OFFCURVE",
"301 889 CURVE SMOOTH",
"301 906 OFFCURVE",
"289 918 OFFCURVE",
"272 918 CURVE SMOOTH",
"254 918 OFFCURVE",
"242 906 OFFCURVE",
"242 889 CURVE SMOOTH",
"242 872 OFFCURVE",
"254 859 OFFCURVE",
"272 859 CURVE SMOOTH"
);
}
);
width = 531;
},
{
hints = (
{
place = "{46, 156}";
type = Stem;
},
{
place = "{230, 113}";
type = Stem;
},
{
place = "{381, 156}";
type = Stem;
},
{
horizontal = 1;
place = "{-6, 136}";
type = Stem;
},
{
horizontal = 1;
place = "{264, 120}";
type = Stem;
},
{
horizontal = 1;
place = "{595, 136}";
type = Stem;
},
{
horizontal = 1;
place = "{810, 117}";
type = Stem;
}
);
layerId = "228CC867-ECE3-4F82-B853-1E58141B916C";
paths = (
{
closed = 1;
nodes = (
"429 -6 OFFCURVE",
"537 58 OFFCURVE",
"537 230 CURVE SMOOTH",
"537 335 LINE SMOOTH",
"537 361 OFFCURVE",
"520 384 OFFCURVE",
"490 384 CURVE SMOOTH",
"322 384 LINE SMOOTH",
"292 384 OFFCURVE",
"275 353 OFFCURVE",
"275 324 CURVE SMOOTH",
"275 293 OFFCURVE",
"292 264 OFFCURVE",
"322 264 CURVE SMOOTH",
"381 264 LINE",
"381 230 LINE SMOOTH",
"381 162 OFFCURVE",
"347 130 OFFCURVE",
"291 130 CURVE SMOOTH",
"235 130 OFFCURVE",
"202 162 OFFCURVE",
"202 230 CURVE SMOOTH",
"202 495 LINE SMOOTH",
"202 563 OFFCURVE",
"235 595 OFFCURVE",
"292 595 CURVE SMOOTH",
"377 595 OFFCURVE",
"380 541 OFFCURVE",
"381 505 CURVE SMOOTH",
"382 469 OFFCURVE",
"417 458 OFFCURVE",
"459 458 CURVE SMOOTH",
"512 458 OFFCURVE",
"537 472 OFFCURVE",
"537 532 CURVE SMOOTH",
"537 659 OFFCURVE",
"429 731 OFFCURVE",
"286 731 CURVE SMOOTH",
"155 731 OFFCURVE",
"46 667 OFFCURVE",
"46 495 CURVE SMOOTH",
"46 230 LINE SMOOTH",
"46 58 OFFCURVE",
"153 -6 OFFCURVE",
"291 -6 CURVE SMOOTH"
);
},
{
closed = 1;
nodes = (
"318 810 OFFCURVE",
"343 838 OFFCURVE",
"343 869 CURVE SMOOTH",
"343 900 OFFCURVE",
"318 927 OFFCURVE",
"287 927 CURVE SMOOTH",
"256 927 OFFCURVE",
"230 900 OFFCURVE",
"230 869 CURVE SMOOTH",
"230 838 OFFCURVE",
"256 810 OFFCURVE",
"287 810 CURVE SMOOTH"
);
}
);
width = 573;
}
);
leftKerningGroup = O;
rightKerningGroup = G;
unicode = 0120;
},
{
glyphname = H;
lastChange = "2016-08-25 09:49:10 +0000";
layers = (
{
background = {
paths = (
{
closed = 1;
nodes = (
"438 18 LINE SMOOTH",
"438 6 OFFCURVE",
"447 0 OFFCURVE",
"456 0 CURVE SMOOTH",
"465 0 OFFCURVE",
"474 6 OFFCURVE",
"474 18 CURVE SMOOTH",
"474 714 LINE SMOOTH",
"474 726 OFFCURVE",
"465 731 OFFCURVE",
"456 731 CURVE SMOOTH",
"447 731 OFFCURVE",
"438 726 OFFCURVE",
"438 714 CURVE SMOOTH",
"438 397 LINE",
"119 397 LINE",
"119 714 LINE SMOOTH",
"119 726 OFFCURVE",
"110 731 OFFCURVE",
"101 731 CURVE SMOOTH",
"92 731 OFFCURVE",
"83 726 OFFCURVE",
"83 714 CURVE SMOOTH",
"83 18 LINE SMOOTH",
"83 6 OFFCURVE",
"92 0 OFFCURVE",
"101 0 CURVE SMOOTH",
"110 0 OFFCURVE",
"119 6 OFFCURVE",
"119 18 CURVE SMOOTH",
"119 361 LINE",
"438 361 LINE"
);
}
);
};
hints = (
{
place = "{83, 36}";
type = Stem;
},
{
place = "{438, 36}";
type = Stem;
},
{
horizontal = 1;
place = "{361, 36}";
type = Stem;
},
{
horizontal = 1;
place = "{0, 21}";
target = up;
type = BottomGhost;
},
{
horizontal = 1;
place = "{731, -20}";
target = down;
type = TopGhost;
}
);
layerId = UUID0;
paths = (
{
closed = 1;
nodes = (
"110 0 OFFCURVE",
"119 6 OFFCURVE",
"119 18 CURVE SMOOTH",
"119 361 LINE",
"438 361 LINE",
"438 18 LINE SMOOTH",
"438 6 OFFCURVE",
"447 0 OFFCURVE",
"456 0 CURVE SMOOTH",
"465 0 OFFCURVE",
"474 6 OFFCURVE",
"474 18 CURVE SMOOTH",
"474 714 LINE SMOOTH",
"474 726 OFFCURVE",
"465 731 OFFCURVE",
"456 731 CURVE SMOOTH",
"447 731 OFFCURVE",
"438 726 OFFCURVE",
"438 714 CURVE SMOOTH",
"438 397 LINE",
"119 397 LINE",
"119 714 LINE SMOOTH",
"119 726 OFFCURVE",
"110 731 OFFCURVE",
"101 731 CURVE SMOOTH",
"92 731 OFFCURVE",
"83 726 OFFCURVE",
"83 714 CURVE SMOOTH",
"83 18 LINE SMOOTH",
"83 6 OFFCURVE",
"92 0 OFFCURVE",
"101 0 CURVE SMOOTH"
);
}
);
width = 557;
},
{
background = {
paths = (
{
closed = 1;
nodes = (
"469 18 LINE SMOOTH",
"469 6 OFFCURVE",
"478 0 OFFCURVE",
"487 0 CURVE SMOOTH",
"496 0 OFFCURVE",
"505 6 OFFCURVE",
"505 18 CURVE SMOOTH",
"505 714 LINE SMOOTH",
"505 726 OFFCURVE",
"496 731 OFFCURVE",
"487 731 CURVE SMOOTH",
"478 731 OFFCURVE",
"469 726 OFFCURVE",
"469 714 CURVE SMOOTH",
"469 397 LINE",
"150 397 LINE",
"150 714 LINE SMOOTH",
"150 726 OFFCURVE",
"141 731 OFFCURVE",
"132 731 CURVE SMOOTH",
"123 731 OFFCURVE",
"114 726 OFFCURVE",
"114 714 CURVE SMOOTH",
"114 18 LINE SMOOTH",
"114 6 OFFCURVE",
"123 0 OFFCURVE",
"132 0 CURVE SMOOTH",
"141 0 OFFCURVE",
"150 6 OFFCURVE",
"150 18 CURVE SMOOTH",
"150 361 LINE",
"469 361 LINE"
);
}
);
};
hints = (
{
place = "{54, 156}";
type = Stem;
},
{
place = "{409, 156}";
type = Stem;
},
{
horizontal = 1;
place = "{319, 120}";
type = Stem;
},
{
horizontal = 1;
place = "{0, 21}";
target = up;
type = BottomGhost;
},
{
horizontal = 1;
place = "{731, -20}";
target = down;
type = TopGhost;
}
);
layerId = "228CC867-ECE3-4F82-B853-1E58141B916C";
paths = (
{
closed = 1;
nodes = (
"171 0 OFFCURVE",
"210 16 OFFCURVE",
"210 48 CURVE SMOOTH",
"210 319 LINE",
"409 319 LINE",
"409 48 LINE SMOOTH",
"409 16 OFFCURVE",
"448 0 OFFCURVE",
"487 0 CURVE SMOOTH",
"526 0 OFFCURVE",
"565 16 OFFCURVE",
"565 48 CURVE SMOOTH",
"565 684 LINE SMOOTH",
"565 717 OFFCURVE",
"526 731 OFFCURVE",
"487 731 CURVE SMOOTH",
"448 731 OFFCURVE",
"409 717 OFFCURVE",
"409 684 CURVE SMOOTH",
"409 439 LINE",
"210 439 LINE",
"210 684 LINE SMOOTH",
"210 717 OFFCURVE",
"171 731 OFFCURVE",
"132 731 CURVE SMOOTH",
"93 731 OFFCURVE",
"54 717 OFFCURVE",
"54 684 CURVE SMOOTH",
"54 48 LINE SMOOTH",
"54 16 OFFCURVE",
"93 0 OFFCURVE",
"132 0 CURVE SMOOTH"
);
}
);
width = 619;
}
);
leftKerningGroup = I;
rightKerningGroup = I;
unicode = 0048;
},
{
glyphname = Hbar;
lastChange = "2016-08-25 09:49:10 +0000";
layers = (
{
background = {
paths = (
{
closed = 1;
nodes = (
"21 550 OFFCURVE",
"28 543 OFFCURVE",
"38 543 CURVE SMOOTH",
"518 543 LINE SMOOTH",
"527 543 OFFCURVE",
"536 550 OFFCURVE",
"536 560 CURVE SMOOTH",
"536 570 OFFCURVE",
"527 578 OFFCURVE",
"518 578 CURVE SMOOTH",
"38 578 LINE SMOOTH",
"28 578 OFFCURVE",
"21 570 OFFCURVE",
"21 560 CURVE SMOOTH"
);
}
);
};
hints = (
{
place = "{83, 36}";
type = Stem;
},
{
place = "{438, 36}";
type = Stem;
},
{
horizontal = 1;
place = "{361, 36}";
type = Stem;
},
{
horizontal = 1;
place = "{543, 35}";
type = Stem;
},
{
horizontal = 1;
place = "{543, 188}";
type = Stem;
},
{
horizontal = 1;
place = "{0, 21}";
target = up;
type = BottomGhost;
}
);
layerId = UUID0;
paths = (
{
closed = 1;
nodes = (
"110 0 OFFCURVE",
"119 6 OFFCURVE",
"119 18 CURVE SMOOTH",
"119 361 LINE",
"438 361 LINE",
"438 18 LINE SMOOTH",
"438 6 OFFCURVE",
"447 0 OFFCURVE",
"456 0 CURVE SMOOTH",
"465 0 OFFCURVE",
"474 6 OFFCURVE",
"474 18 CURVE SMOOTH",
"474 543 LINE",
"518 543 LINE SMOOTH",
"527 543 OFFCURVE",
"536 550 OFFCURVE",
"536 560 CURVE SMOOTH",
"536 570 OFFCURVE",
"527 578 OFFCURVE",
"518 578 CURVE SMOOTH",
"474 578 LINE",
"474 714 LINE SMOOTH",
"474 726 OFFCURVE",
"465 731 OFFCURVE",
"456 731 CURVE SMOOTH",
"447 731 OFFCURVE",
"438 726 OFFCURVE",
"438 714 CURVE SMOOTH",
"438 578 LINE",
"119 578 LINE",
"119 714 LINE SMOOTH",
"119 726 OFFCURVE",
"110 731 OFFCURVE",
"101 731 CURVE SMOOTH",
"92 731 OFFCURVE",
"83 726 OFFCURVE",
"83 714 CURVE SMOOTH",
"83 578 LINE",
"38 578 LINE SMOOTH",
"28 578 OFFCURVE",
"21 570 OFFCURVE",
"21 560 CURVE SMOOTH",
"21 550 OFFCURVE",
"28 543 OFFCURVE",
"38 543 CURVE SMOOTH",
"83 543 LINE",
"83 18 LINE SMOOTH",
"83 6 OFFCURVE",
"92 0 OFFCURVE",
"101 0 CURVE SMOOTH"
);
},
{
closed = 1;
nodes = (
"119 543 LINE",
"438 543 LINE",
"438 397 LINE",
"119 397 LINE"
);
}
);
width = 557;
},
{
background = {
paths = (
{
closed = 1;
nodes = (
"54 550 OFFCURVE",
"61 543 OFFCURVE",
"71 543 CURVE SMOOTH",
"551 543 LINE SMOOTH",
"560 543 OFFCURVE",
"569 550 OFFCURVE",
"569 560 CURVE SMOOTH",
"569 570 OFFCURVE",
"560 578 OFFCURVE",
"551 578 CURVE SMOOTH",
"71 578 LINE SMOOTH",
"61 578 OFFCURVE",
"54 570 OFFCURVE",
"54 560 CURVE SMOOTH"
);
}
);
};
hints = (
{
place = "{15, 197}";
type = Stem;
},
{
place = "{56, 156}";
type = Stem;
},
{
place = "{411, 156}";
type = Stem;
},
{
place = "{411, 196}";
type = Stem;
},
{
horizontal = 1;
place = "{319, 120}";
type = Stem;
},
{
horizontal = 1;
place = "{532, 98}";
type = Stem;
},
{
horizontal = 1;
place = "{532, 199}";
type = Stem;
},
{
horizontal = 1;
place = "{0, 21}";
target = up;
type = BottomGhost;
}
);
layerId = "228CC867-ECE3-4F82-B853-1E58141B916C";
paths = (
{
closed = 1;
nodes = (
"173 0 OFFCURVE",
"212 16 OFFCURVE",
"212 48 CURVE SMOOTH",
"212 319 LINE",
"411 319 LINE",
"411 48 LINE SMOOTH",
"411 16 OFFCURVE",
"450 0 OFFCURVE",
"489 0 CURVE SMOOTH",
"528 0 OFFCURVE",
"567 16 OFFCURVE",
"567 48 CURVE SMOOTH",
"567 532 LINE",
"571 532 LINE SMOOTH",
"596 532 OFFCURVE",
"607 555 OFFCURVE",
"607 581 CURVE SMOOTH",
"607 605 OFFCURVE",
"596 630 OFFCURVE",
"571 630 CURVE SMOOTH",
"567 630 LINE",
"567 684 LINE SMOOTH",
"567 717 OFFCURVE",
"528 731 OFFCURVE",
"489 731 CURVE SMOOTH",
"450 731 OFFCURVE",
"411 717 OFFCURVE",
"411 684 CURVE SMOOTH",
"411 630 LINE",
"212 630 LINE",
"212 684 LINE SMOOTH",
"212 717 OFFCURVE",
"173 731 OFFCURVE",
"134 731 CURVE SMOOTH",
"95 731 OFFCURVE",
"56 717 OFFCURVE",
"56 684 CURVE SMOOTH",
"56 630 LINE",
"52 630 LINE SMOOTH",
"27 630 OFFCURVE",
"15 605 OFFCURVE",
"15 581 CURVE SMOOTH",
"15 556 OFFCURVE",
"27 532 OFFCURVE",
"52 532 CURVE SMOOTH",
"56 532 LINE",
"56 48 LINE SMOOTH",
"56 16 OFFCURVE",
"95 0 OFFCURVE",
"134 0 CURVE SMOOTH"
);
},
{
closed = 1;
nodes = (
"212 532 LINE",
"411 532 LINE",
"411 439 LINE",
"212 439 LINE"
);
}
);
width = 623;
}
);
leftKerningGroup = I;
rightKerningGroup = I;
unicode = 0126;
},
{
glyphname = Hcircumflex;
lastChange = "2016-08-25 09:49:10 +0000";
layers = (
{
hints = (
{
place = "{83, 36}";
type = Stem;
},
{
place = "{438, 36}";
type = Stem;
},
{
horizontal = 1;
place = "{361, 36}";
type = Stem;
},
{
horizontal = 1;
place = "{0, 21}";
target = up;
type = BottomGhost;
},
{
horizontal = 1;
place = "{731, -20}";
target = down;
type = TopGhost;
},
{
horizontal = 1;
place = "{953, -20}";
target = down;
type = TopGhost;
}
);
layerId = UUID0;
paths = (
{
closed = 1;
nodes = (
"110 0 OFFCURVE",
"119 6 OFFCURVE",
"119 18 CURVE SMOOTH",
"119 361 LINE",
"438 361 LINE",
"438 18 LINE SMOOTH",
"438 6 OFFCURVE",
"447 0 OFFCURVE",
"456 0 CURVE SMOOTH",
"465 0 OFFCURVE",
"474 6 OFFCURVE",
"474 18 CURVE SMOOTH",
"474 714 LINE SMOOTH",
"474 726 OFFCURVE",
"465 731 OFFCURVE",
"456 731 CURVE SMOOTH",
"447 731 OFFCURVE",
"438 726 OFFCURVE",
"438 714 CURVE SMOOTH",
"438 397 LINE",
"119 397 LINE",
"119 714 LINE SMOOTH",
"119 726 OFFCURVE",
"110 731 OFFCURVE",
"101 731 CURVE SMOOTH",
"92 731 OFFCURVE",
"83 726 OFFCURVE",
"83 714 CURVE SMOOTH",
"83 18 LINE SMOOTH",
"83 6 OFFCURVE",
"92 0 OFFCURVE",
"101 0 CURVE SMOOTH"
);
},
{
closed = 1;
nodes = (
"169 859 OFFCURVE",
"172 861 OFFCURVE",
"175 862 CURVE",
"279 918 LINE",
"383 863 LINE",
"386 862 OFFCURVE",
"389 860 OFFCURVE",
"392 860 CURVE SMOOTH",
"401 860 OFFCURVE",
"409 867 OFFCURVE",
"409 876 CURVE SMOOTH",
"409 883 OFFCURVE",
"406 890 OFFCURVE",
"400 893 CURVE SMOOTH",
"296 948 LINE",
"291 951 OFFCURVE",
"285 953 OFFCURVE",
"279 953 CURVE SMOOTH",
"273 953 OFFCURVE",
"267 951 OFFCURVE",
"262 948 CURVE",
"158 892 LINE SMOOTH",
"152 889 OFFCURVE",
"149 883 OFFCURVE",
"149 878 CURVE SMOOTH",
"149 867 OFFCURVE",
"158 859 OFFCURVE",
"167 859 CURVE SMOOTH"
);
}
);
width = 557;
},
{
hints = (
{
place = "{54, 156}";
type = Stem;
},
{
place = "{409, 156}";
type = Stem;
},
{
horizontal = 1;
place = "{319, 120}";
type = Stem;
},
{
horizontal = 1;
place = "{731, 77}";
type = Stem;
},
{
horizontal = 1;
place = "{0, 21}";
target = up;
type = BottomGhost;
},
{
horizontal = 1;
place = "{959, -20}";
target = down;
type = TopGhost;
}
);
layerId = "228CC867-ECE3-4F82-B853-1E58141B916C";
paths = (
{
closed = 1;
nodes = (
"171 0 OFFCURVE",
"210 16 OFFCURVE",
"210 48 CURVE SMOOTH",
"210 319 LINE",
"409 319 LINE",
"409 48 LINE SMOOTH",
"409 16 OFFCURVE",
"448 0 OFFCURVE",
"487 0 CURVE SMOOTH",
"526 0 OFFCURVE",
"565 16 OFFCURVE",
"565 48 CURVE SMOOTH",
"565 684 LINE SMOOTH",
"565 717 OFFCURVE",
"526 731 OFFCURVE",
"487 731 CURVE SMOOTH",
"448 731 OFFCURVE",
"409 717 OFFCURVE",
"409 684 CURVE SMOOTH",
"409 439 LINE",
"210 439 LINE",
"210 684 LINE SMOOTH",
"210 717 OFFCURVE",
"171 731 OFFCURVE",
"132 731 CURVE SMOOTH",
"93 731 OFFCURVE",
"54 717 OFFCURVE",
"54 684 CURVE SMOOTH",
"54 48 LINE SMOOTH",
"54 16 OFFCURVE",
"93 0 OFFCURVE",
"132 0 CURVE SMOOTH"
);
},
{
closed = 1;
nodes = (
"198 808 OFFCURVE",
"202 809 OFFCURVE",
"206 811 CURVE SMOOTH",
"310 867 LINE",
"414 811 LINE SMOOTH",
"418 809 OFFCURVE",
"422 808 OFFCURVE",
"425 808 CURVE SMOOTH",
"443 808 OFFCURVE",
"456 831 OFFCURVE",
"456 854 CURVE SMOOTH",
"456 871 OFFCURVE",
"449 888 OFFCURVE",
"431 898 CURVE SMOOTH",
"327 954 LINE SMOOTH",
"321 957 OFFCURVE",
"316 959 OFFCURVE",
"310 959 CURVE SMOOTH",
"304 959 OFFCURVE",
"299 957 OFFCURVE",
"293 954 CURVE SMOOTH",
"189 898 LINE SMOOTH",
"171 888 OFFCURVE",
"164 871 OFFCURVE",
"164 854 CURVE SMOOTH",
"164 831 OFFCURVE",
"177 808 OFFCURVE",
"195 808 CURVE SMOOTH"
);
}
);
width = 619;
}
);
leftKerningGroup = I;
rightKerningGroup = I;
unicode = 0124;
},
{
glyphname = I;
lastChange = "2016-09-01 13:30:52 +0000";
layers = (
{
anchors = (
{
name = bottom;
position = "{101, 0}";
},
{
name = ogonek;
position = "{182, 10}";
},
{
name = top;
position = "{101, 731}";
},
{
name = topleft;
position = "{20, 731}";
}
);
background = {
paths = (
{
closed = 1;
nodes = (
"83 18 LINE SMOOTH",
"83 6 OFFCURVE",
"92 0 OFFCURVE",
"101 0 CURVE SMOOTH",
"110 0 OFFCURVE",
"119 6 OFFCURVE",
"119 18 CURVE SMOOTH",
"119 714 LINE SMOOTH",
"119 726 OFFCURVE",
"110 731 OFFCURVE",
"101 731 CURVE SMOOTH",
"92 731 OFFCURVE",
"83 726 OFFCURVE",
"83 714 CURVE SMOOTH"
);
}
);
};
hints = (
{
place = "{83, 36}";
type = Stem;
},
{
horizontal = 1;
place = "{0, 21}";
target = up;
type = BottomGhost;
},
{
horizontal = 1;
place = "{731, -20}";
target = down;
type = TopGhost;
}
);
layerId = UUID0;
paths = (
{
closed = 1;
nodes = (
"110 0 OFFCURVE",
"119 6 OFFCURVE",
"119 18 CURVE SMOOTH",
"119 714 LINE SMOOTH",
"119 726 OFFCURVE",
"110 731 OFFCURVE",
"101 731 CURVE SMOOTH",
"92 731 OFFCURVE",
"83 726 OFFCURVE",
"83 714 CURVE SMOOTH",
"83 18 LINE SMOOTH",
"83 6 OFFCURVE",
"92 0 OFFCURVE",
"101 0 CURVE SMOOTH"
);
}
);
width = 202;
},
{
anchors = (
{
name = bottom;
position = "{132, 0}";
},
{
name = ogonek;
position = "{238, 10}";
},
{
name = top;
position = "{132, 731}";
},
{
name = topleft;
position = "{20, 731}";
}
);
background = {
paths = (
{
closed = 1;
nodes = (
"114 18 LINE SMOOTH",
"114 6 OFFCURVE",
"123 0 OFFCURVE",
"132 0 CURVE SMOOTH",
"141 0 OFFCURVE",
"150 6 OFFCURVE",
"150 18 CURVE SMOOTH",
"150 714 LINE SMOOTH",
"150 726 OFFCURVE",
"141 731 OFFCURVE",
"132 731 CURVE SMOOTH",
"123 731 OFFCURVE",
"114 726 OFFCURVE",
"114 714 CURVE SMOOTH"
);
}
);
};
hints = (
{
place = "{54, 156}";
type = Stem;
},
{
horizontal = 1;
place = "{0, 21}";
target = up;
type = BottomGhost;
},
{
horizontal = 1;
place = "{731, -20}";
target = down;
type = TopGhost;
}
);
layerId = "228CC867-ECE3-4F82-B853-1E58141B916C";
paths = (
{
closed = 1;
nodes = (
"171 0 OFFCURVE",
"210 16 OFFCURVE",
"210 48 CURVE SMOOTH",
"210 684 LINE SMOOTH",
"210 717 OFFCURVE",
"171 731 OFFCURVE",
"132 731 CURVE SMOOTH",
"93 731 OFFCURVE",
"54 717 OFFCURVE",
"54 684 CURVE SMOOTH",
"54 48 LINE SMOOTH",
"54 16 OFFCURVE",
"93 0 OFFCURVE",
"132 0 CURVE SMOOTH"
);
}
);
width = 264;
}
);
leftKerningGroup = I;
rightKerningGroup = I;
unicode = 0049;
},
{
glyphname = IJ;
lastChange = "2016-08-25 09:49:10 +0000";
layers = (
{
hints = (
{
place = "{83, 36}";
type = Stem;
},
{
place = "{226, 36}";
type = Stem;
},
{
place = "{581, 36}";
type = Stem;
},
{
horizontal = 1;
place = "{-6, 36}";
type = Stem;
},
{
horizontal = 1;
place = "{695, 36}";
type = Stem;
},
{
horizontal = 1;
place = "{0, 21}";
target = up;
type = BottomGhost;
}
);
layerId = UUID0;
paths = (
{
closed = 1;
nodes = (
"532 -6 OFFCURVE",
"617 50 OFFCURVE",
"617 200 CURVE SMOOTH",
"617 713 LINE SMOOTH",
"617 725 OFFCURVE",
"608 731 OFFCURVE",
"599 731 CURVE SMOOTH",
"422 731 LINE SMOOTH",
"410 731 OFFCURVE",
"405 722 OFFCURVE",
"405 714 CURVE SMOOTH",
"405 704 OFFCURVE",
"411 695 OFFCURVE",
"422 695 CURVE SMOOTH",
"581 695 LINE",
"581 200 LINE SMOOTH",
"581 84 OFFCURVE",
"522 30 OFFCURVE",
"422 30 CURVE SMOOTH",
"334 30 OFFCURVE",
"262 72 OFFCURVE",
"262 161 CURVE SMOOTH",
"262 173 OFFCURVE",
"252 179 OFFCURVE",
"243 179 CURVE SMOOTH",
"234 179 OFFCURVE",
"226 173 OFFCURVE",
"226 159 CURVE SMOOTH",
"226 67 OFFCURVE",
"299 -6 OFFCURVE",
"422 -6 CURVE SMOOTH"
);
},
{
closed = 1;
nodes = (
"110 0 OFFCURVE",
"119 6 OFFCURVE",
"119 18 CURVE SMOOTH",
"119 714 LINE SMOOTH",
"119 726 OFFCURVE",
"110 731 OFFCURVE",
"101 731 CURVE SMOOTH",
"92 731 OFFCURVE",
"83 726 OFFCURVE",
"83 714 CURVE SMOOTH",
"83 18 LINE SMOOTH",
"83 6 OFFCURVE",
"92 0 OFFCURVE",
"101 0 CURVE SMOOTH"
);
}
);
width = 696;
},
{
hints = (
{
place = "{54, 156}";
type = Stem;
},
{
place = "{263, 156}";
type = Stem;
},
{
place = "{598, 156}";
type = Stem;
},
{
horizontal = 1;
place = "{-6, 136}";
type = Stem;
},
{
horizontal = 1;
place = "{595, 136}";
type = Stem;
},
{
horizontal = 1;
place = "{0, 21}";
target = up;
type = BottomGhost;
}
);
layerId = "228CC867-ECE3-4F82-B853-1E58141B916C";
paths = (
{
closed = 1;
nodes = (
"645 -6 OFFCURVE",
"754 58 OFFCURVE",
"754 230 CURVE SMOOTH",
"754 683 LINE SMOOTH",
"754 715 OFFCURVE",
"720 731 OFFCURVE",
"686 731 CURVE SMOOTH",
"511 731 LINE SMOOTH",
"478 731 OFFCURVE",
"464 696 OFFCURVE",
"464 664 CURVE SMOOTH",
"464 627 OFFCURVE",
"481 595 OFFCURVE",
"511 595 CURVE SMOOTH",
"598 595 LINE",
"598 230 LINE SMOOTH",
"598 162 OFFCURVE",
"565 130 OFFCURVE",
"507 130 CURVE SMOOTH",
"427 130 OFFCURVE",
"422 191 OFFCURVE",
"419 230 CURVE SMOOTH",
"416 267 OFFCURVE",
"382 277 OFFCURVE",
"342 277 CURVE SMOOTH",
"288 277 OFFCURVE",
"263 263 OFFCURVE",
"263 203 CURVE SMOOTH",
"263 70 OFFCURVE",
"371 -6 OFFCURVE",
"514 -6 CURVE SMOOTH"
);
},
{
closed = 1;
nodes = (
"171 0 OFFCURVE",
"210 16 OFFCURVE",
"210 48 CURVE SMOOTH",
"210 684 LINE SMOOTH",
"210 717 OFFCURVE",
"171 731 OFFCURVE",
"132 731 CURVE SMOOTH",
"93 731 OFFCURVE",
"54 717 OFFCURVE",
"54 684 CURVE SMOOTH",
"54 48 LINE SMOOTH",
"54 16 OFFCURVE",
"93 0 OFFCURVE",
"132 0 CURVE SMOOTH"
);
}
);
width = 805;
}
);
rightKerningGroup = J;
unicode = 0132;
},
{
color = 4;
glyphname = Iacute;
lastChange = "2016-09-01 13:44:24 +0000";
layers = (
{
hints = (
{
place = "{83, 36}";
type = Stem;
},
{
horizontal = 1;
place = "{0, 21}";
target = up;
type = BottomGhost;
},
{
horizontal = 1;
place = "{731, -20}";
target = down;
type = TopGhost;
},
{
horizontal = 1;
place = "{953, -20}";
target = down;
type = TopGhost;
}
);
layerId = UUID0;
paths = (
{
closed = 1;
nodes = (
"110 0 OFFCURVE",
"119 6 OFFCURVE",
"119 18 CURVE SMOOTH",
"119 714 LINE SMOOTH",
"119 726 OFFCURVE",
"110 731 OFFCURVE",
"101 731 CURVE SMOOTH",
"92 731 OFFCURVE",
"83 726 OFFCURVE",
"83 714 CURVE SMOOTH",
"83 18 LINE SMOOTH",
"83 6 OFFCURVE",
"92 0 OFFCURVE",
"101 0 CURVE SMOOTH"
);
},
{
closed = 1;
nodes = (
"56 860 OFFCURVE",
"59 861 OFFCURVE",
"62 863 CURVE",
"157 917 LINE SMOOTH",
"164 921 OFFCURVE",
"167 928 OFFCURVE",
"167 935 CURVE SMOOTH",
"167 944 OFFCURVE",
"161 953 OFFCURVE",
"151 953 CURVE SMOOTH",
"149 953 OFFCURVE",
"146 952 OFFCURVE",
"144 951 CURVE",
"42 891 LINE",
"36 888 OFFCURVE",
"34 883 OFFCURVE",
"34 878 CURVE SMOOTH",
"34 868 OFFCURVE",
"43 860 OFFCURVE",
"53 860 CURVE SMOOTH"
);
}
);
width = 202;
},
{
hints = (
{
place = "{31, 221}";
type = Stem;
},
{
place = "{54, 156}";
type = Stem;
},
{
horizontal = 1;
place = "{0, 21}";
target = up;
type = BottomGhost;
},
{
horizontal = 1;
place = "{731, -20}";
target = down;
type = TopGhost;
},
{
horizontal = 1;
place = "{959, -20}";
target = down;
type = TopGhost;
}
);
layerId = "228CC867-ECE3-4F82-B853-1E58141B916C";
paths = (
{
closed = 1;
nodes = (
"171 0 OFFCURVE",
"210 16 OFFCURVE",
"210 48 CURVE SMOOTH",
"210 684 LINE SMOOTH",
"210 717 OFFCURVE",
"171 731 OFFCURVE",
"132 731 CURVE SMOOTH",
"93 731 OFFCURVE",
"54 717 OFFCURVE",
"54 684 CURVE SMOOTH",
"54 48 LINE SMOOTH",
"54 16 OFFCURVE",
"93 0 OFFCURVE",
"132 0 CURVE SMOOTH"
);
},
{
closed = 1;
nodes = (
"82 798 OFFCURVE",
"87 800 OFFCURVE",
"92 802 CURVE",
"232 867 LINE SMOOTH",
"246 874 OFFCURVE",
"252 887 OFFCURVE",
"252 901 CURVE SMOOTH",
"252 927 OFFCURVE",
"232 959 OFFCURVE",
"205 959 CURVE SMOOTH",
"201 959 OFFCURVE",
"196 958 OFFCURVE",
"191 956 CURVE",
"51 891 LINE SMOOTH",
"37 884 OFFCURVE",
"31 871 OFFCURVE",
"31 856 CURVE SMOOTH",
"31 830 OFFCURVE",
"51 798 OFFCURVE",
"77 798 CURVE SMOOTH"
);
}
);
width = 264;
}
);
leftKerningGroup = I;
rightKerningGroup = I;
unicode = 00CD;
},
{
glyphname = Ibreve;
lastChange = "2016-08-25 09:49:10 +0000";
layers = (
{
hints = (
{
place = "{-8, 32}";
type = Stem;
},
{
place = "{83, 36}";
type = Stem;
},
{
place = "{177, 33}";
type = Stem;
},
{
horizontal = 1;
place = "{860, 26}";
type = Stem;
},
{
horizontal = 1;
place = "{860, 109}";
type = Stem;
},
{
horizontal = 1;
place = "{0, 21}";
target = up;
type = BottomGhost;
},
{
horizontal = 1;
place = "{731, -20}";
target = down;
type = TopGhost;
}
);
layerId = UUID0;
paths = (
{
closed = 1;
nodes = (
"110 0 OFFCURVE",
"119 6 OFFCURVE",
"119 18 CURVE SMOOTH",
"119 714 LINE SMOOTH",
"119 726 OFFCURVE",
"110 731 OFFCURVE",
"101 731 CURVE SMOOTH",
"92 731 OFFCURVE",
"83 726 OFFCURVE",
"83 714 CURVE SMOOTH",
"83 18 LINE SMOOTH",
"83 6 OFFCURVE",
"92 0 OFFCURVE",
"101 0 CURVE SMOOTH"
);
},
{
closed = 1;
nodes = (
"158 860 OFFCURVE",
"210 910 OFFCURVE",
"210 969 CURVE",
"177 969 LINE",
"177 923 OFFCURVE",
"142 886 OFFCURVE",
"101 886 CURVE SMOOTH",
"59 886 OFFCURVE",
"24 923 OFFCURVE",
"24 969 CURVE",
"-8 969 LINE",
"-8 910 OFFCURVE",
"43 860 OFFCURVE",
"101 860 CURVE SMOOTH"
);
}
);
width = 202;
},
{
hints = (
{
place = "{-7, 80}";
type = Stem;
},
{
place = "{54, 156}";
type = Stem;
},
{
horizontal = 1;
place = "{824, 66}";
type = Stem;
},
{
horizontal = 1;
place = "{824, 139}";
type = Stem;
},
{
horizontal = 1;
place = "{0, 21}";
target = up;
type = BottomGhost;
},
{
horizontal = 1;
place = "{731, -20}";
target = down;
type = TopGhost;
}
);
layerId = "228CC867-ECE3-4F82-B853-1E58141B916C";
paths = (
{
closed = 1;
nodes = (
"171 0 OFFCURVE",
"210 16 OFFCURVE",
"210 48 CURVE SMOOTH",
"210 684 LINE SMOOTH",
"210 717 OFFCURVE",
"171 731 OFFCURVE",
"132 731 CURVE SMOOTH",
"93 731 OFFCURVE",
"54 717 OFFCURVE",
"54 684 CURVE SMOOTH",
"54 48 LINE SMOOTH",
"54 16 OFFCURVE",
"93 0 OFFCURVE",
"132 0 CURVE SMOOTH"
);
},
{
closed = 1;
nodes = (
"204 824 OFFCURVE",
"272 889 OFFCURVE",
"272 963 CURVE",
"192 963 LINE",
"192 920 OFFCURVE",
"161 890 OFFCURVE",
"133 890 CURVE SMOOTH",
"104 890 OFFCURVE",
"73 920 OFFCURVE",
"73 963 CURVE",
"-7 963 LINE",
"-7 889 OFFCURVE",
"61 824 OFFCURVE",
"133 824 CURVE SMOOTH"
);
}
);
width = 264;
}
);
leftKerningGroup = I;
rightKerningGroup = I;
unicode = 012C;
},
{
glyphname = Icircumflex;
lastChange = "2016-08-25 09:49:10 +0000";
layers = (
{
hints = (
{
place = "{83, 36}";
type = Stem;
},
{
horizontal = 1;
place = "{0, 21}";
target = up;
type = BottomGhost;
},
{
horizontal = 1;
place = "{731, -20}";
target = down;
type = TopGhost;
},
{
horizontal = 1;
place = "{953, -20}";
target = down;
type = TopGhost;
}
);
layerId = UUID0;
paths = (
{
closed = 1;
nodes = (
"110 0 OFFCURVE",
"119 6 OFFCURVE",
"119 18 CURVE SMOOTH",
"119 714 LINE SMOOTH",
"119 726 OFFCURVE",
"110 731 OFFCURVE",
"101 731 CURVE SMOOTH",
"92 731 OFFCURVE",
"83 726 OFFCURVE",
"83 714 CURVE SMOOTH",
"83 18 LINE SMOOTH",
"83 6 OFFCURVE",
"92 0 OFFCURVE",
"101 0 CURVE SMOOTH"
);
},
{
closed = 1;
nodes = (
"-9 859 OFFCURVE",
"-6 861 OFFCURVE",
"-3 862 CURVE",
"101 918 LINE",
"205 863 LINE",
"208 862 OFFCURVE",
"211 860 OFFCURVE",
"214 860 CURVE SMOOTH",
"223 860 OFFCURVE",
"231 867 OFFCURVE",
"231 876 CURVE SMOOTH",
"231 883 OFFCURVE",
"228 890 OFFCURVE",
"222 893 CURVE SMOOTH",
"118 948 LINE",
"113 951 OFFCURVE",
"107 953 OFFCURVE",
"101 953 CURVE SMOOTH",
"95 953 OFFCURVE",
"89 951 OFFCURVE",
"84 948 CURVE",
"-20 892 LINE SMOOTH",
"-26 889 OFFCURVE",
"-29 883 OFFCURVE",
"-29 878 CURVE SMOOTH",
"-29 867 OFFCURVE",
"-20 859 OFFCURVE",
"-11 859 CURVE SMOOTH"
);
}
);
width = 202;
},
{
hints = (
{
place = "{54, 156}";
type = Stem;
},
{
horizontal = 1;
place = "{0, 21}";
target = up;
type = BottomGhost;
},
{
horizontal = 1;
place = "{731, -20}";
target = down;
type = TopGhost;
},
{
horizontal = 1;
place = "{959, -20}";
target = down;
type = TopGhost;
}
);
layerId = "228CC867-ECE3-4F82-B853-1E58141B916C";
paths = (
{
closed = 1;
nodes = (
"171 0 OFFCURVE",
"210 16 OFFCURVE",
"210 48 CURVE SMOOTH",
"210 684 LINE SMOOTH",
"210 717 OFFCURVE",
"171 731 OFFCURVE",
"132 731 CURVE SMOOTH",
"93 731 OFFCURVE",
"54 717 OFFCURVE",
"54 684 CURVE SMOOTH",
"54 48 LINE SMOOTH",
"54 16 OFFCURVE",
"93 0 OFFCURVE",
"132 0 CURVE SMOOTH"
);
},
{
closed = 1;
nodes = (
"22 808 OFFCURVE",
"26 809 OFFCURVE",
"30 811 CURVE SMOOTH",
"134 867 LINE",
"238 811 LINE SMOOTH",
"242 809 OFFCURVE",
"246 808 OFFCURVE",
"249 808 CURVE SMOOTH",
"267 808 OFFCURVE",
"280 831 OFFCURVE",
"280 854 CURVE SMOOTH",
"280 871 OFFCURVE",
"273 888 OFFCURVE",
"255 898 CURVE SMOOTH",
"151 954 LINE SMOOTH",
"145 957 OFFCURVE",
"140 959 OFFCURVE",
"134 959 CURVE SMOOTH",
"128 959 OFFCURVE",
"123 957 OFFCURVE",
"117 954 CURVE SMOOTH",
"13 898 LINE SMOOTH",
"-5 888 OFFCURVE",
"-12 871 OFFCURVE",
"-12 854 CURVE SMOOTH",
"-12 831 OFFCURVE",
"1 808 OFFCURVE",
"19 808 CURVE SMOOTH"
);
}
);
width = 264;
}
);
leftKerningGroup = I;
rightKerningGroup = I;
unicode = 00CE;
},
{
glyphname = Idieresis;
lastChange = "2016-08-25 09:49:10 +0000";
layers = (
{
hints = (
{
place = "{16, 59}";
type = Stem;
},
{
place = "{83, 36}";
type = Stem;
},
{
place = "{127, 59}";
type = Stem;
},
{
horizontal = 1;
place = "{859, 59}";
type = Stem;
},
{
horizontal = 1;
place = "{0, 21}";
target = up;
type = BottomGhost;
},
{
horizontal = 1;
place = "{731, -20}";
target = down;
type = TopGhost;
}
);
layerId = UUID0;
paths = (
{
closed = 1;
nodes = (
"110 0 OFFCURVE",
"119 6 OFFCURVE",
"119 18 CURVE SMOOTH",
"119 714 LINE SMOOTH",
"119 726 OFFCURVE",
"110 731 OFFCURVE",
"101 731 CURVE SMOOTH",
"92 731 OFFCURVE",
"83 726 OFFCURVE",
"83 714 CURVE SMOOTH",
"83 18 LINE SMOOTH",
"83 6 OFFCURVE",
"92 0 OFFCURVE",
"101 0 CURVE SMOOTH"
);
},
{
closed = 1;
nodes = (
"63 859 OFFCURVE",
"75 872 OFFCURVE",
"75 889 CURVE SMOOTH",
"75 906 OFFCURVE",
"63 918 OFFCURVE",
"46 918 CURVE SMOOTH",
"28 918 OFFCURVE",
"16 906 OFFCURVE",
"16 889 CURVE SMOOTH",
"16 872 OFFCURVE",
"28 859 OFFCURVE",
"46 859 CURVE SMOOTH"
);
},
{
closed = 1;
nodes = (
"174 859 OFFCURVE",
"186 872 OFFCURVE",
"186 889 CURVE SMOOTH",
"186 906 OFFCURVE",
"174 918 OFFCURVE",
"157 918 CURVE SMOOTH",
"139 918 OFFCURVE",
"127 906 OFFCURVE",
"127 889 CURVE SMOOTH",
"127 872 OFFCURVE",
"139 859 OFFCURVE",
"157 859 CURVE SMOOTH"
);
}
);
width = 202;
},
{
hints = (
{
place = "{-3, 113}";
type = Stem;
},
{
place = "{54, 156}";
type = Stem;
},
{
place = "{157, 113}";
type = Stem;
},
{
horizontal = 1;
place = "{810, 117}";
type = Stem;
},
{
horizontal = 1;
place = "{0, 21}";
target = up;
type = BottomGhost;
},
{
horizontal = 1;
place = "{731, -20}";
target = down;
type = TopGhost;
}
);
layerId = "228CC867-ECE3-4F82-B853-1E58141B916C";
paths = (
{
closed = 1;
nodes = (
"171 0 OFFCURVE",
"210 16 OFFCURVE",
"210 48 CURVE SMOOTH",
"210 684 LINE SMOOTH",
"210 717 OFFCURVE",
"171 731 OFFCURVE",
"132 731 CURVE SMOOTH",
"93 731 OFFCURVE",
"54 717 OFFCURVE",
"54 684 CURVE SMOOTH",
"54 48 LINE SMOOTH",
"54 16 OFFCURVE",
"93 0 OFFCURVE",
"132 0 CURVE SMOOTH"
);
},
{
closed = 1;
nodes = (
"85 810 OFFCURVE",
"110 838 OFFCURVE",
"110 869 CURVE SMOOTH",
"110 900 OFFCURVE",
"85 927 OFFCURVE",
"54 927 CURVE SMOOTH",
"23 927 OFFCURVE",
"-3 900 OFFCURVE",
"-3 869 CURVE SMOOTH",
"-3 838 OFFCURVE",
"23 810 OFFCURVE",
"54 810 CURVE SMOOTH"
);
},
{
closed = 1;
nodes = (
"245 810 OFFCURVE",
"270 838 OFFCURVE",
"270 869 CURVE SMOOTH",
"270 900 OFFCURVE",
"245 927 OFFCURVE",
"214 927 CURVE SMOOTH",
"183 927 OFFCURVE",
"157 900 OFFCURVE",
"157 869 CURVE SMOOTH",
"157 838 OFFCURVE",
"183 810 OFFCURVE",
"214 810 CURVE SMOOTH"
);
}
);
width = 264;
}
);
leftKerningGroup = I;
rightKerningGroup = I;
unicode = 00CF;
},
{
glyphname = Idotaccent;
lastChange = "2016-08-25 09:49:10 +0000";
layers = (
{
hints = (
{
place = "{71, 48}";
type = Stem;
},
{
place = "{83, 36}";
type = Stem;
},
{
horizontal = 1;
place = "{859, 59}";
type = Stem;
},
{
horizontal = 1;
place = "{0, 21}";
target = up;
type = BottomGhost;
},
{
horizontal = 1;
place = "{731, -20}";
target = down;
type = TopGhost;
}
);
layerId = UUID0;
paths = (
{
closed = 1;
nodes = (
"110 0 OFFCURVE",
"119 6 OFFCURVE",
"119 18 CURVE SMOOTH",
"119 714 LINE SMOOTH",
"119 726 OFFCURVE",
"110 731 OFFCURVE",
"101 731 CURVE SMOOTH",
"92 731 OFFCURVE",
"83 726 OFFCURVE",
"83 714 CURVE SMOOTH",
"83 18 LINE SMOOTH",
"83 6 OFFCURVE",
"92 0 OFFCURVE",
"101 0 CURVE SMOOTH"
);
},
{
closed = 1;
nodes = (
"118 859 OFFCURVE",
"130 872 OFFCURVE",
"130 889 CURVE SMOOTH",
"130 906 OFFCURVE",
"118 918 OFFCURVE",
"101 918 CURVE SMOOTH",
"83 918 OFFCURVE",
"71 906 OFFCURVE",
"71 889 CURVE SMOOTH",
"71 872 OFFCURVE",
"83 859 OFFCURVE",
"101 859 CURVE SMOOTH"
);
}
);
width = 202;
},
{
hints = (
{
place = "{54, 156}";
type = Stem;
},
{
place = "{76, 113}";
type = Stem;
},
{
horizontal = 1;
place = "{810, 117}";
type = Stem;
},
{
horizontal = 1;
place = "{0, 21}";
target = up;
type = BottomGhost;
},
{
horizontal = 1;
place = "{731, -20}";
target = down;
type = TopGhost;
}
);
layerId = "228CC867-ECE3-4F82-B853-1E58141B916C";
paths = (
{
closed = 1;
nodes = (
"171 0 OFFCURVE",
"210 16 OFFCURVE",
"210 48 CURVE SMOOTH",
"210 684 LINE SMOOTH",
"210 717 OFFCURVE",
"171 731 OFFCURVE",
"132 731 CURVE SMOOTH",
"93 731 OFFCURVE",
"54 717 OFFCURVE",
"54 684 CURVE SMOOTH",
"54 48 LINE SMOOTH",
"54 16 OFFCURVE",
"93 0 OFFCURVE",
"132 0 CURVE SMOOTH"
);
},
{
closed = 1;
nodes = (
"164 810 OFFCURVE",
"189 838 OFFCURVE",
"189 869 CURVE SMOOTH",
"189 900 OFFCURVE",
"164 927 OFFCURVE",
"133 927 CURVE SMOOTH",
"102 927 OFFCURVE",
"76 900 OFFCURVE",
"76 869 CURVE SMOOTH",
"76 838 OFFCURVE",
"102 810 OFFCURVE",
"133 810 CURVE SMOOTH"
);
}
);
width = 264;
}
);
leftKerningGroup = I;
rightKerningGroup = I;
unicode = 0130;
},
{
color = 4;
glyphname = Igrave;
lastChange = "2016-09-01 13:44:24 +0000";
layers = (
{
hints = (
{
place = "{83, 36}";
type = Stem;
},
{
horizontal = 1;
place = "{0, 21}";
target = up;
type = BottomGhost;
},
{
horizontal = 1;
place = "{731, -20}";
target = down;
type = TopGhost;
},
{
horizontal = 1;
place = "{953, -20}";
target = down;
type = TopGhost;
}
);
layerId = UUID0;
paths = (
{
closed = 1;
nodes = (
"110 0 OFFCURVE",
"119 6 OFFCURVE",
"119 18 CURVE SMOOTH",
"119 714 LINE SMOOTH",
"119 726 OFFCURVE",
"110 731 OFFCURVE",
"101 731 CURVE SMOOTH",
"92 731 OFFCURVE",
"83 726 OFFCURVE",
"83 714 CURVE SMOOTH",
"83 18 LINE SMOOTH",
"83 6 OFFCURVE",
"92 0 OFFCURVE",
"101 0 CURVE SMOOTH"
);
},
{
closed = 1;
nodes = (
"158 860 OFFCURVE",
"167 868 OFFCURVE",
"167 878 CURVE SMOOTH",
"167 883 OFFCURVE",
"165 888 OFFCURVE",
"159 891 CURVE",
"57 951 LINE",
"55 952 OFFCURVE",
"52 953 OFFCURVE",
"50 953 CURVE SMOOTH",
"40 953 OFFCURVE",
"34 944 OFFCURVE",
"34 935 CURVE SMOOTH",
"34 928 OFFCURVE",
"37 921 OFFCURVE",
"44 917 CURVE SMOOTH",
"139 863 LINE",
"142 861 OFFCURVE",
"145 860 OFFCURVE",
"148 860 CURVE SMOOTH"
);
}
);
width = 202;
},
{
hints = (
{
place = "{13, 221}";
type = Stem;
},
{
place = "{54, 156}";
type = Stem;
},
{
horizontal = 1;
place = "{0, 21}";
target = up;
type = BottomGhost;
},
{
horizontal = 1;
place = "{731, -20}";
target = down;
type = TopGhost;
},
{
horizontal = 1;
place = "{959, -20}";
target = down;
type = TopGhost;
}
);
layerId = "228CC867-ECE3-4F82-B853-1E58141B916C";
paths = (
{
closed = 1;
nodes = (
"171 0 OFFCURVE",
"210 16 OFFCURVE",
"210 48 CURVE SMOOTH",
"210 684 LINE SMOOTH",
"210 717 OFFCURVE",
"171 731 OFFCURVE",
"132 731 CURVE SMOOTH",
"93 731 OFFCURVE",
"54 717 OFFCURVE",
"54 684 CURVE SMOOTH",
"54 48 LINE SMOOTH",
"54 16 OFFCURVE",
"93 0 OFFCURVE",
"132 0 CURVE SMOOTH"
);
},
{
closed = 1;
nodes = (
"214 798 OFFCURVE",
"234 830 OFFCURVE",
"234 856 CURVE SMOOTH",
"234 871 OFFCURVE",
"228 884 OFFCURVE",
"214 891 CURVE SMOOTH",
"74 956 LINE",
"69 958 OFFCURVE",
"64 959 OFFCURVE",
"60 959 CURVE SMOOTH",
"33 959 OFFCURVE",
"13 927 OFFCURVE",
"13 901 CURVE SMOOTH",
"13 887 OFFCURVE",
"19 874 OFFCURVE",
"33 867 CURVE SMOOTH",
"173 802 LINE",
"178 800 OFFCURVE",
"183 798 OFFCURVE",
"188 798 CURVE SMOOTH"
);
}
);
width = 264;
}
);
leftKerningGroup = I;
rightKerningGroup = I;
unicode = 00CC;
},
{
glyphname = Imacron;
lastChange = "2016-08-25 09:49:10 +0000";
layers = (
{
hints = (
{
place = "{83, 36}";
type = Stem;
},
{
horizontal = 1;
place = "{906, 35}";
type = Stem;
},
{
horizontal = 1;
place = "{0, 21}";
target = up;
type = BottomGhost;
},
{
horizontal = 1;
place = "{731, -20}";
target = down;
type = TopGhost;
}
);
layerId = UUID0;
paths = (
{
closed = 1;
nodes = (
"110 0 OFFCURVE",
"119 6 OFFCURVE",
"119 18 CURVE SMOOTH",
"119 714 LINE SMOOTH",
"119 726 OFFCURVE",
"110 731 OFFCURVE",
"101 731 CURVE SMOOTH",
"92 731 OFFCURVE",
"83 726 OFFCURVE",
"83 714 CURVE SMOOTH",
"83 18 LINE SMOOTH",
"83 6 OFFCURVE",
"92 0 OFFCURVE",
"101 0 CURVE SMOOTH"
);
},
{
closed = 1;
nodes = (
"211 906 LINE SMOOTH",
"220 906 OFFCURVE",
"229 913 OFFCURVE",
"229 923 CURVE SMOOTH",
"229 933 OFFCURVE",
"220 941 OFFCURVE",
"211 941 CURVE SMOOTH",
"-9 941 LINE SMOOTH",
"-19 941 OFFCURVE",
"-26 933 OFFCURVE",
"-26 923 CURVE SMOOTH",
"-26 913 OFFCURVE",
"-19 906 OFFCURVE",
"-9 906 CURVE SMOOTH"
);
}
);
width = 202;
},
{
hints = (
{
place = "{54, 156}";
type = Stem;
},
{
horizontal = 1;
place = "{839, 99}";
type = Stem;
},
{
horizontal = 1;
place = "{0, 21}";
target = up;
type = BottomGhost;
},
{
horizontal = 1;
place = "{731, -20}";
target = down;
type = TopGhost;
}
);
layerId = "228CC867-ECE3-4F82-B853-1E58141B916C";
paths = (
{
closed = 1;
nodes = (
"171 0 OFFCURVE",
"210 16 OFFCURVE",
"210 48 CURVE SMOOTH",
"210 684 LINE SMOOTH",
"210 717 OFFCURVE",
"171 731 OFFCURVE",
"132 731 CURVE SMOOTH",
"93 731 OFFCURVE",
"54 717 OFFCURVE",
"54 684 CURVE SMOOTH",
"54 48 LINE SMOOTH",
"54 16 OFFCURVE",
"93 0 OFFCURVE",
"132 0 CURVE SMOOTH"
);
},
{
closed = 1;
nodes = (
"231 839 LINE SMOOTH",
"255 839 OFFCURVE",
"279 859 OFFCURVE",
"279 888 CURVE SMOOTH",
"279 916 OFFCURVE",
"255 938 OFFCURVE",
"231 938 CURVE SMOOTH",
"31 938 LINE SMOOTH",
"3 938 OFFCURVE",
"-16 916 OFFCURVE",
"-16 888 CURVE SMOOTH",
"-16 859 OFFCURVE",
"3 839 OFFCURVE",
"31 839 CURVE SMOOTH"
);
}
);
width = 264;
}
);
leftKerningGroup = I;
rightKerningGroup = I;
unicode = 012A;
},
{
glyphname = Iogonek;
lastChange = "2016-09-01 12:17:50 +0000";
layers = (
{
hints = (
{
place = "{15, 29}";
type = Stem;
},
{
place = "{84, 36}";
type = Stem;
},
{
horizontal = 1;
place = "{-190, 26}";
type = Stem;
},
{
horizontal = 1;
place = "{731, -20}";
target = down;
type = TopGhost;
}
);
layerId = UUID0;
paths = (
{
closed = 1;
nodes = (
"119 -190 OFFCURVE",
"125 -187 OFFCURVE",
"125 -177 CURVE SMOOTH",
"125 -167 OFFCURVE",
"117 -164 OFFCURVE",
"107 -164 CURVE SMOOTH",
"69 -164 OFFCURVE",
"44 -154 OFFCURVE",
"44 -121 CURVE SMOOTH",
"44 -71 OFFCURVE",
"73 -35 OFFCURVE",
"111 2 CURVE",
"116 5 OFFCURVE",
"120 10 OFFCURVE",
"120 18 CURVE SMOOTH",
"120 714 LINE SMOOTH",
"120 726 OFFCURVE",
"111 731 OFFCURVE",
"102 731 CURVE SMOOTH",
"93 731 OFFCURVE",
"84 726 OFFCURVE",
"84 714 CURVE SMOOTH",
"84 40 LINE",
"84 32 OFFCURVE",
"84 25 OFFCURVE",
"84 17 CURVE",
"43 -23 OFFCURVE",
"15 -67 OFFCURVE",
"15 -123 CURVE SMOOTH",
"15 -177 OFFCURVE",
"66 -190 OFFCURVE",
"102 -190 CURVE SMOOTH"
);
}
);
width = 203;
},
{
hints = (
{
place = "{26, 73}";
type = Stem;
},
{
place = "{54, 156}";
type = Stem;
},
{
place = "{26, 156}";
type = Stem;
},
{
horizontal = 1;
place = "{-218, 63}";
type = Stem;
},
{
horizontal = 1;
place = "{731, -20}";
target = down;
type = TopGhost;
}
);
layerId = "228CC867-ECE3-4F82-B853-1E58141B916C";
paths = (
{
closed = 1;
nodes = (
"177 -218 OFFCURVE",
"182 -204 OFFCURVE",
"182 -189 CURVE SMOOTH",
"182 -174 OFFCURVE",
"176 -155 OFFCURVE",
"157 -155 CURVE SMOOTH",
"115 -155 OFFCURVE",
"99 -135 OFFCURVE",
"99 -107 CURVE SMOOTH",
"99 -69 OFFCURVE",
"131 -18 OFFCURVE",
"174 7 CURVE",
"195 14 OFFCURVE",
"210 28 OFFCURVE",
"210 48 CURVE SMOOTH",
"210 684 LINE SMOOTH",
"210 717 OFFCURVE",
"171 731 OFFCURVE",
"132 731 CURVE SMOOTH",
"93 731 OFFCURVE",
"54 717 OFFCURVE",
"54 684 CURVE SMOOTH",
"54 48 LINE SMOOTH",
"54 27 OFFCURVE",
"70 13 OFFCURVE",
"92 6 CURVE",
"50 -29 OFFCURVE",
"26 -78 OFFCURVE",
"26 -121 CURVE SMOOTH",
"26 -174 OFFCURVE",
"63 -218 OFFCURVE",
"151 -218 CURVE SMOOTH"
);
}
);
width = 264;
}
);
leftKerningGroup = I;
rightKerningGroup = I;
unicode = 012E;
},
{
color = 4;
glyphname = Itilde;
lastChange = "2016-09-01 13:44:24 +0000";
layers = (
{
hints = (
{
place = "{83, 36}";
type = Stem;
},
{
horizontal = 1;
place = "{878, 34}";
type = Stem;
},
{
horizontal = 1;
place = "{915, 34}";
type = Stem;
},
{
horizontal = 1;
place = "{0, 21}";
target = up;
type = BottomGhost;
},
{
horizontal = 1;
place = "{731, -20}";
target = down;
type = TopGhost;
}
);
layerId = UUID0;
paths = (
{
closed = 1;
nodes = (
"110 0 OFFCURVE",
"119 6 OFFCURVE",
"119 18 CURVE SMOOTH",
"119 714 LINE SMOOTH",
"119 726 OFFCURVE",
"110 731 OFFCURVE",
"101 731 CURVE SMOOTH",
"92 731 OFFCURVE",
"83 726 OFFCURVE",
"83 714 CURVE SMOOTH",
"83 18 LINE SMOOTH",
"83 6 OFFCURVE",
"92 0 OFFCURVE",
"101 0 CURVE SMOOTH"
);
},
{
closed = 1;
nodes = (
"197 878 OFFCURVE",
"249 898 OFFCURVE",
"249 929 CURVE SMOOTH",
"249 938 OFFCURVE",
"242 944 OFFCURVE",
"235 944 CURVE SMOOTH",
"219 944 OFFCURVE",
"216 912 OFFCURVE",
"170 912 CURVE SMOOTH",
"119 912 OFFCURVE",
"92 949 OFFCURVE",
"43 949 CURVE SMOOTH",
"7 949 OFFCURVE",
"-46 923 OFFCURVE",
"-46 897 CURVE SMOOTH",
"-46 886 OFFCURVE",
"-40 880 OFFCURVE",
"-33 880 CURVE SMOOTH",
"-19 880 OFFCURVE",
"-7 915 OFFCURVE",
"36 915 CURVE SMOOTH",
"92 915 OFFCURVE",
"117 878 OFFCURVE",
"165 878 CURVE SMOOTH"
);
}
);
width = 202;
},
{
hints = (
{
place = "{54, 156}";
type = Stem;
},
{
horizontal = 1;
place = "{818, 101}";
type = Stem;
},
{
horizontal = 1;
place = "{845, 74}";
type = Stem;
},
{
horizontal = 1;
place = "{845, 101}";
type = Stem;
},
{
horizontal = 1;
place = "{0, 21}";
target = up;
type = BottomGhost;
},
{
horizontal = 1;
place = "{731, -20}";
target = down;
type = TopGhost;
}
);
layerId = "228CC867-ECE3-4F82-B853-1E58141B916C";
paths = (
{
closed = 1;
nodes = (
"171 0 OFFCURVE",
"210 16 OFFCURVE",
"210 48 CURVE SMOOTH",
"210 684 LINE SMOOTH",
"210 717 OFFCURVE",
"171 731 OFFCURVE",
"132 731 CURVE SMOOTH",
"93 731 OFFCURVE",
"54 717 OFFCURVE",
"54 684 CURVE SMOOTH",
"54 48 LINE SMOOTH",
"54 16 OFFCURVE",
"93 0 OFFCURVE",
"132 0 CURVE SMOOTH"
);
},
{
closed = 1;
nodes = (
"243 818 OFFCURVE",
"309 820 OFFCURVE",
"309 891 CURVE SMOOTH",
"309 901 OFFCURVE",
"302 940 OFFCURVE",
"271 940 CURVE SMOOTH",
"248 940 OFFCURVE",
"227 919 OFFCURVE",
"185 919 CURVE SMOOTH",
"130 919 OFFCURVE",
"100 946 OFFCURVE",
"39 946 CURVE SMOOTH",
"20 946 OFFCURVE",
"-46 944 OFFCURVE",
"-46 873 CURVE SMOOTH",
"-46 863 OFFCURVE",
"-39 824 OFFCURVE",
"-8 824 CURVE SMOOTH",
"15 824 OFFCURVE",
"36 845 OFFCURVE",
"78 845 CURVE SMOOTH",
"126 845 OFFCURVE",
"153 818 OFFCURVE",
"224 818 CURVE SMOOTH"
);
}
);
width = 264;
}
);
leftKerningGroup = I;
rightKerningGroup = I;
unicode = 0128;
},
{
glyphname = J;
lastChange = "2016-08-25 09:49:10 +0000";
layers = (
{
background = {
paths = (
{
closed = 1;
nodes = (
"222 731 LINE SMOOTH",
"210 731 OFFCURVE",
"205 722 OFFCURVE",
"205 714 CURVE SMOOTH",
"205 704 OFFCURVE",
"211 695 OFFCURVE",
"222 695 CURVE SMOOTH",
"381 695 LINE",
"381 200 LINE SMOOTH",
"381 84 OFFCURVE",
"322 30 OFFCURVE",
"222 30 CURVE SMOOTH",
"134 30 OFFCURVE",
"74 71 OFFCURVE",
"62 161 CURVE SMOOTH",
"61 173 OFFCURVE",
"52 179 OFFCURVE",
"43 179 CURVE SMOOTH",
"34 179 OFFCURVE",
"26 173 OFFCURVE",
"26 159 CURVE",
"33 67 OFFCURVE",
"99 -6 OFFCURVE",
"222 -6 CURVE SMOOTH",
"332 -6 OFFCURVE",
"417 50 OFFCURVE",
"417 200 CURVE SMOOTH",
"417 713 LINE SMOOTH",
"417 725 OFFCURVE",
"408 731 OFFCURVE",
"399 731 CURVE SMOOTH"
);
}
);
};
hints = (
{
place = "{26, 36}";
type = Stem;
},
{
place = "{381, 36}";
type = Stem;
},
{
horizontal = 1;
place = "{-6, 36}";
type = Stem;
},
{
horizontal = 1;
place = "{695, 36}";
type = Stem;
}
);
layerId = UUID0;
paths = (
{
closed = 1;
nodes = (
"332 -6 OFFCURVE",
"417 50 OFFCURVE",
"417 200 CURVE SMOOTH",
"417 713 LINE SMOOTH",
"417 725 OFFCURVE",
"408 731 OFFCURVE",
"399 731 CURVE SMOOTH",
"222 731 LINE SMOOTH",
"210 731 OFFCURVE",
"205 722 OFFCURVE",
"205 714 CURVE SMOOTH",
"205 704 OFFCURVE",
"211 695 OFFCURVE",
"222 695 CURVE SMOOTH",
"381 695 LINE",
"381 200 LINE SMOOTH",
"381 84 OFFCURVE",
"322 30 OFFCURVE",
"222 30 CURVE SMOOTH",
"134 30 OFFCURVE",
"62 72 OFFCURVE",
"62 161 CURVE SMOOTH",
"62 173 OFFCURVE",
"52 179 OFFCURVE",
"43 179 CURVE SMOOTH",
"34 179 OFFCURVE",
"26 173 OFFCURVE",
"26 159 CURVE SMOOTH",
"26 67 OFFCURVE",
"99 -6 OFFCURVE",
"222 -6 CURVE SMOOTH"
);
}
);
width = 496;
},
{
background = {
paths = (
{
closed = 1;
nodes = (
"252 731 LINE SMOOTH",
"240 731 OFFCURVE",
"235 722 OFFCURVE",
"235 714 CURVE SMOOTH",
"235 704 OFFCURVE",
"241 695 OFFCURVE",
"252 695 CURVE SMOOTH",
"411 695 LINE",
"411 200 LINE SMOOTH",
"411 84 OFFCURVE",
"352 30 OFFCURVE",
"252 30 CURVE SMOOTH",
"164 30 OFFCURVE",
"104 71 OFFCURVE",
"92 161 CURVE SMOOTH",
"91 173 OFFCURVE",
"82 179 OFFCURVE",
"73 179 CURVE SMOOTH",
"64 179 OFFCURVE",
"56 173 OFFCURVE",
"56 159 CURVE",
"63 67 OFFCURVE",
"129 -6 OFFCURVE",
"252 -6 CURVE SMOOTH",
"362 -6 OFFCURVE",
"447 50 OFFCURVE",
"447 200 CURVE SMOOTH",
"447 713 LINE SMOOTH",
"447 725 OFFCURVE",
"438 731 OFFCURVE",
"429 731 CURVE SMOOTH"
);
}
);
};
hints = (
{
place = "{6, 156}";
type = Stem;
},
{
place = "{341, 156}";
type = Stem;
},
{
horizontal = 1;
place = "{-6, 136}";
type = Stem;
},
{
horizontal = 1;
place = "{595, 136}";
type = Stem;
}
);
layerId = "228CC867-ECE3-4F82-B853-1E58141B916C";
paths = (
{
closed = 1;
nodes = (
"388 -6 OFFCURVE",
"497 58 OFFCURVE",
"497 230 CURVE SMOOTH",
"497 683 LINE SMOOTH",
"497 715 OFFCURVE",
"463 731 OFFCURVE",
"429 731 CURVE SMOOTH",
"254 731 LINE SMOOTH",
"221 731 OFFCURVE",
"207 696 OFFCURVE",
"207 664 CURVE SMOOTH",
"207 627 OFFCURVE",
"224 595 OFFCURVE",
"254 595 CURVE SMOOTH",
"341 595 LINE",
"341 230 LINE SMOOTH",
"341 162 OFFCURVE",
"308 130 OFFCURVE",
"250 130 CURVE SMOOTH",
"170 130 OFFCURVE",
"165 191 OFFCURVE",
"162 230 CURVE SMOOTH",
"159 267 OFFCURVE",
"125 277 OFFCURVE",
"85 277 CURVE SMOOTH",
"31 277 OFFCURVE",
"6 263 OFFCURVE",
"6 203 CURVE SMOOTH",
"6 70 OFFCURVE",
"114 -6 OFFCURVE",
"257 -6 CURVE SMOOTH"
);
}
);
width = 548;
}
);
leftKerningGroup = J;
rightKerningGroup = J;
unicode = 004A;
},
{
glyphname = Jcircumflex;
lastChange = "2016-08-25 09:49:10 +0000";
layers = (
{
hints = (
{
place = "{26, 36}";
type = Stem;
},
{
place = "{381, 36}";
type = Stem;
},
{
horizontal = 1;
place = "{-6, 36}";
type = Stem;
},
{
horizontal = 1;
place = "{695, 36}";
type = Stem;
},
{
horizontal = 1;
place = "{953, -20}";
target = down;
type = TopGhost;
}
);
layerId = UUID0;
paths = (
{
closed = 1;
nodes = (
"332 -6 OFFCURVE",
"417 50 OFFCURVE",
"417 200 CURVE SMOOTH",
"417 713 LINE SMOOTH",
"417 725 OFFCURVE",
"408 731 OFFCURVE",
"399 731 CURVE SMOOTH",
"222 731 LINE SMOOTH",
"210 731 OFFCURVE",
"205 722 OFFCURVE",
"205 714 CURVE SMOOTH",
"205 704 OFFCURVE",
"211 695 OFFCURVE",
"222 695 CURVE SMOOTH",
"381 695 LINE",
"381 200 LINE SMOOTH",
"381 84 OFFCURVE",
"322 30 OFFCURVE",
"222 30 CURVE SMOOTH",
"134 30 OFFCURVE",
"62 72 OFFCURVE",
"62 161 CURVE SMOOTH",
"62 173 OFFCURVE",
"52 179 OFFCURVE",
"43 179 CURVE SMOOTH",
"34 179 OFFCURVE",
"26 173 OFFCURVE",
"26 159 CURVE SMOOTH",
"26 67 OFFCURVE",
"99 -6 OFFCURVE",
"222 -6 CURVE SMOOTH"
);
},
{
closed = 1;
nodes = (
"138 859 OFFCURVE",
"141 861 OFFCURVE",
"144 862 CURVE",
"248 918 LINE",
"352 863 LINE",
"355 862 OFFCURVE",
"358 860 OFFCURVE",
"361 860 CURVE SMOOTH",
"370 860 OFFCURVE",
"378 867 OFFCURVE",
"378 876 CURVE SMOOTH",
"378 883 OFFCURVE",
"375 890 OFFCURVE",
"369 893 CURVE SMOOTH",
"265 948 LINE",
"260 951 OFFCURVE",
"254 953 OFFCURVE",
"248 953 CURVE SMOOTH",
"242 953 OFFCURVE",
"236 951 OFFCURVE",
"231 948 CURVE",
"127 892 LINE SMOOTH",
"121 889 OFFCURVE",
"118 883 OFFCURVE",
"118 878 CURVE SMOOTH",
"118 867 OFFCURVE",
"127 859 OFFCURVE",
"136 859 CURVE SMOOTH"
);
}
);
width = 496;
},
{
hints = (
{
place = "{6, 156}";
type = Stem;
},
{
place = "{341, 156}";
type = Stem;
},
{
horizontal = 1;
place = "{-6, 136}";
type = Stem;
},
{
horizontal = 1;
place = "{595, 136}";
type = Stem;
},
{
horizontal = 1;
place = "{731, 77}";
type = Stem;
},
{
horizontal = 1;
place = "{959, -20}";
target = down;
type = TopGhost;
}
);
layerId = "228CC867-ECE3-4F82-B853-1E58141B916C";
paths = (
{
closed = 1;
nodes = (
"388 -6 OFFCURVE",
"497 58 OFFCURVE",
"497 230 CURVE SMOOTH",
"497 683 LINE SMOOTH",
"497 715 OFFCURVE",
"463 731 OFFCURVE",
"429 731 CURVE SMOOTH",
"254 731 LINE SMOOTH",
"221 731 OFFCURVE",
"207 696 OFFCURVE",
"207 664 CURVE SMOOTH",
"207 627 OFFCURVE",
"224 595 OFFCURVE",
"254 595 CURVE SMOOTH",
"341 595 LINE",
"341 230 LINE SMOOTH",
"341 162 OFFCURVE",
"308 130 OFFCURVE",
"250 130 CURVE SMOOTH",
"170 130 OFFCURVE",
"165 191 OFFCURVE",
"162 230 CURVE SMOOTH",
"159 267 OFFCURVE",
"125 277 OFFCURVE",
"85 277 CURVE SMOOTH",
"31 277 OFFCURVE",
"6 263 OFFCURVE",
"6 203 CURVE SMOOTH",
"6 70 OFFCURVE",
"114 -6 OFFCURVE",
"257 -6 CURVE SMOOTH"
);
},
{
closed = 1;
nodes = (
"162 808 OFFCURVE",
"166 809 OFFCURVE",
"170 811 CURVE SMOOTH",
"274 867 LINE",
"378 811 LINE SMOOTH",
"382 809 OFFCURVE",
"386 808 OFFCURVE",
"389 808 CURVE SMOOTH",
"407 808 OFFCURVE",
"420 831 OFFCURVE",
"420 854 CURVE SMOOTH",
"420 871 OFFCURVE",
"413 888 OFFCURVE",
"395 898 CURVE SMOOTH",
"291 954 LINE SMOOTH",
"285 957 OFFCURVE",
"280 959 OFFCURVE",
"274 959 CURVE SMOOTH",
"268 959 OFFCURVE",
"263 957 OFFCURVE",
"257 954 CURVE SMOOTH",
"153 898 LINE SMOOTH",
"135 888 OFFCURVE",
"128 871 OFFCURVE",
"128 854 CURVE SMOOTH",
"128 831 OFFCURVE",
"141 808 OFFCURVE",
"159 808 CURVE SMOOTH"
);
}
);
width = 548;
}
);
leftKerningGroup = J;
rightKerningGroup = J;
unicode = 0134;
},
{
glyphname = K;
lastChange = "2016-09-01 12:20:08 +0000";
layers = (
{
background = {
paths = (
{
closed = 1;
nodes = (
"466 9 LINE SMOOTH",
"470 3 OFFCURVE",
"476 0 OFFCURVE",
"481 0 CURVE SMOOTH",
"491 0 OFFCURVE",
"500 8 OFFCURVE",
"500 18 CURVE SMOOTH",
"500 21 OFFCURVE",
"499 24 OFFCURVE",
"497 27 CURVE SMOOTH",
"239 415 LINE",
"470 702 LINE SMOOTH",
"473 705 OFFCURVE",
"474 709 OFFCURVE",
"474 712 CURVE SMOOTH",
"474 722 OFFCURVE",
"465 731 OFFCURVE",
"456 731 CURVE SMOOTH",
"451 731 OFFCURVE",
"445 729 OFFCURVE",
"442 725 CURVE SMOOTH",
"119 322 LINE",
"119 714 LINE SMOOTH",
"119 726 OFFCURVE",
"110 731 OFFCURVE",
"101 731 CURVE SMOOTH",
"92 731 OFFCURVE",
"83 726 OFFCURVE",
"83 714 CURVE SMOOTH",
"83 18 LINE SMOOTH",
"83 6 OFFCURVE",
"92 0 OFFCURVE",
"101 0 CURVE SMOOTH",
"110 0 OFFCURVE",
"119 6 OFFCURVE",
"119 18 CURVE SMOOTH",
"119 265 LINE",
"215 385 LINE"
);
}
);
};
hints = (
{
place = "{83, 36}";
type = Stem;
},
{
horizontal = 1;
place = "{0, 21}";
target = up;
type = BottomGhost;
},
{
horizontal = 1;
place = "{731, -20}";
target = down;
type = TopGhost;
}
);
layerId = UUID0;
paths = (
{
closed = 1;
nodes = (
"110 0 OFFCURVE",
"119 6 OFFCURVE",
"119 18 CURVE SMOOTH",
"119 265 LINE",
"215 385 LINE",
"466 9 LINE SMOOTH",
"470 3 OFFCURVE",
"476 0 OFFCURVE",
"481 0 CURVE SMOOTH",
"491 0 OFFCURVE",
"500 8 OFFCURVE",
"500 18 CURVE SMOOTH",
"500 21 OFFCURVE",
"499 24 OFFCURVE",
"497 27 CURVE SMOOTH",
"239 415 LINE",
"470 702 LINE",
"473 705 OFFCURVE",
"474 709 OFFCURVE",
"474 712 CURVE SMOOTH",
"474 722 OFFCURVE",
"465 731 OFFCURVE",
"456 731 CURVE SMOOTH",
"451 731 OFFCURVE",
"445 729 OFFCURVE",
"442 725 CURVE SMOOTH",
"119 322 LINE",
"119 714 LINE SMOOTH",
"119 726 OFFCURVE",
"110 731 OFFCURVE",
"101 731 CURVE SMOOTH",
"92 731 OFFCURVE",
"83 726 OFFCURVE",
"83 714 CURVE SMOOTH",
"83 18 LINE SMOOTH",
"83 6 OFFCURVE",
"92 0 OFFCURVE",
"101 0 CURVE SMOOTH"
);
}
);
width = 508;
},
{
background = {
paths = (
{
closed = 1;
nodes = (
"478 9 LINE SMOOTH",
"482 3 OFFCURVE",
"488 0 OFFCURVE",
"493 0 CURVE SMOOTH",
"503 0 OFFCURVE",
"512 8 OFFCURVE",
"512 18 CURVE SMOOTH",
"512 21 OFFCURVE",
"511 24 OFFCURVE",
"509 27 CURVE SMOOTH",
"251 415 LINE",
"482 702 LINE SMOOTH",
"485 705 OFFCURVE",
"486 709 OFFCURVE",
"486 712 CURVE SMOOTH",
"486 722 OFFCURVE",
"477 731 OFFCURVE",
"468 731 CURVE SMOOTH",
"463 731 OFFCURVE",
"457 729 OFFCURVE",
"454 725 CURVE SMOOTH",
"131 322 LINE",
"131 714 LINE SMOOTH",
"131 726 OFFCURVE",
"122 731 OFFCURVE",
"113 731 CURVE SMOOTH",
"104 731 OFFCURVE",
"95 726 OFFCURVE",
"95 714 CURVE SMOOTH",
"95 18 LINE SMOOTH",
"95 6 OFFCURVE",
"104 0 OFFCURVE",
"113 0 CURVE SMOOTH",
"122 0 OFFCURVE",
"131 6 OFFCURVE",
"131 18 CURVE SMOOTH",
"131 265 LINE",
"227 385 LINE"
);
}
);
};
hints = (
{
place = "{54, 156}";
type = Stem;
},
{
horizontal = 1;
place = "{0, 21}";
target = up;
type = BottomGhost;
},
{
horizontal = 1;
place = "{-6, 21}";
target = up;
type = BottomGhost;
},
{
horizontal = 1;
place = "{731, -20}";
target = down;
type = TopGhost;
}
);
layerId = "228CC867-ECE3-4F82-B853-1E58141B916C";
paths = (
{
closed = 1;
nodes = (
"171 0 OFFCURVE",
"210 16 OFFCURVE",
"210 48 CURVE SMOOTH",
"210 229 LINE",
"252 283 LINE",
"423 23 LINE SMOOTH",
"436 2 OFFCURVE",
"456 -6 OFFCURVE",
"477 -6 CURVE SMOOTH",
"522 -6 OFFCURVE",
"571 33 OFFCURVE",
"571 72 CURVE SMOOTH",
"571 81 OFFCURVE",
"568 90 OFFCURVE",
"563 98 CURVE SMOOTH",
"356 415 LINE",
"520 621 LINE",
"528 632 OFFCURVE",
"530 643 OFFCURVE",
"530 651 CURVE SMOOTH",
"530 690 OFFCURVE",
"478 731 OFFCURVE",
"438 731 CURVE SMOOTH",
"422 731 OFFCURVE",
"408 725 OFFCURVE",
"397 709 CURVE SMOOTH",
"210 444 LINE",
"210 684 LINE SMOOTH",
"210 717 OFFCURVE",
"171 731 OFFCURVE",
"132 731 CURVE SMOOTH",
"93 731 OFFCURVE",
"54 717 OFFCURVE",
"54 684 CURVE SMOOTH",
"54 48 LINE SMOOTH",
"54 16 OFFCURVE",
"93 0 OFFCURVE",
"132 0 CURVE SMOOTH"
);
}
);
width = 566;
}
);
leftKerningGroup = I;
rightKerningGroup = K;
unicode = 004B;
},
{
glyphname = Kcommaaccent;
lastChange = "2016-09-01 12:20:23 +0000";
layers = (
{
hints = (
{
place = "{83, 36}";
type = Stem;
},
{
horizontal = 1;
place = "{0, 21}";
target = up;
type = BottomGhost;
},
{
horizontal = 1;
place = "{731, -20}";
target = down;
type = TopGhost;
},
{
horizontal = 1;
place = "{-141, 21}";
target = up;
type = BottomGhost;
}
);
layerId = UUID0;
paths = (
{
closed = 1;
nodes = (
"110 0 OFFCURVE",
"119 6 OFFCURVE",
"119 18 CURVE SMOOTH",
"119 265 LINE",
"215 385 LINE",
"466 9 LINE SMOOTH",
"470 3 OFFCURVE",
"476 0 OFFCURVE",
"481 0 CURVE SMOOTH",
"491 0 OFFCURVE",
"500 8 OFFCURVE",
"500 18 CURVE SMOOTH",
"500 21 OFFCURVE",
"499 24 OFFCURVE",
"497 27 CURVE SMOOTH",
"239 415 LINE",
"470 702 LINE",
"473 705 OFFCURVE",
"474 709 OFFCURVE",
"474 712 CURVE SMOOTH",
"474 722 OFFCURVE",
"465 731 OFFCURVE",
"456 731 CURVE SMOOTH",
"451 731 OFFCURVE",
"445 729 OFFCURVE",
"442 725 CURVE SMOOTH",
"119 322 LINE",
"119 714 LINE SMOOTH",
"119 726 OFFCURVE",
"110 731 OFFCURVE",
"101 731 CURVE SMOOTH",
"92 731 OFFCURVE",
"83 726 OFFCURVE",
"83 714 CURVE SMOOTH",
"83 18 LINE SMOOTH",
"83 6 OFFCURVE",
"92 0 OFFCURVE",
"101 0 CURVE SMOOTH"
);
},
{
closed = 1;
nodes = (
"209 -141 OFFCURVE",
"212 -140 OFFCURVE",
"215 -138 CURVE",
"310 -84 LINE SMOOTH",
"317 -80 OFFCURVE",
"320 -73 OFFCURVE",
"320 -66 CURVE SMOOTH",
"320 -57 OFFCURVE",
"314 -48 OFFCURVE",
"304 -48 CURVE SMOOTH",
"302 -48 OFFCURVE",
"299 -49 OFFCURVE",
"297 -50 CURVE",
"195 -110 LINE",
"189 -113 OFFCURVE",
"187 -118 OFFCURVE",
"187 -123 CURVE SMOOTH",
"187 -133 OFFCURVE",
"196 -141 OFFCURVE",
"206 -141 CURVE SMOOTH"
);
}
);
width = 508;
},
{
hints = (
{
place = "{54, 156}";
type = Stem;
},
{
place = "{177, 221}";
type = Stem;
},
{
horizontal = 1;
place = "{0, 21}";
target = up;
type = BottomGhost;
},
{
horizontal = 1;
place = "{-6, 21}";
target = up;
type = BottomGhost;
},
{
horizontal = 1;
place = "{731, -20}";
target = down;
type = TopGhost;
},
{
horizontal = 1;
place = "{-209, 21}";
target = up;
type = BottomGhost;
}
);
layerId = "228CC867-ECE3-4F82-B853-1E58141B916C";
paths = (
{
closed = 1;
nodes = (
"171 0 OFFCURVE",
"210 16 OFFCURVE",
"210 48 CURVE SMOOTH",
"210 229 LINE",
"252 283 LINE",
"423 23 LINE SMOOTH",
"436 2 OFFCURVE",
"456 -6 OFFCURVE",
"477 -6 CURVE SMOOTH",
"522 -6 OFFCURVE",
"571 33 OFFCURVE",
"571 72 CURVE SMOOTH",
"571 81 OFFCURVE",
"568 90 OFFCURVE",
"563 98 CURVE SMOOTH",
"356 415 LINE",
"520 621 LINE",
"528 632 OFFCURVE",
"530 643 OFFCURVE",
"530 651 CURVE SMOOTH",
"530 690 OFFCURVE",
"478 731 OFFCURVE",
"438 731 CURVE SMOOTH",
"422 731 OFFCURVE",
"408 725 OFFCURVE",
"397 709 CURVE SMOOTH",
"210 444 LINE",
"210 684 LINE SMOOTH",
"210 717 OFFCURVE",
"171 731 OFFCURVE",
"132 731 CURVE SMOOTH",
"93 731 OFFCURVE",
"54 717 OFFCURVE",
"54 684 CURVE SMOOTH",
"54 48 LINE SMOOTH",
"54 16 OFFCURVE",
"93 0 OFFCURVE",
"132 0 CURVE SMOOTH"
);
},
{
closed = 1;
nodes = (
"228 -209 OFFCURVE",
"233 -207 OFFCURVE",
"238 -205 CURVE",
"378 -140 LINE SMOOTH",
"392 -133 OFFCURVE",
"398 -120 OFFCURVE",
"398 -106 CURVE SMOOTH",
"398 -80 OFFCURVE",
"378 -48 OFFCURVE",
"351 -48 CURVE SMOOTH",
"347 -48 OFFCURVE",
"342 -49 OFFCURVE",
"337 -51 CURVE",
"197 -116 LINE SMOOTH",
"183 -123 OFFCURVE",
"177 -136 OFFCURVE",
"177 -151 CURVE SMOOTH",
"177 -177 OFFCURVE",
"197 -209 OFFCURVE",
"223 -209 CURVE SMOOTH"
);
}
);
width = 566;
}
);
leftKerningGroup = I;
rightKerningGroup = K;
unicode = 0136;
},
{
glyphname = L;
lastChange = "2016-08-25 09:49:10 +0000";
layers = (
{
background = {
paths = (
{
closed = 1;
nodes = (
"423 0 LINE SMOOTH",
"433 0 OFFCURVE",
"438 9 OFFCURVE",
"438 18 CURVE SMOOTH",
"438 27 OFFCURVE",
"433 36 OFFCURVE",
"423 36 CURVE SMOOTH",
"119 36 LINE",
"119 714 LINE SMOOTH",
"119 726 OFFCURVE",
"110 731 OFFCURVE",
"101 731 CURVE SMOOTH",
"92 731 OFFCURVE",
"83 726 OFFCURVE",
"83 714 CURVE SMOOTH",
"83 18 LINE SMOOTH",
"83 6 OFFCURVE",
"92 0 OFFCURVE",
"101 0 CURVE SMOOTH"
);
}
);
};
hints = (
{
place = "{83, 36}";
type = Stem;
},
{
horizontal = 1;
place = "{0, 36}";
type = Stem;
},
{
horizontal = 1;
place = "{731, -20}";
target = down;
type = TopGhost;
}
);
layerId = UUID0;
paths = (
{
closed = 1;
nodes = (
"423 0 LINE SMOOTH",
"433 0 OFFCURVE",
"438 9 OFFCURVE",
"438 18 CURVE SMOOTH",
"438 27 OFFCURVE",
"433 36 OFFCURVE",
"423 36 CURVE SMOOTH",
"119 36 LINE",
"119 714 LINE SMOOTH",
"119 726 OFFCURVE",
"110 731 OFFCURVE",
"101 731 CURVE SMOOTH",
"92 731 OFFCURVE",
"83 726 OFFCURVE",
"83 714 CURVE SMOOTH",
"83 18 LINE SMOOTH",
"83 6 OFFCURVE",
"92 0 OFFCURVE",
"101 0 CURVE SMOOTH"
);
}
);
width = 452;
},
{
background = {
paths = (
{
closed = 1;
nodes = (
"444 0 LINE SMOOTH",
"454 0 OFFCURVE",
"459 9 OFFCURVE",
"459 18 CURVE SMOOTH",
"459 27 OFFCURVE",
"454 36 OFFCURVE",
"444 36 CURVE SMOOTH",
"140 36 LINE",
"140 714 LINE SMOOTH",
"140 726 OFFCURVE",
"131 731 OFFCURVE",
"122 731 CURVE SMOOTH",
"113 731 OFFCURVE",
"104 726 OFFCURVE",
"104 714 CURVE SMOOTH",
"104 18 LINE SMOOTH",
"104 6 OFFCURVE",
"113 0 OFFCURVE",
"122 0 CURVE SMOOTH"
);
}
);
};
hints = (
{
place = "{54, 156}";
type = Stem;
},
{
horizontal = 1;
place = "{0, 136}";
type = Stem;
},
{
horizontal = 1;
place = "{731, -20}";
target = down;
type = TopGhost;
}
);
layerId = "228CC867-ECE3-4F82-B853-1E58141B916C";
paths = (
{
closed = 1;
nodes = (
"438 0 LINE SMOOTH",
"468 0 OFFCURVE",
"483 34 OFFCURVE",
"483 68 CURVE SMOOTH",
"483 102 OFFCURVE",
"468 136 OFFCURVE",
"438 136 CURVE SMOOTH",
"210 136 LINE",
"210 684 LINE SMOOTH",
"210 717 OFFCURVE",
"171 731 OFFCURVE",
"132 731 CURVE SMOOTH",
"93 731 OFFCURVE",
"54 717 OFFCURVE",
"54 684 CURVE SMOOTH",
"54 48 LINE SMOOTH",
"54 16 OFFCURVE",
"88 0 OFFCURVE",
"122 0 CURVE SMOOTH"
);
}
);
width = 492;
}
);
leftKerningGroup = I;
rightKerningGroup = L;
unicode = 004C;
},
{
glyphname = Lacute;
lastChange = "2016-08-25 09:49:10 +0000";
layers = (
{
hints = (
{
place = "{83, 36}";
type = Stem;
},
{
horizontal = 1;
place = "{0, 36}";
type = Stem;
},
{
horizontal = 1;
place = "{731, -20}";
target = down;
type = TopGhost;
},
{
horizontal = 1;
place = "{953, -20}";
target = down;
type = TopGhost;
}
);
layerId = UUID0;
paths = (
{
closed = 1;
nodes = (
"423 0 LINE SMOOTH",
"433 0 OFFCURVE",
"438 9 OFFCURVE",
"438 18 CURVE SMOOTH",
"438 27 OFFCURVE",
"433 36 OFFCURVE",
"423 36 CURVE SMOOTH",
"119 36 LINE",
"119 714 LINE SMOOTH",
"119 726 OFFCURVE",
"110 731 OFFCURVE",
"101 731 CURVE SMOOTH",
"92 731 OFFCURVE",
"83 726 OFFCURVE",
"83 714 CURVE SMOOTH",
"83 18 LINE SMOOTH",
"83 6 OFFCURVE",
"92 0 OFFCURVE",
"101 0 CURVE SMOOTH"
);
},
{
closed = 1;
nodes = (
"216 860 OFFCURVE",
"219 861 OFFCURVE",
"222 863 CURVE",
"317 917 LINE SMOOTH",
"324 921 OFFCURVE",
"327 928 OFFCURVE",
"327 935 CURVE SMOOTH",
"327 944 OFFCURVE",
"321 953 OFFCURVE",
"311 953 CURVE SMOOTH",
"309 953 OFFCURVE",
"306 952 OFFCURVE",
"304 951 CURVE",
"202 891 LINE",
"196 888 OFFCURVE",
"194 883 OFFCURVE",
"194 878 CURVE SMOOTH",
"194 868 OFFCURVE",
"203 860 OFFCURVE",
"213 860 CURVE SMOOTH"
);
}
);
width = 452;
},
{
hints = (
{
place = "{54, 156}";
type = Stem;
},
{
place = "{146, 221}";
type = Stem;
},
{
horizontal = 1;
place = "{0, 136}";
type = Stem;
},
{
horizontal = 1;
place = "{731, -20}";
target = down;
type = TopGhost;
},
{
horizontal = 1;
place = "{959, -20}";
target = down;
type = TopGhost;
}
);
layerId = "228CC867-ECE3-4F82-B853-1E58141B916C";
paths = (
{
closed = 1;
nodes = (
"438 0 LINE SMOOTH",
"468 0 OFFCURVE",
"483 34 OFFCURVE",
"483 68 CURVE SMOOTH",
"483 102 OFFCURVE",
"468 136 OFFCURVE",
"438 136 CURVE SMOOTH",
"210 136 LINE",
"210 684 LINE SMOOTH",
"210 717 OFFCURVE",
"171 731 OFFCURVE",
"132 731 CURVE SMOOTH",
"93 731 OFFCURVE",
"54 717 OFFCURVE",
"54 684 CURVE SMOOTH",
"54 48 LINE SMOOTH",
"54 16 OFFCURVE",
"88 0 OFFCURVE",
"122 0 CURVE SMOOTH"
);
},
{
closed = 1;
nodes = (
"197 798 OFFCURVE",
"202 800 OFFCURVE",
"207 802 CURVE",
"347 867 LINE SMOOTH",
"361 874 OFFCURVE",
"367 887 OFFCURVE",
"367 901 CURVE SMOOTH",
"367 927 OFFCURVE",
"347 959 OFFCURVE",
"320 959 CURVE SMOOTH",
"316 959 OFFCURVE",
"311 958 OFFCURVE",
"306 956 CURVE",
"166 891 LINE SMOOTH",
"152 884 OFFCURVE",
"146 871 OFFCURVE",
"146 856 CURVE SMOOTH",
"146 830 OFFCURVE",
"166 798 OFFCURVE",
"192 798 CURVE SMOOTH"
);
}
);
width = 492;
}
);
leftKerningGroup = I;
rightKerningGroup = L;
unicode = 0139;
},
{
glyphname = Lcaron;
lastChange = "2016-08-25 09:49:10 +0000";
layers = (
{
hints = (
{
place = "{83, 36}";
type = Stem;
},
{
place = "{288, 71}";
type = Stem;
},
{
horizontal = 1;
place = "{0, 36}";
type = Stem;
},
{
horizontal = 1;
place = "{731, -20}";
target = down;
type = TopGhost;
},
{
horizontal = 1;
place = "{741, -20}";
target = down;
type = TopGhost;
}
);
layerId = UUID0;
paths = (
{
closed = 1;
nodes = (
"423 0 LINE SMOOTH",
"433 0 OFFCURVE",
"438 9 OFFCURVE",
"438 18 CURVE SMOOTH",
"438 27 OFFCURVE",
"433 36 OFFCURVE",
"423 36 CURVE SMOOTH",
"119 36 LINE",
"119 714 LINE SMOOTH",
"119 726 OFFCURVE",
"110 731 OFFCURVE",
"101 731 CURVE SMOOTH",
"92 731 OFFCURVE",
"83 726 OFFCURVE",
"83 714 CURVE SMOOTH",
"83 18 LINE SMOOTH",
"83 6 OFFCURVE",
"92 0 OFFCURVE",
"101 0 CURVE SMOOTH"
);
},
{
closed = 1;
nodes = (
"317 598 OFFCURVE",
"323 602 OFFCURVE",
"326 608 CURVE SMOOTH",
"342 640 OFFCURVE",
"359 689 OFFCURVE",
"359 705 CURVE SMOOTH",
"359 725 OFFCURVE",
"343 741 OFFCURVE",
"324 741 CURVE SMOOTH",
"303 741 OFFCURVE",
"288 725 OFFCURVE",
"288 705 CURVE SMOOTH",
"288 689 OFFCURVE",
"299 674 OFFCURVE",
"315 670 CURVE",
"297 619 LINE",
"296 617 OFFCURVE",
"296 615 OFFCURVE",
"296 613 CURVE SMOOTH",
"296 604 OFFCURVE",
"304 598 OFFCURVE",
"312 598 CURVE SMOOTH"
);
}
);
width = 453;
},
{
hints = (
{
place = "{54, 156}";
type = Stem;
},
{
place = "{313, 153}";
type = Stem;
},
{
horizontal = 1;
place = "{0, 136}";
type = Stem;
},
{
horizontal = 1;
place = "{487, 244}";
type = Stem;
},
{
horizontal = 1;
place = "{741, -20}";
target = down;
type = TopGhost;
}
);
layerId = "228CC867-ECE3-4F82-B853-1E58141B916C";
paths = (
{
closed = 1;
nodes = (
"438 0 LINE SMOOTH",
"468 0 OFFCURVE",
"483 34 OFFCURVE",
"483 68 CURVE SMOOTH",
"483 102 OFFCURVE",
"468 136 OFFCURVE",
"438 136 CURVE SMOOTH",
"210 136 LINE",
"210 684 LINE SMOOTH",
"210 717 OFFCURVE",
"171 731 OFFCURVE",
"132 731 CURVE SMOOTH",
"93 731 OFFCURVE",
"54 717 OFFCURVE",
"54 684 CURVE SMOOTH",
"54 48 LINE SMOOTH",
"54 16 OFFCURVE",
"88 0 OFFCURVE",
"122 0 CURVE SMOOTH"
);
},
{
closed = 1;
nodes = (
"385 487 OFFCURVE",
"398 491 OFFCURVE",
"404 505 CURVE SMOOTH",
"463 642 OFFCURVE",
"466 653 OFFCURVE",
"466 665 CURVE SMOOTH",
"466 706 OFFCURVE",
"431 741 OFFCURVE",
"389 741 CURVE SMOOTH",
"347 741 OFFCURVE",
"313 706 OFFCURVE",
"313 664 CURVE SMOOTH",
"313 635 OFFCURVE",
"329 610 OFFCURVE",
"353 596 CURVE",
"328 542 LINE SMOOTH",
"325 536 OFFCURVE",
"324 531 OFFCURVE",
"324 526 CURVE SMOOTH",
"324 501 OFFCURVE",
"353 487 OFFCURVE",
"374 487 CURVE SMOOTH"
);
}
);
width = 494;
}
);
leftKerningGroup = I;
rightKerningGroup = L;
unicode = 013D;
},
